<svg width="311" height="213" viewBox="0 0 311 213" fill="none" xmlns="http://www.w3.org/2000/svg">
<path fill-rule="evenodd" clip-rule="evenodd" d="M119.138 207.39C74.3851 210.774 26.548 170.601 26.548 121.71C26.548 72.8159 97.4819 93.653 120.492 54.8481C175.624 -38.0646 286.927 111.448 247.798 128.135C169.396 161.548 226.489 199.266 119.138 207.39Z" fill="#F0EFF4"/>
<path d="M241.419 119.744C241.443 119.874 241.504 119.996 241.529 120.126C241.726 121.348 241.853 122.179 241.722 123.247C241.409 125.529 239.973 127.74 240.803 130.631C241.697 134.727 246.215 137.217 247.43 133.157C248.127 130.475 246.941 127.21 245.614 124.248C244.875 122.66 244.024 121.139 243.07 119.699C244.115 119.623 245.143 119.368 246.118 118.942C246.323 118.852 246.491 118.77 246.697 118.679C246.755 118.712 246.851 118.736 246.909 118.769C248.7 117.925 250.17 117.107 251.992 116.573C255.125 115.572 259.095 114.568 259.391 110.844C259.423 109.663 258.448 108.475 257.428 107.614C256.05 106.587 254.368 106.194 252.734 106.517C249.919 106.906 247.977 108.777 246.924 111.085C246.276 112.537 245.977 114.183 245.774 115.854C245.729 116.677 245.554 117.574 245.738 118.437C244.543 118.969 243.221 119.168 241.817 119.204C241.749 119.184 241.677 119.184 241.608 119.204C241.106 119.218 240.604 119.192 240.105 119.126C239.99 116.576 240.927 114.203 241.747 111.765C242.014 110.803 242.378 109.865 242.471 108.806C243.192 109.049 243.937 109.19 244.69 109.224C246.08 109.327 247.261 108.435 246.732 106.97C245.785 105.009 242.501 104.055 240.721 103.676C239.205 103.42 237.666 103.377 236.14 103.549C235.93 103.556 235.721 103.587 235.516 103.64C236.411 102.676 237.267 101.721 238.104 100.725C238.851 99.884 239.557 98.9616 240.284 98.0799C242.66 98.6447 244.823 100.114 247.023 101.576C249.696 103.476 252.489 105.531 255.226 104.571C257.528 103.661 257.407 100.435 254.788 98.4774C252.133 96.5283 248.949 95.6883 246.131 95.4909C244.986 95.4089 243.837 95.4334 242.696 95.5644C242.583 95.589 242.45 95.573 242.299 95.6061L244.263 93.2793C245.373 91.9975 246.504 90.7564 247.614 89.4745C247.747 89.4904 247.918 89.4983 248.09 89.506C248.816 89.6187 249.12 89.642 249.867 89.7951C251.726 90.247 253.612 90.9189 255.468 91.281C257.246 91.6088 259.055 91.6839 260.85 91.5045C262.155 91.3542 263.535 91.1886 264.614 90.5913C266.566 89.4867 266.756 86.9604 263.974 85.1746C261.542 83.7793 258.788 83.232 256.072 83.6045C255.356 83.761 254.503 83.8111 253.87 84.1304L253.336 83.5694L253.411 83.5531C254.953 82.6286 256.655 81.9402 258.395 81.2428C260.679 80.3818 263.118 79.5777 265.59 78.6756C266.621 79.3086 267.514 79.8362 268.575 80.7792C271.422 83.2739 273.453 87.3023 276.222 90.2207C278.121 92.2449 283.097 95.8101 285.491 95.3318C290.429 94.3424 281.038 86.5021 278.804 84.6415C276.237 82.5379 273.475 80.7922 270.682 79.2344C269.757 78.7086 268.801 78.2535 267.82 77.8724C271.098 76.6587 274.334 75.3638 277.335 73.8494C277.876 73.5954 278.397 73.3009 278.88 73.0147L278.938 73.047C279.304 73.1929 279.729 73.3712 280.115 73.5575C280.732 73.7842 281.995 74.5471 282.248 74.7177C287.173 77.9325 290.251 83.539 295.604 86.5247C297.857 87.8394 300.698 88.6636 302.497 87.5023C305.467 84.6849 298.889 79.4365 295.864 77.252C292.999 75.3033 289.894 74.0402 286.803 73.1343C285.255 72.6556 283.673 72.3214 282.075 72.1353C281.577 72.0647 281.074 72.0387 280.572 72.0573C284.284 69.8966 287.755 67.2576 290.911 64.1947C291.065 64.2511 291.236 64.2592 291.39 64.3159C292.275 64.5932 293.144 64.9313 293.992 65.3283C296.176 66.3414 297.832 67.4695 299.81 69.0705C302.257 71.0201 304.717 73.3282 307.634 74.1362C308.647 74.3212 309.811 74.4732 310.493 73.9176C311.079 73.3377 311.21 72.2699 310.604 71.3182C309.77 69.8291 308.284 68.7074 306.878 67.6605C305.596 66.707 304.257 65.8526 302.87 65.1034C301.187 64.1604 299.422 63.4111 297.602 62.8672C296.147 62.4106 294.669 62.0549 293.175 61.8022C293.72 61.1408 294.264 60.4797 294.789 59.7778L294.826 59.7695C297.091 58.3708 299.748 57.3379 301.26 55.1101C301.87 54.1635 302.401 53.1438 302.334 51.8485C302.359 49.9907 299.943 48.3506 298.207 48.1429C296.393 47.8611 295.163 48.9892 294.723 50.4406C294.26 52.2587 294.68 54.3353 294.562 56.2585C294.536 57.1643 294.429 58.0651 294.245 58.948C294.228 58.9906 294.22 59.037 294.222 59.0837C294.223 59.1303 294.235 59.1759 294.255 59.2168C293.621 60.0331 292.987 60.8493 292.278 61.682C291.758 62.2863 291.209 62.8588 290.633 63.397C290.949 62.1985 290.84 60.8217 290.201 59.4714C289.804 58.519 288.829 57.8287 287.867 57.497C285.697 56.8423 285.096 58.5547 285.982 60.3939C286.645 61.8753 288.099 63.6808 288.044 64.7327C288.054 65.0209 288.046 65.3097 288.019 65.5967C287.994 65.6448 287.981 65.699 287.98 65.7545C287.978 65.8099 287.99 65.8648 288.012 65.9143C286.474 67.2557 284.858 68.4843 283.175 69.5923C283.786 68.1487 284.239 66.5587 283.829 64.7511C283.464 63.1142 281.955 61.3661 280.174 61.4842C278.506 61.5781 277.386 62.5909 276.478 63.6929C274.638 65.7668 274.33 69.2221 273.627 71.7251C273.312 72.9236 272.784 74.0329 272.235 75.1014C272.184 75.2483 271.981 75.4281 272.009 75.648C267.707 77.4017 263.299 78.8625 258.802 80.4781C256.874 81.2161 254.966 81.9947 253.219 83.0091C253.98 82.0296 254.703 81.0582 255.406 80.0463C256.302 80.1664 257.114 80.0341 257.628 79.5602C258.197 79.0293 257.948 77.9545 257.219 77.2554C257.593 76.5864 258.004 75.9093 258.357 75.1995C260.322 76.4416 262.215 77.2924 263.708 76.6046C264.972 75.8764 264.004 73.8744 262.676 72.8999C262.117 72.4752 261.525 72.1058 260.907 71.7959C261.559 71.2493 262.253 70.7655 262.979 70.3496C266.213 68.468 270.066 67.4007 272.841 64.9402C274.239 63.731 275.804 62.4399 276.186 60.459C276.309 59.7092 276.351 58.7966 275.752 58.0241C273.477 55.5851 270.384 57.1649 268.634 58.0898C267.128 58.919 265.841 60.1652 264.896 61.7081C263.964 63.1767 263.363 64.8893 262.647 66.5367C262.342 67.2167 262.006 67.8784 261.639 68.5191C261.728 68.3641 261.796 68.1684 261.886 68.0132C262.547 66.4229 263.093 64.7676 263.638 63.1125C263.714 63.0959 263.731 63.0469 263.806 63.0306C263.837 63.0077 263.862 62.9775 263.88 62.9422C263.899 62.9068 263.91 62.8673 263.913 62.8266C263.902 62.7362 263.873 62.6498 263.827 62.5742C263.844 62.5253 263.861 62.4763 263.899 62.468C263.951 62.4803 264.005 62.4724 264.053 62.4456C264.1 62.4188 264.138 62.3747 264.159 62.3208C265.14 59.6215 268.208 54.8398 265.817 51.3419C265.494 51.017 265.075 50.8353 264.639 50.8314C263.499 50.8096 262.906 51.7073 262.539 52.5555C261.709 54.7249 261.653 57.2671 262.226 59.8974C262.375 60.6358 262.561 61.3644 262.783 62.0796C262.865 62.2425 262.872 62.4216 262.992 62.5762C262.618 62.7481 262.265 62.9609 261.892 63.1328C261.529 61.8472 261.269 60.5281 261.118 59.1912C260.9 57.4318 260.662 54.6377 258.786 53.2407C258.498 53.0599 258.159 53.0078 257.838 53.095C257.516 53.1823 257.237 53.4023 257.057 53.7102C256.268 54.9668 256.64 56.7829 257.215 58.4191C257.723 59.8415 258.399 61.1825 259.225 62.4068C259.569 62.9333 259.956 63.4233 260.382 63.8705L260.402 63.9113C259.827 64.2631 259.252 64.6147 258.734 64.9988C256.775 66.4212 255.113 68.1851 253.468 69.9C253.304 70.0714 253.156 70.1941 252.992 70.3656C252.769 70.0076 252.585 69.6413 252.4 69.2751C251.801 68.0775 251.284 66.8313 250.855 65.5471C250.11 63.4059 249.064 59.8398 246.566 58.037C245.765 57.444 244.881 57.6824 244.542 58.2536C243.99 59.2325 244.557 60.6897 245.002 61.9027C245.802 63.9866 247.074 66.0123 248.494 67.9156C249.332 68.9973 250.15 70.038 251.081 71.0543C251.296 71.2331 251.477 71.5098 251.71 71.6396C250.614 72.7829 249.48 73.9343 248.345 75.0858C247.331 72.8233 246.684 70.7959 245.874 68.4432C245.091 66.3104 244.284 64.048 242.564 62.21C241.164 60.8445 239.599 61.1414 239.194 62.4949C238.443 64.7374 239.389 67.6926 240.661 70.2146C241.494 71.7523 242.491 73.1725 243.631 74.4442C244.312 75.2186 245.03 75.9513 245.783 76.639C245.978 76.777 246.156 76.9641 246.351 77.1022C245.82 77.6249 245.272 78.1964 244.741 78.7192L243.148 80.2873C243.11 80.2956 243.072 80.3038 243.093 80.3437C243.055 80.3519 243.076 80.3927 243.076 80.3927C242.672 80.7522 242.25 81.1605 241.846 81.5197L241.808 81.5277C240.451 78.2556 238.827 74.9515 236.36 71.9674C235.224 70.5442 233.955 69.1051 232.397 68.0902C230.665 66.9781 228.009 66.023 227.768 68.199C227.677 70.3421 229.138 72.3267 230.911 74.0171C229.727 73.3274 228.456 72.8823 227.258 72.8282C226.546 72.7877 225.848 73.0512 225.305 73.5646C224.763 74.0781 224.418 74.8025 224.342 75.5892C224.23 78.6857 227.081 81.7668 229.103 84.5324C230.201 85.9636 231.21 87.5502 231.202 88.862C231.185 89.2734 231.124 89.681 231.02 90.0765C230.969 90.2231 230.859 90.3375 230.941 90.5002C230.964 90.5537 230.997 90.601 231.038 90.6389C231.078 90.6768 231.126 90.7043 231.178 90.7196C231.084 90.8196 230.999 90.9289 230.924 91.0462C230.177 91.3901 229.55 91.8886 229.451 92.7688C229.46 92.8622 229.45 92.9568 229.423 93.0458C229.381 93.141 229.326 93.2289 229.262 93.3071C228.914 93.8393 228.592 94.3922 228.299 94.9633C228.444 92.7631 228.664 90.5464 227.834 88.1529C226.525 84.1473 222.823 80.123 221.733 76.3858C221.183 74.3828 221.352 72.8098 221.206 70.9445C221.397 70.9927 221.565 70.911 221.596 70.7234C221.692 70.2506 221.772 69.8269 221.888 69.3947C222.245 67.7805 222.541 66.5414 222.994 64.9517C223.244 64.0384 223.532 63.1172 223.821 62.1957L223.858 62.1874C224.388 62.0712 224.925 61.9992 225.465 61.9718C226.485 61.839 228.937 61.8903 230.105 62.132C232.529 62.4603 235.565 63.9197 237.315 62.4979C238.621 61.354 237.523 58.9292 235.805 57.6781C233.789 56.0859 231.273 55.3259 229.174 55.559C227.623 55.7175 226.458 56.5594 225.369 57.3849C225.184 57.5164 224.999 57.6465 224.777 57.7855C225 56.6525 225.186 55.5277 225.436 54.6146C226.113 51.8911 227.196 49.3959 228.164 46.8352C228.355 46.8837 228.523 46.8018 228.694 46.8095C229.15 46.8003 229.605 46.7907 230.043 46.8307C231.366 46.9457 232.678 47.188 233.964 47.5548C235.518 47.9828 237.099 48.631 238.664 48.832C240.879 49.1607 243.067 48.7727 244.325 47.3683C245.487 45.9397 243.981 43.784 242.137 42.6967C240.251 41.5278 238.162 41.0357 236.241 40.9589C233.427 40.8515 231.783 42.0693 230.744 44.2391C230.459 44.753 229.763 45.4472 229.198 45.5708C228.997 45.6528 228.79 45.7133 228.579 45.7515C228.753 45.352 228.87 44.9198 229.025 44.4795C229.893 41.8049 230.076 39.0994 231.563 36.7411C232.355 35.5741 234.044 34.0302 234.881 32.5371C235.292 31.86 235.703 31.1827 236.057 30.4731C238.659 29.9943 241.949 30.6301 244.839 30.224C245.915 30.0342 246.983 29.6651 247.559 28.8153C248.728 27.0686 247.63 25.1405 245.182 24.1849C242.578 23.0831 240.437 24.2288 238.751 25.3652C238.21 25.7692 237.723 26.2561 237.305 26.8114C237.444 26.2513 237.613 25.7013 237.813 25.1644C238.228 24.0797 238.735 23.4266 239.598 22.6507C240.56 21.925 241.463 21.1081 242.298 20.209C242.937 19.8126 243.554 19.3759 244.148 18.9009C244.922 18.28 245.696 17.6588 246.118 16.7535C246.718 15.5381 247.007 13.6226 245.436 12.2494C244.57 11.445 243.269 11.1873 242.447 11.5477C240.478 12.7011 240.246 16.1401 240.796 18.64C240.929 19.1534 241.062 19.6664 241.195 20.1791L241.216 20.2197C240.849 20.5709 240.483 20.9221 240.096 21.2326C239.409 21.7266 238.775 22.3048 238.204 22.9563C238.17 21.5632 238.648 20.1036 238.553 18.5884C238.483 16.2094 236.882 13.5327 234.562 11.9166C231.663 10.0659 229.361 11.4728 229.982 14.3636C230.241 15.7075 230.994 17.0337 231.726 18.3194C232.594 19.7105 233.521 21.1342 234.671 22.4187C235.246 23.0611 235.876 23.6462 236.526 24.272C236.721 24.4576 236.93 24.6234 237.152 24.7677C236.75 25.7138 236.544 26.7977 236.259 27.8088C235.805 29.3139 235.133 30.7271 234.271 31.9932C233.506 33.3801 231.834 34.8752 230.827 36.3603C230.633 36.6484 230.467 36.9573 230.33 37.2824C230.29 37.1928 230.236 37.1127 230.169 37.0465C229.735 35.1083 229.74 33.2099 229.536 31.3119C229.216 27.858 227.941 24.2517 224.138 22.1015C222.43 21.1197 220.208 20.6117 219.074 21.7634C217.796 23.127 218.003 25.6116 219.163 27.6612C220.794 30.6476 223.659 33.0931 226.506 35.0906C227.656 35.8784 228.697 36.2833 229.449 37.1126L229.49 37.1939C229.545 37.455 229.618 37.7109 229.709 37.9593C229.736 38.0077 229.773 38.0483 229.818 38.0779C229.862 38.1075 229.911 38.1253 229.963 38.1299C229.218 40.0543 228.902 42.2468 228.288 44.0979C227.365 46.8296 226.21 49.4321 225.287 52.1629C225.181 51.8699 225.048 51.357 224.942 51.064C224.515 49.598 224.168 48.1053 223.9 46.5937C223.146 42.6927 222.091 37.8635 217.724 35.3401C212.011 32.3878 207.417 35.9674 211.128 41.7515C213.163 44.8755 216.38 47.1085 219.584 48.9828C221.2 50.03 222.959 50.865 224.068 52.0683C224.252 52.33 224.409 52.6139 224.536 52.9146C224.618 53.0773 224.604 53.2151 224.741 53.3214L224.916 53.4187C224.851 53.7042 224.748 53.9976 224.683 54.2827C224.147 56.2068 223.865 58.3022 223.446 60.2904C223.345 60.7818 223.211 61.2642 223.045 61.7334C223.007 61.7417 223.028 61.7825 223.011 61.8313C222.908 62.1249 222.842 62.4102 222.74 62.7038C220.906 60.3935 219.905 57.4961 218.119 54.9501C216.364 52.7135 213.637 50.3735 210.976 50.3228C207.066 50.3645 209.726 55.972 211.882 58.2564C213.644 60.175 215.899 61.5792 218.214 62.5189C218.48 63.545 218.822 64.5544 219.184 65.6047C218.924 65.255 218.626 64.9133 218.366 64.5636C217.631 63.6855 215.869 61.2697 214.787 61.7776C213.769 62.497 215.428 64.7092 216.445 65.4808C217.408 66.2811 218.492 66.8852 219.645 67.2651L219.683 67.2569C219.956 68.1707 220.151 69.1116 220.263 70.0665C220.349 70.8206 220.396 71.5793 220.406 72.3393C220.327 72.2662 220.228 72.1514 220.149 72.0793C219.772 71.6646 219.434 71.2418 219.095 70.8188C218.318 69.8592 217.617 68.8842 216.638 68.1034C214.814 66.5596 213.215 67.4514 214.449 69.4854C215.4 71.0393 217.194 71.7769 218.731 72.2536C219.039 72.3663 219.81 72.6503 220.165 73.0237L220.186 73.0644C220.265 73.1375 220.306 73.219 220.384 73.2921C220.469 75.0355 220.707 76.8356 221.706 78.6502C223.594 82.3936 226.656 86.0609 227.325 89.7096C227.747 92.3728 227.164 95.0304 227.288 97.8491C227.334 101.092 228.014 104.512 228.155 107.779C228.213 108.309 228.271 108.838 228.346 109.319C227.33 108.05 226.259 106.839 225.133 105.685C222.806 103.393 220.441 101.109 218.244 98.743C218.256 98.5169 218.299 98.2942 218.372 98.0828C218.576 97.263 218.885 96.4802 219.291 95.7584C220.305 93.9553 222.666 92.0839 223.102 89.549C223.796 86.2809 220.079 83.8853 217.332 85.0733C214.931 86.3663 214.946 89.7964 215.184 92.5905C215.309 93.7365 215.517 94.8694 215.805 95.9785L215.507 95.6371C213.958 93.8074 212.48 91.8719 210.947 89.9932C210.94 89.8141 210.779 89.5782 210.714 89.3665C210.498 88.9431 210.316 88.4991 210.171 88.0397C209.641 86.5746 209.19 84.1881 209.212 82.7379C209.166 79.4951 210.955 77.071 210.214 73.5286C209.849 71.3947 207.591 68.4099 205.475 69.686C204.807 70.103 204.494 70.8941 204.217 71.5874C203.767 72.7707 203.609 74.1146 203.642 75.5077C203.71 77.531 204.094 79.5258 204.775 81.4039C205.192 82.5967 205.679 83.7575 206.235 84.8787C203.48 82.3188 200.472 80.0854 197.741 77.6557C197.759 77.6053 197.766 77.5506 197.76 77.4967C197.755 77.4427 197.738 77.391 197.71 77.3461C197.656 77.0863 197.621 76.8221 197.605 76.556C197.557 75.7985 197.654 74.3315 197.986 73.5812C199.214 70.8733 200.613 68.1731 200.468 64.8166C200.378 60.9059 199.372 54.3494 194.46 51.9899C191.098 50.4663 189.572 53.3297 189.558 55.9531C189.311 60.5244 191.585 65.4485 193.452 70.1452C194.207 72.0583 194.778 73.6048 195.376 75.3715C194.67 74.641 194 73.8673 193.371 73.0541C191.633 70.7688 190.409 68.5067 188.945 65.9355C187.68 63.592 186.263 61.2813 184.998 58.9378C184.752 58.4495 184.523 57.9123 184.277 57.4239C184.301 57.397 184.32 57.3643 184.332 57.3282C184.343 57.2922 184.348 57.2537 184.345 57.2155C184.341 57.1773 184.331 57.1404 184.313 57.1074C184.295 57.0745 184.271 57.0462 184.243 57.0248C182.453 54.8862 181.352 52.8682 179.748 50.5987C177.302 47.1581 174.455 43.6694 170.852 41.25C169.253 40.1539 167.517 39.9461 166.928 41.4303C166.575 42.6371 167.2 44.1266 167.802 45.4859C168.438 46.7473 169.132 48.0403 170.049 49.1958C171.544 51.0826 173.372 52.7161 175.271 54.2433C177.464 55.9628 179.789 57.465 182.219 58.7323L184.601 59.9733C184.661 60.0061 184.727 60.0228 184.793 60.0218C185.61 61.5597 186.561 63.1136 187.416 64.6434C187.17 64.5927 186.926 64.5252 186.687 64.4413C185.51 64.115 184.366 63.6536 183.274 63.0644C179.341 60.988 175.673 57.8597 171.366 56.4529C170.541 56.2275 169.682 56.0985 169.048 56.4178C168.691 56.6203 168.413 56.9614 168.268 57.3763C168.123 57.7912 168.119 58.251 168.259 58.6683C168.823 60.5328 170.609 62.0849 172.286 63.2541C176.184 65.9255 180.696 67.7399 184.774 67.6162C186.141 67.5884 187.483 67.4304 188.624 66.9552L188.661 66.9469C189.903 69.1603 191.181 71.3652 192.759 73.4148C194.117 75.1959 195.753 76.7808 197.44 78.219C197.677 78.4384 197.971 78.6902 198.244 78.9014C196.29 78.4254 194.473 77.5578 192.421 76.5605C190.313 75.5308 188.208 74.5905 186.031 73.7566C183.432 72.8338 180.577 71.6511 178.163 72.0885C176.694 72.4099 176.392 73.9668 177.435 75.4553C178.382 76.9203 179.96 77.9752 181.384 78.9739C183.791 80.5494 186.403 81.7004 189.127 82.3857C191.869 83.0963 194.598 83.4482 197.194 83.2873C198.974 83.1691 200.81 82.9937 202.382 82.3788C202.42 82.3705 202.399 82.3299 202.399 82.3299C204.517 84.1255 206.598 85.9294 208.38 87.8896C209.472 89.1418 210.526 90.4022 211.542 91.6707C208.854 91.4975 206.189 91.0206 203.589 90.2474C199.908 89.3355 195.342 87.5782 192.865 89.8817C191.337 91.1645 191.944 93.697 193.964 95.3788C195.904 96.9874 198.263 97.601 200.417 97.8078C203.755 98.2073 206.522 97.06 208.937 95.629C209.979 95.04 211.297 94.2547 212.198 93.9673C212.453 93.8665 212.719 93.8083 212.989 93.7945L213.215 93.7449C213.893 94.5901 214.628 95.469 215.343 96.3065C215.621 96.607 215.86 96.9164 216.117 97.1765L216.158 97.2578C216.199 97.3391 216.257 97.3716 216.373 97.4366L217.502 98.6804C217.498 98.7269 217.504 98.7738 217.518 98.8176C217.533 98.8614 217.556 98.9008 217.587 98.9329C217.672 99.0096 217.772 99.065 217.878 99.0951C219.698 101.046 221.611 102.932 223.562 104.81C225.231 106.41 226.799 108.135 228.256 109.972C228.335 110.045 228.396 110.167 228.496 110.281C228.512 110.387 228.51 110.495 228.489 110.599C228.251 113.362 228.663 116.253 229.096 119.185C227.51 120.436 224.723 120.051 222.565 120.749C221.065 121.258 219.859 122.514 219.944 124.258C219.997 126.189 221.369 128.329 223.313 129.53C225.979 131.251 228.545 129.787 229.013 127.561C229.445 125.931 229.552 124.236 229.677 122.492C230.073 124.438 230.451 126.433 230.618 128.34C230.884 130.36 230.618 132.405 230.662 134.564C230.713 134.915 230.631 135.249 230.757 135.582C230.959 135.9 231.469 135.833 231.418 135.483C231.296 134.245 231.441 132.542 231.462 131.092C231.437 129.662 231.345 128.234 231.188 126.815C230.932 124.566 230.352 122.254 229.942 119.949C229.956 119.811 229.97 119.672 229.983 119.533C229.989 119.511 229.99 119.488 229.986 119.465C229.981 119.442 229.973 119.421 229.96 119.403C230.298 119.329 230.295 119.239 230.521 119.19C231.778 118.78 233.086 118.72 234.476 118.822C234.426 118.969 234.469 119.14 234.397 119.246C234.353 119.572 234.284 119.768 234.253 119.955C233.937 121.154 233.426 122.214 232.936 123.315C232.024 125.322 230.995 127.76 232.521 130.453C235.068 135.091 239.959 134.338 238.914 129.778C238.419 127.22 236.493 124.479 235.761 122.199C235.516 121.214 235.454 120.595 235.667 119.69C235.703 119.454 235.771 119.226 235.87 119.014C237.092 119.199 238.298 119.432 239.557 119.608C240.175 119.698 240.797 119.743 241.419 119.744ZM219.349 64.0332C219.199 63.5693 219.086 63.0969 218.957 62.6735C219.265 62.7862 219.61 62.892 219.898 62.9646C220.61 63.2156 221.089 63.3365 221.657 63.7997L221.678 63.8403L221.736 63.8728C221.893 64.0191 221.996 64.2225 222.17 64.3198C222.153 64.3688 222.174 64.4096 222.136 64.4177C221.648 66.0345 221.234 67.6781 220.897 69.3419C220.88 69.3908 220.901 69.4315 220.863 69.4398C220.645 67.6804 219.968 65.8406 219.349 64.0332ZM233.272 106.572C233.686 106.481 235.264 106.543 235.648 106.64C236.016 106.7 236.381 106.786 236.74 106.898C236.187 107.919 235.865 109.075 235.803 110.265C235.404 109.825 234.948 109.453 234.451 109.16C233.537 108.548 232.53 108.125 231.48 107.912L231.459 107.872C231.768 107.488 232.076 107.104 232.405 106.761L232.443 106.753C232.71 106.65 232.989 106.589 233.272 106.572ZM244.502 91.6022C244.231 89.7951 243.763 88.0314 243.108 86.3502C242.681 85.2385 242.203 84.1519 241.675 83.0946C241.581 82.8977 241.473 82.71 241.351 82.5332L241.957 81.9939C243.391 82.764 244.661 83.7067 246.091 84.8847C246.875 85.5266 247.72 86.2904 248.62 86.997C247.274 88.5569 245.869 90.0838 244.502 91.6025L244.502 91.6022ZM258.421 65.7899C259.487 64.9567 260.616 64.2262 261.795 63.6064C262.038 63.5082 262.223 63.3773 262.466 63.2791C262.037 64.5022 261.629 65.7661 261.142 66.9567C260.655 68.1473 260.111 69.3057 259.565 70.464C259.534 70.4869 259.509 70.5171 259.491 70.5524C259.472 70.5878 259.461 70.6273 259.459 70.668C259.425 70.7658 259.369 70.8229 259.335 70.9208C258.115 70.5175 256.857 70.277 255.586 70.2046C254.977 70.1571 254.405 70.1015 253.816 70.0947C255.354 68.584 256.855 67.0814 258.421 65.7903V65.7899ZM252.61 71.3535C254 71.9533 255.742 73.3342 257.552 74.5195C257.179 75.1884 256.842 75.8492 256.448 76.4774C255.781 76.0707 255.058 75.7863 254.309 75.6352C252.492 75.2428 250.632 75.162 248.793 75.3958C250.054 74.08 251.369 72.7081 252.61 71.3535ZM246.394 77.7723C246.529 77.6474 246.657 77.5138 246.778 77.3722C247.028 77.4532 247.312 77.4361 247.562 77.5171C248.521 77.7592 249.52 78.0828 250.482 78.4145C251.54 78.7704 253.005 79.3536 254.364 79.6438C253.662 80.6558 252.901 81.6348 252.14 82.6149C251.182 81.8756 250.1 81.3893 249.022 80.9926C248.039 80.6144 247.024 80.352 245.992 80.2096C245.324 80.1295 244.677 80.0905 244.03 80.0512C244.856 79.2828 245.644 78.5228 246.394 77.7714V77.7723ZM233.219 87.4749C233.86 86.3408 234.498 85.1171 234.848 83.8209C235.197 84.5125 235.546 85.2042 235.953 85.9285C234.744 86.8767 233.584 87.8996 232.479 88.9921C232.725 88.4858 232.972 87.9797 233.219 87.4739L233.219 87.4749ZM232.114 90.426C233.443 89.0276 234.861 87.7363 236.356 86.562C237.584 88.585 238.984 90.4725 240.537 92.1985C241.07 92.7596 241.662 93.3529 242.213 93.8649C242.28 93.9321 242.352 93.9919 242.429 94.0435C241.538 95.0967 240.668 96.1906 239.797 97.2845C239.759 97.2705 239.718 97.2677 239.678 97.2764C239.639 97.285 239.602 97.3048 239.571 97.3339C239.544 97.3476 239.52 97.3677 239.501 97.3929C239.481 97.4181 239.467 97.4477 239.459 97.4796C239.451 97.5115 239.45 97.5449 239.455 97.5775C239.46 97.6101 239.472 97.6411 239.489 97.6682C238.998 98.2723 238.546 98.868 238.036 99.4315C237.667 97.705 237.374 95.9622 236.625 94.2287C235.688 92.0389 234.138 90.2094 232.114 90.426ZM228.888 107.666C228.692 103.959 227.93 100.376 228.008 96.8805C228.019 96.6525 228.008 96.3835 228.019 96.1555C228.42 96.2034 228.471 95.5595 228.67 95.2902C228.9 94.8334 229.15 94.4173 229.4 94.0011C229.745 95.1003 230.453 96.255 231.23 97.2152C232.304 98.5163 233.828 99.131 235.187 99.9189C235.447 100.084 235.695 100.272 235.929 100.479C235.95 100.52 236.029 100.593 236.049 100.634C236.107 100.666 236.21 100.87 236.268 100.902C236.345 101.014 236.407 101.137 236.453 101.268C235.068 102.836 233.568 104.339 232.146 105.915C232.271 104.759 232.272 103.591 232.148 102.436C232.042 101.645 231.875 100.733 231.276 99.9608C230.838 99.424 230.017 99.2875 229.671 99.6791C229.304 100.03 229.307 100.617 229.29 101.163C229.347 102.189 229.634 103.256 229.976 104.266C230.264 105.114 230.493 105.985 230.662 106.871C230.709 107.088 230.736 107.309 230.744 107.531C230.182 108.241 229.641 108.992 229.12 109.784C229.055 109.075 228.953 108.374 228.888 107.666H228.888ZM230.452 118.482C230.197 118.545 229.946 118.63 229.702 118.737L229.665 118.745C229.385 116.864 229.154 114.746 229.059 113.23C229.031 112.93 229.032 112.626 229.063 112.326C229.083 112.364 229.112 112.397 229.146 112.421C229.18 112.445 229.218 112.46 229.258 112.464C229.566 112.577 229.785 112.349 229.621 112.023C229.556 111.812 229.529 111.591 229.464 111.38C229.615 111.347 229.724 111.233 229.68 111.062C229.718 111.053 229.718 111.053 229.776 111.086C230.152 111.109 230.524 111.179 230.885 111.295C231.597 111.546 232.877 112.26 233.877 112.584C234.551 112.843 235.315 112.947 235.859 112.783C235.91 113.297 235.999 113.807 236.126 114.306C236.503 115.836 237.13 117.276 237.975 118.554C238.016 118.636 238.095 118.709 238.136 118.79C235.688 118.332 232.669 117.817 230.453 118.482H230.452Z" fill="#DAD8E4"/>
<path fill-rule="evenodd" clip-rule="evenodd" d="M81.0814 69.1678C65.6525 73.2147 42.4774 87.9226 37.1382 60.685C33.4805 42.0223 76.9168 43.6158 85.938 33.2754C105.783 10.5285 136.328 31.1075 123.267 38.42C97.0951 53.0652 118.093 59.4579 81.0814 69.1678Z" fill="#F0EFF4"/>
<path fill-rule="evenodd" clip-rule="evenodd" d="M198.918 99.5838C193.1 109.265 134.507 114.574 126.891 102.678C115.12 84.3081 149.02 31.8106 149.02 31.8106C148.583 29.3014 148.501 23.2357 150.281 20.8688C152.977 17.2709 148.967 13.854 151.462 13.0779C154.668 12.0841 157.238 15.4483 162.824 17.1306C166.134 18.1171 165.672 27.7652 162.543 33.1654C161.429 35.0812 159.302 35.2563 159.302 35.2563C159.302 35.2563 146.225 70.9923 149.002 77.8365C152.447 86.3022 168.847 76.5552 194.046 72.6048C206.097 70.7132 202.124 94.2477 198.918 99.5838Z" fill="#FFC197"/>
<path fill-rule="evenodd" clip-rule="evenodd" d="M166.501 73.4293C168.707 75.3076 169.228 79.756 169.602 82.5389C169.999 85.4799 169.878 88.499 168.993 91.334C167.663 95.6016 164.903 99.0913 163.768 103.436C162.926 106.669 163.127 110.312 164.114 113.485C164.574 114.968 165.271 116.348 166.17 117.558C171.5 124.693 182.477 122.03 189.208 119.521C196.783 116.698 204.265 111.318 208.174 103.34C214.238 90.9713 208.737 75.7133 198.29 68.8542C194.147 66.1655 189.48 64.6265 184.687 64.3678C178.994 64.0359 173.149 65.2354 168.23 68.5064L166.501 73.4293Z" fill="#FE9400"/>
<path fill-rule="evenodd" clip-rule="evenodd" d="M144.34 34.119C140.555 42.0507 135.672 59.3943 133.126 67.8589C129.875 78.7269 128.581 86.9649 133.576 96.6968C139.486 108.243 159.212 103.73 168.864 100.764C170.989 100.111 173.1 99.347 175.168 98.489C178.088 97.3029 180.924 95.8748 183.652 94.2169C189.28 90.7233 193.98 85.9227 198.187 80.5394C199.397 78.9957 200.48 77.3088 201.761 75.8405C202.141 75.4016 202.718 74.7545 203.337 74.8344C204.378 74.9672 204.617 77.1001 204.757 77.9299C205.292 81.3672 205.25 84.9586 205.039 88.4259C204.209 102.13 200.199 115.82 189.168 123.305C182.357 127.929 173.873 129.367 166.106 130.632C158.353 131.895 150.193 133.037 142.341 132.242C128.327 130.823 113.539 124.06 105.871 110.257C97.007 94.2684 101.087 72.8999 108.362 57.1727C110.177 53.252 112.273 49.4813 114.764 46.0452C119.618 39.3494 126.119 33.2543 133.787 31.2098L144.34 34.119Z" fill="black" fill-opacity="0.1"/>
<path fill-rule="evenodd" clip-rule="evenodd" d="M73.2606 15.0128C72.57 13.8059 71.2578 12.9394 69.7526 12.6952C68.2697 12.4306 66.7521 12.81 65.5144 13.7548L1.63646 64.8192C-0.019464 66.143 -0.475429 68.2928 0.52986 70.0503L80.9192 210.582C81.6197 211.807 82.9211 212.655 84.437 212.918C85.9198 213.182 87.4374 212.803 88.6751 211.858L152.553 160.794C154.209 159.47 154.665 157.32 153.659 155.562L73.2606 15.0128ZM72.3006 15.4448L152.7 155.995C153.482 157.362 153.129 159.042 151.826 160.083L87.9489 211.147C86.979 211.884 85.7937 212.184 84.6321 211.988C83.4427 211.8 82.4274 211.111 81.8791 210.153L1.48999 69.6191C0.697803 68.2344 1.05026 66.5552 2.35254 65.5137L66.2298 14.4493C67.1997 13.7129 68.3851 13.4127 69.5466 13.6092C70.7472 13.8141 71.7523 14.4854 72.3006 15.4439V15.4448Z" fill="#77536F"/>
<path fill-rule="evenodd" clip-rule="evenodd" d="M85.6224 13.7305C85.5056 13.5231 85.3511 13.3451 85.1687 13.208C84.9864 13.0708 84.7802 12.9776 84.5635 12.9341C84.3506 12.8893 84.1318 12.8918 83.9199 12.9417C83.7079 12.9916 83.507 13.0878 83.3288 13.2247L15.2496 67.6476C14.9163 67.9164 14.6882 68.3167 14.6121 68.7663C14.536 69.2159 14.6177 69.6809 14.8405 70.0657L94.4432 209.224C94.5585 209.428 94.7116 209.604 94.8923 209.738C95.0731 209.872 95.2774 209.962 95.4918 210.003C95.7046 210.053 95.9244 210.052 96.1371 210.002C96.3498 209.952 96.5508 209.854 96.7272 209.712L164.806 155.289C165.14 155.025 165.369 154.629 165.447 154.182C165.525 153.735 165.446 153.272 165.225 152.889L85.6224 13.7305Z" fill="#A9A5C6"/>
<path fill-rule="evenodd" clip-rule="evenodd" d="M137.251 123.16C136.118 121.179 134.011 119.774 131.541 119.371C129.071 118.968 126.536 119.6 124.669 121.092L89.0996 149.527C84.567 153.15 83.3454 158.998 86.1008 163.814C87.234 165.794 89.3396 167.198 91.8095 167.601C94.2794 168.004 96.8148 167.372 98.6729 165.886L134.251 137.445C138.774 133.829 140.006 127.976 137.251 123.16ZM136.484 123.499L136.485 123.501C139.065 128.011 137.911 133.492 133.674 136.879L98.096 165.321C96.4385 166.646 94.1692 167.214 91.9638 166.854C89.7673 166.486 87.8782 165.241 86.8668 163.473C84.2871 158.964 85.4407 153.482 89.6775 150.095L125.256 121.653C126.913 120.328 129.182 119.759 131.378 120.125C133.583 120.486 135.472 121.731 136.484 123.499H136.484Z" fill="white"/>
<path fill-rule="evenodd" clip-rule="evenodd" d="M165.864 110.538C165.148 109.288 164.211 108.214 163.108 107.381C162.006 106.548 160.762 105.974 159.453 105.694C158.143 105.414 156.796 105.434 155.494 105.753C154.192 106.072 152.962 106.682 151.88 107.548L106.363 143.934C104.064 145.771 102.485 148.515 101.949 151.603C101.413 154.691 101.961 157.89 103.481 160.544C104.196 161.794 105.134 162.869 106.236 163.702C107.338 164.536 108.582 165.11 109.892 165.39C111.201 165.67 112.549 165.65 113.851 165.331C115.153 165.012 116.383 164.401 117.465 163.535L162.983 127.147C165.279 125.309 166.857 122.566 167.393 119.479C167.929 116.392 167.382 113.194 165.865 110.54L165.864 110.538Z" fill="#77536F"/>
<path fill-rule="evenodd" clip-rule="evenodd" d="M113.256 82.5679C112.967 82.063 112.589 81.6289 112.143 81.2925C111.698 80.956 111.195 80.7243 110.666 80.6114C110.137 80.4986 109.593 80.5071 109.067 80.6363C108.541 80.7656 108.044 81.0129 107.607 81.363L63.1072 116.937C62.1842 117.674 61.5499 118.775 61.3344 120.015C61.1189 121.254 61.3385 122.539 61.9482 123.604C62.2366 124.108 62.6147 124.541 63.0592 124.877C63.5036 125.214 64.0052 125.445 64.5332 125.559C65.0611 125.672 65.6043 125.665 66.1296 125.537C66.6548 125.409 67.151 125.163 67.5879 124.815L112.097 89.2345C113.02 88.4979 113.655 87.3971 113.87 86.1577C114.086 84.9183 113.866 83.6343 113.257 82.5689L113.256 82.5679Z" fill="white"/>
<path fill-rule="evenodd" clip-rule="evenodd" d="M122.725 99.1163C122.436 98.6114 122.057 98.1773 121.612 97.8409C121.166 97.5044 120.664 97.2727 120.135 97.1598C119.606 97.0469 119.062 97.0554 118.536 97.1846C118.01 97.3138 117.513 97.5611 117.076 97.9112L72.5758 133.486C71.6527 134.223 71.0185 135.324 70.803 136.564C70.5875 137.803 70.8071 139.088 71.4167 140.153C71.7052 140.657 72.0833 141.09 72.5277 141.426C72.9722 141.762 73.4738 141.994 74.0017 142.108C74.5296 142.221 75.0728 142.214 75.5981 142.086C76.1233 141.958 76.6196 141.712 77.0564 141.364L121.565 105.783C122.489 105.046 123.123 103.946 123.339 102.706C123.554 101.467 123.335 100.183 122.725 99.1173V99.1163Z" fill="white"/>
<path d="M118.251 150.16L119.494 149.021C119.61 149.151 119.751 149.252 119.907 149.315C120.063 149.378 120.229 149.402 120.394 149.386C120.798 149.316 121.179 149.129 121.497 148.843C121.847 148.595 122.139 148.259 122.349 147.862C122.482 147.552 122.497 147.298 122.391 147.111C122.357 147.051 122.31 147.001 122.255 146.966C122.2 146.931 122.138 146.911 122.074 146.908C121.864 146.914 121.657 146.971 121.467 147.074C121.293 147.155 120.894 147.368 120.272 147.7C119.481 148.139 118.883 148.374 118.477 148.399C117.911 148.444 117.518 148.264 117.286 147.859C117.133 147.57 117.085 147.228 117.149 146.901C117.237 146.466 117.418 146.062 117.678 145.722C118.027 145.26 118.431 144.853 118.879 144.51C119.711 143.845 120.417 143.484 120.996 143.428C121.576 143.372 122.006 143.581 122.292 144.029L120.992 145.138C120.902 145.037 120.793 144.96 120.672 144.913C120.552 144.867 120.423 144.852 120.297 144.869C119.95 144.952 119.627 145.124 119.352 145.373C119.028 145.608 118.754 145.919 118.551 146.285C118.503 146.353 118.474 146.435 118.468 146.521C118.462 146.606 118.479 146.693 118.517 146.768C118.56 146.831 118.619 146.878 118.686 146.905C118.753 146.933 118.825 146.938 118.895 146.921C119.128 146.89 119.602 146.685 120.313 146.282C120.845 145.97 121.399 145.708 121.971 145.5C122.302 145.382 122.655 145.36 122.997 145.435C123.301 145.522 123.561 145.738 123.722 146.038C123.895 146.362 123.951 146.747 123.877 147.115C123.791 147.59 123.594 148.031 123.306 148.395C122.921 148.902 122.475 149.35 121.982 149.725C121.143 150.396 120.42 150.761 119.802 150.819C119.514 150.856 119.223 150.815 118.953 150.7C118.683 150.585 118.442 150.4 118.251 150.16Z" fill="white"/>
<path d="M123.284 142.434L122.767 141.53L124.032 140.518L124.549 141.423L123.284 142.434ZM125.688 146.637L123.569 142.934L124.834 141.922L126.953 145.626L125.688 146.637Z" fill="white"/>
<path d="M128.273 144.919L129.797 143.904C129.834 143.957 129.883 143.997 129.939 144.02C129.995 144.044 130.056 144.05 130.115 144.038C130.346 143.977 130.563 143.857 130.746 143.688C131.007 143.497 131.236 143.258 131.424 142.981C131.503 142.85 131.54 142.694 131.531 142.538C131.501 142.356 131.433 142.184 131.334 142.036L131.026 141.497C130.871 142.208 130.483 142.829 129.938 143.239C129.292 143.756 128.661 143.95 128.05 143.828C127.811 143.783 127.583 143.68 127.383 143.527C127.183 143.374 127.015 143.175 126.892 142.942C126.721 142.672 126.611 142.359 126.572 142.031C126.532 141.703 126.565 141.37 126.666 141.059C126.884 140.388 127.289 139.813 127.822 139.418C128.333 138.97 128.983 138.764 129.63 138.845L129.333 138.326L130.517 137.381L132.418 140.705C132.625 141.032 132.768 141.402 132.84 141.792C132.87 142.073 132.836 142.357 132.741 142.619C132.612 142.923 132.44 143.202 132.23 143.444C131.926 143.801 131.59 144.122 131.225 144.402C130.413 145.05 129.775 145.406 129.312 145.456C128.854 145.512 128.526 145.377 128.335 145.045C128.312 145.005 128.291 144.962 128.273 144.919ZM128.161 141.849C128.386 142.242 128.645 142.45 128.951 142.477C129.27 142.494 129.584 142.384 129.836 142.167C130.127 141.947 130.346 141.63 130.461 141.261C130.512 141.079 130.524 140.886 130.496 140.698C130.469 140.51 130.402 140.331 130.302 140.177C130.082 139.791 129.814 139.588 129.508 139.561C129.17 139.549 128.838 139.67 128.571 139.903C128.292 140.113 128.083 140.42 127.978 140.775C127.934 140.958 127.928 141.149 127.96 141.335C127.992 141.521 128.06 141.697 128.161 141.849Z" fill="white"/>
<path d="M138.24 136.602L136.974 137.614L135.894 135.726C135.666 135.327 135.49 135.089 135.367 135.014C135.237 134.943 135.091 134.921 134.949 134.95C134.769 134.991 134.599 135.078 134.452 135.202C134.244 135.363 134.07 135.572 133.94 135.815C133.828 136.01 133.777 136.242 133.796 136.473C133.873 136.807 134.005 137.121 134.186 137.401L135.145 139.076L133.879 140.088L131.761 136.385L132.937 135.444L133.249 135.989C133.439 135.22 133.871 134.551 134.467 134.105C134.723 133.896 135.004 133.727 135.302 133.602C135.523 133.51 135.759 133.469 135.995 133.483C136.171 133.506 136.337 133.58 136.479 133.698C136.656 133.87 136.807 134.074 136.924 134.301L138.24 136.602Z" fill="white"/>
<path d="M139.164 128.422L140.498 127.355L142.08 130.121C142.234 130.411 142.413 130.683 142.615 130.934C142.715 131.015 142.829 131.073 142.95 131.103C143.07 131.133 143.195 131.135 143.317 131.109C144.028 130.9 144.645 130.409 145.054 129.73C145.171 129.514 145.207 129.256 145.154 129.011C145.039 128.691 144.891 128.386 144.714 128.103L143.098 125.277L144.432 124.21L145.965 126.89C146.315 127.501 146.532 127.968 146.6 128.281C146.676 128.594 146.667 128.925 146.574 129.232C146.45 129.614 146.265 129.968 146.029 130.278C145.682 130.72 145.286 131.111 144.851 131.443C144.218 131.949 143.713 132.275 143.314 132.419C142.991 132.561 142.644 132.624 142.297 132.603C142.044 132.589 141.799 132.496 141.592 132.334C141.248 131.988 140.954 131.586 140.719 131.142L139.164 128.422Z" fill="white"/>
<path d="M146.597 124.524L147.781 123.579L148.093 124.123C148.149 123.782 148.272 123.459 148.453 123.176C148.658 122.837 148.919 122.544 149.221 122.311C149.707 121.889 150.31 121.667 150.927 121.683C151.509 121.702 151.972 122.021 152.314 122.619C152.484 122.895 152.594 123.211 152.636 123.543C152.678 123.874 152.65 124.212 152.554 124.529C152.349 125.201 151.952 125.78 151.423 126.179C151.185 126.375 150.921 126.528 150.64 126.631C150.341 126.728 150.03 126.77 149.719 126.757L150.788 128.625L149.522 129.637L146.597 124.524ZM148.872 125.312C149.111 125.731 149.396 125.949 149.724 125.978C150.065 126.002 150.402 125.888 150.672 125.656C150.948 125.448 151.151 125.142 151.248 124.788C151.338 124.455 151.263 124.079 151.028 123.666C150.804 123.274 150.544 123.065 150.233 123.032C149.906 123.015 149.584 123.128 149.324 123.351C149.036 123.565 148.821 123.88 148.714 124.246C148.665 124.426 148.654 124.615 148.681 124.8C148.709 124.985 148.774 125.16 148.872 125.312Z" fill="white"/>
<path d="M81.7543 87.6235C90.2587 78.7543 91.7848 65.2161 85.1631 57.3849C78.5413 49.5538 66.2791 50.3952 57.7747 59.2644C49.2703 68.1336 47.7442 81.6718 54.366 89.503C60.9877 97.3341 73.2499 96.4926 81.7543 87.6235Z" fill="white"/>
<path fill-rule="evenodd" clip-rule="evenodd" d="M67.9968 83.1905C65.5291 83.149 63.3046 81.9466 61.9969 79.6605C59.6263 75.5163 61.1739 69.3697 65.461 65.9424C69.748 62.5152 75.1688 63.0942 77.539 67.2384C79.0723 69.9189 78.947 73.4431 77.5315 76.5171C83.3432 74.3454 88.5437 75.4215 89.8549 79.4312C91.3894 84.1394 86.971 91.1247 80.0016 95.0157C73.0323 98.9067 66.1067 98.2505 64.5724 93.5422C63.6151 90.5494 65.0339 86.6426 67.9968 83.1905Z" fill="#D1CFE1"/>
<path fill-rule="evenodd" clip-rule="evenodd" d="M193.647 178.459C195.139 147.207 185.247 120.008 186.148 102.141C186.725 90.8078 182.307 73.9862 199.079 71.2611C213.458 68.9249 231.23 73.1457 234.733 77.4428C241.824 86.1121 239.249 133.119 232.51 139.53C219.002 149.107 204.2 168.89 193.647 178.459Z" fill="#FE9400"/>
<path fill-rule="evenodd" clip-rule="evenodd" d="M222.729 94.6157C221.561 96.3469 220.9 98.4895 220.351 100.54C218.902 105.826 218.846 111.101 219.507 116.541C220.154 121.913 221.435 127.477 220.562 132.911C219.901 136.93 217.959 140.253 216.06 143.666C211.291 152.25 208.476 155.068 202.018 161.433C198.345 165.039 191.183 179.864 192.267 185.633C193.013 189.657 198.739 185.75 200.892 184.52C206.732 181.178 211.952 176.479 217.65 172.809C225.783 167.557 234.928 163.02 241.021 154.754C249.111 143.766 250.082 127.152 246.973 113.831C245.495 107.49 242.892 100.854 237.757 97.2158L222.729 94.6157Z" fill="black" fill-opacity="0.1"/>
<path fill-rule="evenodd" clip-rule="evenodd" d="M233.071 78.0087C242.738 82.5409 262.424 144.226 251.108 155.718C239.792 167.209 165.188 146.965 165.188 146.965C163.051 147.913 157.716 149.14 155.274 147.642C151.6 145.378 153.861 140.322 152.706 137.747C151.226 134.436 140.651 141.886 141.077 135.473C141.343 131.68 158.487 129.558 163.85 131.961C165.768 132.817 166.321 135.106 166.321 135.106C166.321 135.106 219.457 140.572 224.99 136.257C231.831 130.911 214.683 111.637 217.351 89.8506C218.993 76.4587 227.763 75.5151 233.071 78.0087Z" fill="#FFC197"/>
<path fill-rule="evenodd" clip-rule="evenodd" d="M217.808 117.995C219.056 115.237 222.892 113.834 225.283 112.904C227.81 111.919 230.503 111.485 233.176 111.917C237.2 112.568 240.805 114.925 244.86 115.347C247.877 115.659 251.062 114.756 253.683 113.084C254.909 112.304 255.999 111.286 256.9 110.078C262.211 102.925 257.797 91.451 254.315 84.5786C250.396 76.845 244.235 69.6922 236.445 66.9248C224.368 62.6301 211.905 71.4931 207.798 84.1757C206.197 89.2001 205.712 94.5792 206.382 99.8566C207.156 106.129 209.314 112.28 213.13 117.033L217.808 117.995Z" fill="#FE9400"/>
<path fill-rule="evenodd" clip-rule="evenodd" d="M201.363 70.8387C201.363 70.8387 207.033 66.1806 205.71 61.277C205.372 59.9895 202.812 63.6177 200.504 62.0471C197.353 59.8871 196.593 47.4383 200.153 40.9613C202.362 36.9469 210.128 34.539 212.661 37.2735C215.194 40.0081 216.193 51.6637 215.32 57.371C213.941 66.4749 221.413 71.9517 221.413 71.9517C221.413 71.9517 209.003 82.9822 205.879 92.1376C204.965 94.8262 201.363 70.8387 201.363 70.8387Z" fill="#FFC197"/>
<path fill-rule="evenodd" clip-rule="evenodd" d="M204.231 61.9473C204.681 61.677 205.047 61.1253 205.385 60.7129C206.161 59.7894 206.876 58.8051 207.524 57.7674C207.763 57.3542 208.002 56.9329 208.269 56.5249C208.326 56.4218 208.481 56.1218 208.621 56.1218C208.762 56.1218 208.678 56.6376 208.664 56.7041C208.569 57.4257 208.419 58.1367 208.213 58.8292C207.439 61.6636 205.849 63.7857 204.147 65.9906L204.231 61.9473Z" fill="black" fill-opacity="0.1"/>
<path fill-rule="evenodd" clip-rule="evenodd" d="M201.883 46.221C200.828 46.1508 199.843 45.4663 199.027 44.7663C195.889 42.0817 196.101 37.411 198.83 34.467C200.476 32.6998 203.853 31.52 205.429 34.0078C205.936 33.2109 206.991 32.8731 207.793 32.6654C208.444 32.4735 209.12 32.4079 209.791 32.4716C214.378 33.1577 213.309 39.5596 216.798 41.6067C217.937 40.7925 219.19 43.4536 219.415 44.2646C220.189 47.0852 219.851 51.9058 216.924 53.0309C216.671 53.7887 216.024 54.3216 215.447 54.7589C213.857 55.9732 211.296 56.8419 209.523 55.5872C209.31 55.434 209.116 55.2501 208.946 55.0402C207.68 53.476 209.017 51.6932 209.439 50.0681C209.664 49.2116 209.847 48.1397 209.172 47.4663C208.623 46.9382 208.074 47.2381 207.638 47.7481C206.977 48.5247 206.611 49.7482 205.555 49.967C204.036 50.2796 202.559 48.6575 202.08 47.5198C201.981 47.2789 201.883 46.221 201.883 46.221Z" fill="black"/>
<path fill-rule="evenodd" clip-rule="evenodd" d="M192.181 33.8038C192.182 33.2545 192.044 32.716 191.783 32.2496C191.521 31.7831 191.148 31.4074 190.704 31.1652L134.19 0.298714C133.786 0.0797169 133.338 -0.0217322 132.89 0.00388255C132.441 0.0294973 132.005 0.181335 131.623 0.445156C131.242 0.708976 130.927 1.07613 130.708 1.51217C130.489 1.94821 130.373 2.43885 130.372 2.93805V13.3249C130.373 13.8738 130.512 14.4114 130.773 14.8775C131.034 15.3436 131.407 15.7197 131.85 15.9634L188.375 46.8357C188.778 47.0557 189.226 47.1576 189.675 47.1319C190.124 47.1061 190.56 46.9535 190.941 46.6886C191.322 46.4236 191.636 46.055 191.853 45.6177C192.07 45.1804 192.183 44.6888 192.181 44.1894L192.181 33.8038Z" fill="#77536F"/>
<path fill-rule="evenodd" clip-rule="evenodd" d="M138.344 15.6793L137.142 14.1683L138.706 12.4027L135.94 10.0783L136.31 8.76956L139.076 11.0935L138.93 7.8894L140.36 8.59074L140.507 11.7949L143.182 12.1388L143.691 13.8784L141.016 13.5343L142.817 16.9507L141.701 17.3251L139.908 13.9119L138.344 15.6793Z" fill="white"/>
<path fill-rule="evenodd" clip-rule="evenodd" d="M148.299 21.1099L147.096 19.5986L148.661 17.833L145.895 15.5092L146.264 14.2005L149.031 16.5243L148.884 13.3203L150.315 14.0217L150.461 17.2256L153.137 17.5697L153.646 19.3092L150.97 18.9652L152.772 22.3816L151.656 22.7558L149.863 19.3428L148.299 21.1099Z" fill="white"/>
<path fill-rule="evenodd" clip-rule="evenodd" d="M158.965 26.3929L157.762 24.8818L159.327 23.1162L156.561 20.7924L156.931 19.4837L159.697 21.8077L159.55 18.6035L160.981 19.3049L161.127 22.509L163.803 22.8529L164.312 24.5925L161.636 24.2485L163.438 27.6648L162.322 28.0392L160.529 24.626L158.965 26.3929Z" fill="white"/>
<path fill-rule="evenodd" clip-rule="evenodd" d="M169.38 32.6248L168.178 31.1135L169.742 29.3479L166.976 27.0239L167.346 25.7154L170.112 28.0392L169.966 24.8352L171.396 25.5366L171.542 28.7405L174.218 29.0846L174.727 30.8241L172.052 30.4801L173.853 33.8963L172.737 34.2707L170.944 30.8577L169.38 32.6248Z" fill="white"/>
<path fill-rule="evenodd" clip-rule="evenodd" d="M180.371 38.6275L179.168 37.1164L180.733 35.3509L177.967 33.0271L178.337 31.7183L181.103 34.0423L180.956 30.8381L182.387 31.5395L182.533 34.7436L185.209 35.0875L185.718 36.8272L183.042 36.4831L184.844 39.8994L183.727 40.2738L181.935 36.8606L180.371 38.6275Z" fill="white"/>
<path fill-rule="evenodd" clip-rule="evenodd" d="M156.652 33.6448C157.531 32.5367 162.812 29.8669 164.198 29.6526C166.409 29.292 168.49 30.9001 167.724 33.2346C167.419 34.1328 160.73 36.1965 158.89 36.2697C158.137 36.2962 156.301 34.084 156.652 33.6448Z" fill="#FFC197"/>
</svg>
