<svg width="375" height="409" viewBox="0 0 375 409" fill="none" xmlns="http://www.w3.org/2000/svg">
<path fill-rule="evenodd" clip-rule="evenodd" d="M384.166 90.8059C371.044 5.41432 155.833 -38.1586 64.5952 43.2373C-26.6427 124.633 -10.3656 365.038 56.31 383.177C122.986 401.316 162.216 252.666 201.229 216.489C240.243 180.313 397.288 176.198 384.166 90.8059Z" fill="#91FFBD" fill-opacity="0.7"/>
<path fill-rule="evenodd" clip-rule="evenodd" d="M396.214 326.094C367.893 356.828 341.987 320.811 309.41 271.738C276.834 222.665 232.753 170.975 261.074 140.241C289.395 109.508 355.932 132.52 388.509 181.593C421.086 230.666 424.536 295.361 396.214 326.094Z" fill="#2B44FF" fill-opacity="0.6"/>
<path fill-rule="evenodd" clip-rule="evenodd" d="M0.758217 336.446C-26.1159 329.135 -48.8684 294.944 -40.0826 261.653C-31.2968 228.362 5.24523 210.302 32.1193 217.613C58.9934 224.924 58.9323 265.741 51.7264 293.046C44.5205 320.35 27.6323 343.757 0.758217 336.446Z" fill="#FF73C6" fill-opacity="0.7"/>
<g filter="url(#filter0_d_77_434)">
<rect width="148.805" height="310.582" rx="36.45" transform="matrix(0.999372 -0.0354331 0.0343739 0.999409 54 43.5628)" fill="#0C0C0C"/>
</g>
<path fill-rule="evenodd" clip-rule="evenodd" d="M154.648 57.3527C160.569 57.1428 165.203 52.173 164.999 46.2524L171.707 46.0146C185.12 45.5391 196.366 56.0266 196.827 69.4392L205.364 317.623C205.825 331.035 195.326 342.294 181.914 342.769L95.2362 345.843C81.8242 346.318 70.5775 335.831 70.1162 322.418L61.5801 74.2344C61.1188 60.8218 71.6175 49.5633 85.0296 49.0878L92.1462 48.8354C92.3498 54.7561 97.3143 59.3855 103.235 59.1756L154.648 57.3527Z" fill="#F1EFEF"/>
<mask id="mask0_77_434" style="mask-type:alpha" maskUnits="userSpaceOnUse" x="65" y="36" width="200" height="311">
<rect width="189.119" height="303.359" transform="matrix(0.999372 -0.0354331 0.0343739 0.999409 65.2569 43.1637)" fill="white"/>
</mask>
<g mask="url(#mask0_77_434)">
<path fill-rule="evenodd" clip-rule="evenodd" d="M204.478 113.43C206.456 120.948 209.77 126.894 212.49 128.46C219.311 132.389 239.087 112.617 242.459 100.484C245.83 88.3511 227.411 63.5631 211.261 78.3174C205.656 83.4381 203.268 90.5712 202.825 97.8672L169.707 120.441L187.214 137.605L204.478 113.43Z" fill="#B28B67"/>
<path fill-rule="evenodd" clip-rule="evenodd" d="M251.671 95.0321C247.914 98.9824 241.79 99.2147 237.747 95.653C234.893 94.1847 231.587 91.9192 228.25 89.0595C227.451 90.518 226.363 91.9982 224.946 93.4876C223.695 94.8028 222.226 96.0572 220.615 97.2149C220.715 95.7293 220.314 94.3037 219.392 93.3992C216.811 90.8692 212.968 91.2604 210.794 93.5457C208.036 96.4461 207.691 100.164 209.942 102.695C203.753 104.792 197.724 105.03 194.724 102.089C189.027 96.5024 192.322 84.8068 200.22 76.5026C200.498 76.2108 200.779 75.9266 201.064 75.65C197.859 75.1009 194.398 75.1077 190.913 75.1145L190.913 75.1145C183.508 75.129 175.99 75.1437 170.567 69.827C159.718 59.1895 176.513 32.7764 191.671 47.6385C201.98 57.7459 205.601 64.2417 207.828 70.7799C211.033 69.1613 214.317 68.3785 217.3 68.5076C218.107 68.4454 219.101 68.6044 220.238 68.9627C220.952 69.1617 221.637 69.4248 222.285 69.7534C225.855 71.3554 230.331 74.4056 234.739 78.4354C235.562 79.1879 236.352 79.9464 237.105 80.7048C240.992 76.6429 247.391 76.5415 251.411 80.4839C255.44 84.4338 255.556 90.9473 251.671 95.0321Z" fill="#191847"/>
<path fill-rule="evenodd" clip-rule="evenodd" d="M49.7335 279.923C49.7335 279.923 83.2924 297.764 109.181 303.351C135.07 308.938 160.543 298.113 160.543 298.113C160.543 298.113 127.804 280.169 105.209 275.293C82.6144 270.417 49.7335 279.923 49.7335 279.923Z" fill="#1F28CF"/>
<path fill-rule="evenodd" clip-rule="evenodd" d="M127.734 317.54C127.578 317.14 127.464 316.717 127.397 316.271C126.006 307.04 94.3718 203.876 92.8258 185.929L150.166 198.304C151.342 211.949 151.872 296.101 150.957 312.671C153.37 339.639 152.087 425.017 152.925 431.132C153.806 437.565 140.509 441.198 138.85 433.166C136.21 420.385 130.859 385.443 129.595 364.539C128.411 344.943 127.777 327.406 127.734 317.54Z" fill="#997659"/>
<path fill-rule="evenodd" clip-rule="evenodd" d="M78.4653 318.669C53.9289 319.624 -33.5042 312.053 -39.7039 312.487C-46.0815 312.934 -48.717 299.204 -40.7143 298.08C-27.9806 296.292 6.70209 293.296 27.3142 293.467C43.8933 293.604 58.9555 294.048 69.0196 294.576C74.0117 266.613 84.2011 199.12 89.6871 185.252L140.423 196.201C135.162 209.5 94.0359 305.943 88.2013 315.226C86.266 318.572 82.4075 319.402 78.4653 318.669Z" fill="#B28B67"/>
<path fill-rule="evenodd" clip-rule="evenodd" d="M89.851 185.287C89.851 185.287 125.428 182.775 153.314 198.983C153.518 232.659 167.71 249.071 160.348 299.046C123.07 308.791 87.5277 270.643 49.3466 279.752C44.2913 254.394 69.8797 201.475 89.851 185.287Z" fill="#2B44FF"/>
<path fill-rule="evenodd" clip-rule="evenodd" d="M206.832 270.788L197.983 231.074L181.002 239.836L196.475 271.33C196.339 285.505 197.256 292.273 199.224 291.633C200.884 291.094 201.266 289.555 201.618 288.137C201.892 287.033 202.147 286.002 202.975 285.575C204.864 284.6 209.321 288.811 213.383 292.99C217.445 297.17 217.858 294.087 217.639 292.192C215.505 285.576 211.903 278.442 206.832 270.788ZM42.6837 211.781C48.4549 208.298 88.9005 163.928 88.9005 163.928L106.627 175.717C106.627 175.717 55.7061 218.742 52.2856 221.174C47.8422 224.332 46.7574 232.463 46.0218 237.976C45.908 238.829 45.8026 239.62 45.6944 240.319C42.1802 239.759 41.8272 237.403 41.4551 234.918C41.0348 232.112 40.59 229.143 35.5383 228.415C33.5866 228.134 31.633 228.035 29.7243 227.938C23.1314 227.603 17.0747 227.295 13.4855 219.606C12.9165 218.387 13.3063 215.467 16.9348 215.377C25.9749 215.152 39.8623 213.484 42.6837 211.781Z" fill="#B28B67"/>
<path fill-rule="evenodd" clip-rule="evenodd" d="M187.77 121.615L195.942 125.185C188.091 165.603 191.558 209.317 206.344 256.327L163.72 269.976C156.044 211.858 161.226 160.536 187.77 121.615Z" fill="#191847"/>
<path fill-rule="evenodd" clip-rule="evenodd" d="M95.777 194.183L161.262 237.361C161.262 237.361 174.39 166.252 199.473 127.037L181.628 111.028C149.911 126.108 125.59 154.387 95.777 194.183Z" fill="#DDE3E9"/>
<path fill-rule="evenodd" clip-rule="evenodd" d="M47.8102 203.014C107.371 125.813 181.194 110.742 181.194 110.742L181.201 110.766C181.206 110.763 181.212 110.76 181.217 110.757L182.507 111.608C184.769 113.214 189.371 116.547 189.371 116.547L185.297 133.525C169.876 159.319 128.934 241.308 128.934 241.308L86.0701 213.046C83.895 216.608 81.7767 220.279 79.7281 224.059L47.8102 203.014Z" fill="#2F3676"/>
<path fill-rule="evenodd" clip-rule="evenodd" d="M85.8601 213.39C95.3078 197.859 105.839 184.37 116.392 172.838C107.689 189.041 98.2538 209.221 97.8017 221.264L85.8601 213.39Z" fill="black" fill-opacity="0.1"/>
<path fill-rule="evenodd" clip-rule="evenodd" d="M112.443 192.912L139.991 196.891L133.61 206.869L112.443 192.912Z" fill="white" fill-opacity="0.2"/>
</g>
<path fill-rule="evenodd" clip-rule="evenodd" d="M264.1 184.853C259.629 185.177 255.76 184.449 254.39 183.22C250.954 180.138 257.964 165.256 263.932 161.047C269.9 156.838 286.903 162.454 281.936 174.341C280.212 178.467 276.781 181.17 272.891 182.811L266.891 205.722L254.214 199.164L264.1 184.853Z" fill="#B28B67"/>
<path fill-rule="evenodd" clip-rule="evenodd" d="M262.346 150.111C263.078 149.31 264.187 148.873 265.258 149.128C265.518 149.189 265.768 149.289 266 149.422C266.084 149.469 266.095 149.507 266.165 149.467C266.217 149.437 266.273 149.328 266.312 149.282C266.432 149.137 266.56 149 266.698 148.873C267.166 148.438 267.74 148.135 268.344 147.943C269.475 147.584 270.754 147.594 271.86 148.048C272.466 148.297 272.993 148.69 273.445 149.165C273.679 149.411 273.892 149.677 274.092 149.952C274.152 150.034 274.313 150.371 274.4 150.4C274.497 150.432 274.79 150.299 274.891 150.28C276.141 150.045 277.389 150.344 278.504 150.931C279.763 151.594 280.947 152.288 281.609 153.615C281.749 153.896 281.87 154.187 281.977 154.483C282.033 154.638 282.083 154.796 282.127 154.956C282.154 155.052 282.178 155.149 282.199 155.246C282.235 155.412 282.201 155.442 282.374 155.429C283.038 155.379 283.699 155.536 284.254 155.917C284.583 156.142 284.872 156.426 285.125 156.735C285.212 156.841 285.372 157.164 285.489 157.227C285.605 157.29 285.946 157.243 286.089 157.26C286.862 157.352 287.593 157.655 288.22 158.121C288.867 158.602 289.416 159.246 289.815 159.95C290.008 160.289 290.153 160.629 290.212 161.015C290.238 161.182 290.252 161.352 290.294 161.516C290.318 161.612 290.399 161.739 290.387 161.838C290.394 161.779 291.339 161.878 291.423 161.897C291.873 161.997 292.267 162.228 292.59 162.559C293.199 163.181 293.552 164.054 293.787 164.883C293.908 165.309 293.98 165.748 294.007 166.189C294.02 166.401 294.022 166.613 294.015 166.825C294.012 166.927 293.985 167.044 293.998 167.145C294.015 167.275 294.058 167.299 294.155 167.402C294.646 167.924 295.011 168.566 295.182 169.268C295.355 169.978 295.323 170.725 295.117 171.423C295.105 171.464 295.031 171.622 295.042 171.653C295.058 171.697 295.184 171.747 295.227 171.776C295.375 171.876 295.518 171.985 295.654 172.102C295.904 172.318 296.13 172.562 296.326 172.829C297.09 173.87 297.338 175.211 297.152 176.478C296.957 177.808 296.298 179.107 295.29 179.99C295.127 180.132 294.953 180.262 294.769 180.375C294.656 180.445 294.635 180.435 294.622 180.562C294.608 180.704 294.632 180.861 294.628 181.005C294.612 181.473 294.533 181.936 294.405 182.386C294.194 183.122 293.903 183.86 293.438 184.472C293.223 184.756 292.968 185.011 292.674 185.211C292.524 185.313 292.364 185.401 292.198 185.473C292.112 185.51 292.023 185.543 291.934 185.571C291.883 185.587 291.823 185.594 291.775 185.617C291.658 185.673 291.681 185.589 291.649 185.744C291.605 185.96 291.627 186.207 291.605 186.429C291.583 186.657 291.552 186.884 291.515 187.11C291.439 187.568 291.341 188.024 291.201 188.466C290.931 189.315 290.49 190.14 289.763 190.671C289.452 190.898 289.092 191.052 288.714 191.122C288.529 191.156 288.341 191.17 288.153 191.165C288.056 191.162 287.949 191.127 287.875 191.185C287.796 191.247 287.771 191.439 287.738 191.538C287.45 192.394 287.085 193.261 286.459 193.922C285.882 194.531 285.089 194.922 284.263 195.025C282.659 195.225 281.073 194.346 280.147 193.043C279.906 192.704 279.707 192.334 279.559 191.943C278.388 192.533 276.973 191.764 276.094 190.968C274.998 189.976 274.431 188.558 274.435 187.082C273.139 187.657 271.622 186.468 271.605 185.109C271.601 184.776 271.666 184.445 271.773 184.132C271.83 183.967 271.921 183.819 271.982 183.658C272.06 183.453 272.026 183.198 272.047 182.972C272.088 182.531 272.189 182.107 272.383 181.71C272.485 181.503 272.611 181.315 272.733 181.12C272.843 180.945 272.879 180.747 272.942 180.551C273.239 180.773 273.679 180.888 274.032 180.951C274.379 181.013 274.784 180.911 275.109 180.795C275.863 180.526 276.508 179.995 277.056 179.418C278.259 178.152 278.977 176.258 277.905 174.667C277.405 173.926 275.332 172.855 274.413 172.618C273.447 172.369 271.49 173.802 271.35 173.959C271.264 174.057 271.209 174.204 271.069 174.227C270.761 174.276 270.535 173.797 270.441 173.57C270.277 173.178 270.237 172.747 270.226 172.326C270.202 171.408 270.278 170.477 270.454 169.577C270.589 168.883 270.795 168.202 270.871 167.497C270.947 166.795 270.864 166.091 270.493 165.479C270.089 164.814 269.514 164.276 268.985 163.715C268.461 163.16 267.973 162.56 267.719 161.825C267.663 161.664 267.614 161.498 267.589 161.328C267.569 161.195 267.595 160.972 267.521 160.856C267.406 160.674 267.041 160.802 266.854 160.82C265.931 160.909 265.034 161.235 264.221 161.678C263.412 162.118 262.7 162.575 262.007 163.175C261.493 163.62 260.986 164.269 260.348 164.521C260.063 164.634 258.653 164.062 258.307 163.656C257.961 163.25 257.707 162.529 257.708 162.16C257.709 161.782 257.839 161.433 258.068 161.138C258.202 160.964 258.37 160.823 258.507 160.655C258.623 160.513 258.731 160.379 258.881 160.272C259.165 160.07 259.512 159.999 259.853 160.071C259.688 159.619 259.605 159.137 259.622 158.656C259.64 158.156 259.73 157.583 259.908 157.116C260.053 156.737 260.296 156.392 260.646 156.183C261.013 155.964 261.48 155.939 261.894 155.898C261.607 155.271 261.43 154.599 261.351 153.915C261.196 152.584 261.42 151.123 262.346 150.111Z" fill="#191847"/>
<path fill-rule="evenodd" clip-rule="evenodd" d="M255.565 250.142L226.468 324.916L206.952 388.131H199.246L229.081 250.142L255.565 250.142Z" fill="#997659"/>
<path fill-rule="evenodd" clip-rule="evenodd" d="M261.425 250.142C261.734 276.418 266.253 311.795 266.975 313.433C267.697 315.071 316.82 355.091 316.82 355.091L311.512 360.858C311.512 360.858 253.552 326.546 250.87 321.969C248.187 317.393 239.455 275.28 232.445 250.142H261.425Z" fill="#B28B67"/>
<path fill-rule="evenodd" clip-rule="evenodd" d="M315.71 354.849C316.075 353.732 317.245 353.054 318.325 353.486C319.394 353.913 320.606 354.467 321.214 354.986C322.442 356.032 324.455 358.456 324.455 358.456C323.26 359.902 302.962 384.462 302.962 384.462C302.962 384.462 298.824 382.664 300.366 380.255C301.908 377.847 302.889 376.222 302.889 376.222L307.459 360.011C307.613 359.466 308.179 359.159 308.712 359.33L310.819 360.009C310.819 360.009 313.419 358.779 314.464 357.515C314.954 356.921 315.388 355.835 315.71 354.849Z" fill="#E4E4E4"/>
<path fill-rule="evenodd" clip-rule="evenodd" d="M207.628 384.895C208.724 384.456 210.013 384.931 210.382 386.052C210.745 387.154 211.102 388.445 211.102 389.248C211.102 390.876 210.568 394 210.568 394C208.708 394 177.131 394 177.131 394C177.131 394 175.828 389.625 178.636 389.276C181.444 388.927 183.301 388.646 183.301 388.646L198.452 381.789C198.969 381.555 199.577 381.797 199.791 382.323L200.631 384.393C200.631 384.393 203.231 385.624 204.856 385.624C205.608 385.624 206.687 385.273 207.628 384.895Z" fill="#E4E4E4"/>
<path fill-rule="evenodd" clip-rule="evenodd" d="M236.002 381.62L199.362 377.583L226.516 250.142H259.333L236.002 381.62Z" fill="#69A1AC"/>
<path fill-rule="evenodd" clip-rule="evenodd" d="M309.241 345.787L285.207 374.67C285.207 374.67 247.236 332.564 240.933 319.721C234.629 306.879 229.6 250.142 229.6 250.142H266.546C266.546 250.142 269.293 300.057 270.25 302.379C271.206 304.702 309.241 345.787 309.241 345.787Z" fill="#89C5CC"/>
<path fill-rule="evenodd" clip-rule="evenodd" d="M195.288 211.704L213.849 226.274L205.068 233.246L192.442 217.143C185.002 213.715 181.693 211.55 182.514 210.649C183.207 209.889 184.105 210.064 184.933 210.225C185.578 210.35 186.18 210.467 186.607 210.128C187.584 209.352 186.488 205.914 185.309 202.696C184.131 199.478 185.843 200.018 186.779 200.604C189.708 203.386 192.544 207.086 195.288 211.704ZM285.116 249.556L297.487 250.166C300.228 273.582 302.115 286.512 303.148 288.955C303.906 290.746 309.908 296.385 314.106 299.648C315.791 300.957 314.988 302.476 314.306 302.854C310.008 305.24 307.04 303.271 303.809 301.128C302.874 300.507 301.917 299.872 300.898 299.324C298.264 297.904 297.049 299.154 295.901 300.336C294.884 301.382 293.92 302.374 292.069 301.412C292.254 301.043 292.472 300.632 292.707 300.189C294.224 297.322 296.462 293.095 295.43 290.048C294.901 288.484 291.463 274.987 285.116 249.556Z" fill="#B28B67"/>
<path fill-rule="evenodd" clip-rule="evenodd" d="M264.658 194.295L259.897 192.169C246.442 200.097 235.726 224.613 227.673 226.179C220.058 227.659 211.144 222.105 200.671 215.001L195.186 222.1C202.818 236.226 222.701 251.561 233.086 248.308C249.688 243.109 260.783 212.335 264.658 194.295Z" fill="#DB2721"/>
<path fill-rule="evenodd" clip-rule="evenodd" d="M270.756 263.25C270.756 263.25 240.84 255.677 226.744 252.108C224.733 251.599 225.836 248.747 226.492 247.333C234.064 231.011 251.707 215.817 257.709 191.375L270.901 192.567C277.191 212.372 275.638 234.402 270.756 263.25Z" fill="#DDE3E9"/>
<path fill-rule="evenodd" clip-rule="evenodd" d="M271.575 192.738L271.72 192.775C295.819 217.799 306.246 249.772 303 288.694L293.324 288.193C288.988 279.418 284.352 265.679 279.415 246.976C279.737 257.571 279.254 268.232 277.523 277.99L237.906 267.961C235.069 246.341 266.693 191.502 266.693 191.502L269.428 192.195L271.575 192.738Z" fill="#FF4133"/>
<defs>
</defs>
</svg>
