<svg width="375" height="390" viewBox="0 0 375 390" fill="none" xmlns="http://www.w3.org/2000/svg">
<path fill-rule="evenodd" clip-rule="evenodd" d="M408.763 98.7185C408.408 98.4513 407.566 98.3566 407.174 98.2766C405.546 97.9443 403.868 97.7996 402.208 97.7996C397.089 97.8076 391.887 98.3277 386.852 99.2279C383.656 99.7993 379.792 101.722 376.613 100.678C371.074 98.8583 365.475 98.9477 360.22 101.546C355.415 103.921 351.768 108.433 349.639 113.308C349.318 114.044 348.015 116.752 347.646 118.578C347.489 118.952 347.337 119.328 347.201 119.709C346.813 120.792 346.465 121.894 346.142 122.999C346.004 123.47 345.657 124.51 346.069 124.711C345.411 125.969 344.827 127.266 344.341 128.604C342.927 132.497 341.381 136.766 340.884 140.892C340.7 142.42 340.693 143.956 340.864 145.487C340.948 146.243 340.913 147.765 341.409 148.34C342.461 149.56 343.001 147.852 342.882 147.038C341.977 140.835 343.725 135.01 345.797 129.179C347.136 125.409 349.338 121.959 351.804 118.835C353.799 116.307 355.94 114.315 358.676 112.639C362.021 110.589 365.598 108.931 369.142 107.269C371.472 106.175 373.806 105.11 376.202 104.168C376.734 103.958 377.572 103.421 378.163 103.419C379.412 103.414 381.182 104.368 382.389 104.723C386.358 105.891 390.377 107.386 394.479 107.982C397.109 108.365 399.574 107.934 402.034 107.027C402.286 106.935 402.707 106.696 403.224 106.356C405.05 105.629 406.778 104.714 408.283 103.393C409.15 102.632 409.936 101.649 410.654 100.749C410.868 100.48 410.963 100.171 410.966 99.8784C411.129 99.7905 411.237 99.6878 411.261 99.5679C411.44 98.6821 409.808 98.6658 408.763 98.7185Z" fill="#89C5CC"/>
<path fill-rule="evenodd" clip-rule="evenodd" d="M-7.09029 172.555C-8.09461 173.397 -9.07962 174.257 -10.0406 175.151C-10.773 175.833 -12.0691 176.649 -12.3321 177.682C-12.6054 178.755 -11.7425 179.76 -11.0609 180.409C-7.45629 183.842 -3.39743 186.163 1.59732 186.548C9.28806 187.143 15.9813 185.11 22.654 181.11C27.3412 178.301 30.446 174.145 31.1241 168.533C36.7062 170.934 42.1052 174.244 46.693 178.306C48.9567 180.31 50.9064 182.531 52.7099 184.992C53.8649 186.569 54.9822 188.171 56.019 189.835C56.4697 190.558 56.9278 191.84 57.6719 192.256C58.5455 192.745 59.6012 191.979 59.5579 190.974C59.5219 190.137 58.649 189.167 58.241 188.483C57.563 187.347 56.8751 186.218 56.1505 185.114C54.9781 183.326 53.7664 181.563 52.4448 179.889C49.4749 176.129 45.6958 173.023 41.7785 170.374C34.2633 165.293 26.0155 162.092 16.8712 161.821C11.2485 161.654 6.51843 163.642 1.7101 166.611C-1.28351 168.46 -4.37379 170.278 -7.09029 172.555Z" fill="#DDE3E9"/>
<path fill-rule="evenodd" clip-rule="evenodd" d="M65.8459 147.977C59.9864 141.732 54.1067 135.564 47.5603 130.064C43.7023 126.824 39.6363 123.877 35.6542 120.804C36.1138 121.22 36.5644 121.649 37.0042 122.088C35.7612 121.215 34.134 120.721 32.8162 119.913C31.3463 119.011 29.9413 117.98 28.563 116.94C25.8728 114.911 23.2231 112.844 20.4578 110.921C17.3768 108.778 14.1839 106.799 11.0505 104.737C8.39118 102.987 5.69935 101.072 2.85443 99.6416C1.30389 98.862 -0.25029 97.9378 -1.80721 97.1247C-2.32827 96.8526 -7.61549 93.3971 -7.60217 93.3867C-7.3099 93.1587 -4.64927 94.4527 -4.23785 94.6268C-3.0359 95.1349 -1.88647 95.7427 -0.730862 96.3486C-1.36515 95.0536 -1.86724 93.6932 -2.14053 92.2611C-2.22497 91.8191 -2.90141 88.6012 -2.55527 88.3312C-2.3824 88.1964 -0.695564 93.9536 -0.609173 94.5072C-0.53896 94.9568 -0.549294 95.6043 -0.407074 96.03C-0.177517 96.7176 -0.189095 96.51 0.316654 96.8973C1.24361 97.6073 2.47404 98.0509 3.47727 98.6444C4.01826 98.957 5.69323 100.197 6.70212 100.55C9.75471 102.084 12.8488 104.445 15.7492 106.406C14.9881 104.925 14.4087 103.376 13.9863 101.754C13.8858 101.369 12.8017 97.913 13.0648 97.7079C13.3607 97.477 15.4263 102.755 15.5486 103.254C15.7759 104.183 15.8231 105.216 16.1077 106.119C16.4201 107.11 17.3947 107.461 18.2733 108.039C21.5054 110.164 24.6265 112.423 27.6957 114.785C31.0445 108.621 27.1832 101.176 23.9289 96.004C21.5832 92.2763 18.4253 89.0804 15.0909 86.2903C10.641 82.5666 5.5497 79.5918 0.464657 76.8707C-5.46045 73.7001 -11.8644 71.7357 -18.5222 70.8281C-22.0043 70.3534 -25.5667 70.3667 -29.084 70.5189C-30.8022 70.5931 -32.4514 70.8287 -34.098 71.4087C-34.8402 71.6704 -35.5574 72.0003 -36.2563 72.3696C-36.7874 72.6502 -38.0721 72.9464 -38.3774 73.3645C-40.8909 76.7505 -42.1768 80.1247 -41.9804 84.3797C-41.7947 88.4075 -40.5657 92.4374 -38.8978 96.0302C-37.0403 100.031 -34.6513 103.662 -31.5269 106.709C-29.1431 109.034 -26.478 111.058 -23.8305 113.055C-14.4141 120.158 -2.47576 126.336 9.72009 124.749C13.6679 124.235 17.4228 122.806 20.9317 120.864C21.7585 120.407 22.5804 119.944 23.3609 119.403C23.8872 119.039 25.2939 117.398 25.8231 117.339C26.5486 117.257 28.1116 118.784 28.7922 119.249C33.965 122.783 39.0022 126.509 43.9339 130.386C49.1808 134.51 54.1704 138.915 59.0131 143.527C61.0728 145.488 63.1194 147.454 65.1194 149.482C65.5849 149.954 66.7234 151.691 67.5677 151.77C68.1016 151.819 68.4616 151.347 68.3854 150.836C68.2529 149.947 66.4458 148.617 65.8459 147.977Z" fill="#C1DEE2"/>
<path fill-rule="evenodd" clip-rule="evenodd" d="M402.611 123.737C400.342 123.224 397.836 123.263 395.524 123.305C383.125 123.48 370.949 129.556 363.025 139.264C356.279 147.529 354.424 157.805 353.091 168.193C352.959 169.224 352.902 170.249 352.828 171.282C352.812 171.504 352.788 171.702 352.762 171.888C352.238 172.373 351.963 172.939 352.273 173.56C351.119 176.175 350.142 178.856 349.304 181.622C346.837 189.763 344.328 198.059 345.874 206.619C346.235 201.908 346.995 197.091 347.903 192.457C347.955 192.191 348.012 191.928 348.07 191.665C348.077 191.637 348.082 191.609 348.088 191.582C348.41 190.163 348.828 188.786 349.336 187.431C349.341 187.417 349.347 187.402 349.352 187.387C349.419 187.209 349.49 187.032 349.561 186.854C349.706 186.487 349.856 186.121 350.015 185.756C350.068 185.632 350.12 185.507 350.169 185.38C350.909 183.503 351.222 181.388 351.885 179.445C352.044 179.003 352.209 178.563 352.383 178.126C352.393 178.1 352.404 178.074 352.414 178.049C352.884 176.871 353.402 175.707 353.951 174.556C354.249 174.324 354.408 173.749 354.665 173.226C354.719 173.123 355.134 172.436 355.258 172.04C355.581 171.393 355.903 170.746 356.228 170.101C356.219 170.104 356.209 170.108 356.199 170.112C356.525 169.492 356.851 168.874 357.175 168.26C357.246 168.125 357.318 167.989 357.39 167.854C357.506 167.638 357.623 167.423 357.739 167.208C358.825 165.196 359.977 163.225 361.172 161.278C361.599 160.583 362.619 159.587 362.814 158.806C362.822 158.777 362.823 158.75 362.828 158.722C365.423 154.95 368.41 151.47 371.993 148.713C371.56 149.198 370.639 150.842 370.396 151.168C369.651 152.165 368.843 153.092 368.031 154.032C366.578 155.714 365.159 157.45 363.898 159.285C361.592 162.642 359.602 166.175 357.722 169.779C357.704 169.8 357.684 169.82 357.667 169.841C356.722 171.047 356.127 172.87 355.447 174.249C358.139 172.958 361.117 172.118 363.88 170.971C366.636 169.829 369.317 168.556 371.905 167.062C375.345 165.076 378.913 162.834 382.163 160.297C385.888 157.906 389.017 154.614 391.78 151.16C395.049 147.074 398.044 142.951 399.897 137.989C400.807 135.551 401.523 133.008 401.947 130.436C401.966 130.324 401.99 130.202 402.016 130.076C402.45 129.188 402.838 128.279 403.164 127.35C403.681 125.876 404.903 124.255 402.611 123.737Z" fill="#52B5C9"/>
<path fill-rule="evenodd" clip-rule="evenodd" d="M18.0193 141.003C17.3082 140.206 16.5096 139.487 15.572 138.974C15.335 138.845 13.5692 137.976 13.4542 138.167C13.1863 138.611 17.8057 140.748 18.0193 141.003ZM26.3911 135.68C26.3852 135.713 26.9975 136.789 27.1642 137.119C27.519 137.822 27.8466 138.539 28.1547 139.257C27.6985 137.989 27.2298 136.813 26.3911 135.68ZM-16.4249 144.433C-17.0146 144.629 -17.7235 143.855 -16.9587 143.664C-16.3398 143.511 -16.3702 143.475 -16.0923 142.959C-15.8666 142.54 -15.7276 142.029 -15.5296 141.589C-15.1096 140.656 -14.6331 139.767 -14.0483 138.934C-12.7949 137.147 -11.2678 135.608 -9.55508 134.31C-6.56599 132.046 -3.21449 129.977 0.34071 128.938C5.99353 127.285 12.4272 127.183 18.0889 128.329C21.5953 129.039 24.7998 130.272 27.1281 133.195C28.2919 134.655 29.2053 136.366 29.6046 138.25C29.7088 138.742 29.6893 139.29 29.8198 139.772C30.0203 140.513 29.9319 140.316 30.7695 140.46C31.6841 140.617 32.5979 140.778 33.5115 140.941C35.9035 141.37 38.3096 141.824 40.6404 142.52C41.4075 142.748 42.1578 143.027 42.8907 143.352C43.445 143.598 45.6522 144.368 45.9204 145.113C46.3669 146.354 44.871 145.791 44.4062 145.521C43.999 145.285 43.581 145.064 43.1568 144.861C42.0889 144.349 40.9763 143.954 39.8386 143.639C38.6091 143.298 37.3544 143.044 36.1046 142.79C34.939 142.553 33.7692 142.337 32.5977 142.131C31.947 142.016 31.2957 141.905 30.6444 141.793C30.4219 141.755 30.0295 141.556 30.0592 141.855C28.6899 141.582 27.2091 141.622 25.8143 141.546C24.106 141.454 22.3913 141.378 20.6772 141.434C19.441 141.474 18.2037 141.558 16.9737 141.73C16.255 141.83 15.5478 141.977 14.8426 142.163C14.4553 142.265 12.9279 142.482 12.7169 142.832C12.8075 142.682 14.4932 142.827 14.7078 142.819C15.566 142.785 16.4175 142.697 17.2725 142.599C18.8592 142.415 20.4466 142.319 22.0381 142.333C22.0321 142.622 20.9449 143.137 20.6795 143.329C20.0844 143.759 19.5145 144.228 18.9828 144.742C18.0461 145.648 16.9245 146.77 16.2766 147.843C16.4676 147.527 17.4095 147.115 17.7438 146.874C18.2793 146.486 18.8039 146.073 19.3003 145.632C19.7586 145.224 20.1862 144.784 20.6067 144.334C21.0272 143.884 21.5978 142.948 22.1504 142.648C22.1837 142.63 22.4246 142.827 22.5614 142.76C22.6993 142.693 22.8711 142.355 22.9061 142.341C23.4205 142.136 24.3973 142.392 24.938 142.417C26.3402 142.484 27.7411 142.572 29.1423 142.652C29.5764 142.676 29.9453 142.574 30.1093 142.906C30.284 143.259 29.9639 144.188 29.8728 144.573C29.5349 146.003 28.9348 147.285 27.9903 148.393C26.2213 150.468 24.04 151.851 21.5758 152.777C12.1372 156.321 2.09579 157.74 -7.33994 154.053C-11.2463 152.527 -17.1293 149.799 -16.4249 144.433Z" fill="#89C5CC"/>
<path fill-rule="evenodd" clip-rule="evenodd" d="M415.741 311.411C422.162 356.401 266.438 385.747 132.404 365.267C-1.63066 344.788 -63.1194 264.812 0.839691 222.198C64.7988 179.584 409.319 266.42 415.741 311.411Z" fill="#D4D7DA"/>
<path d="M41.3032 22.0394C41.3032 18.9964 43.6865 16.5295 46.6265 16.5295H141.781C144.721 16.5295 147.104 18.9964 147.104 22.0394V219.016C147.104 222.059 144.721 224.526 141.781 224.526H46.6265C43.6865 224.526 41.3032 222.059 41.3032 219.016V22.0394Z" fill="#F2F2F2"/>
<path fill-rule="evenodd" clip-rule="evenodd" d="M93.8711 211.44C99.3836 211.44 103.852 206.815 103.852 201.109C103.852 195.403 99.3836 190.778 93.8711 190.778C88.3586 190.778 83.8899 195.403 83.8899 201.109C83.8899 206.815 88.3586 211.44 93.8711 211.44Z" fill="white"/>
<path fill-rule="evenodd" clip-rule="evenodd" d="M85.2207 30.3041C85.9557 30.3041 86.5515 29.6874 86.5515 28.9267C86.5515 28.1659 85.9557 27.5492 85.2207 27.5492C84.4857 27.5492 83.8899 28.1659 83.8899 28.9267C83.8899 29.6874 84.4857 30.3041 85.2207 30.3041Z" fill="white"/>
<path d="M89.8786 28.9267C89.8786 28.1659 90.4744 27.5492 91.2094 27.5492H102.522C103.257 27.5492 103.852 28.1659 103.852 28.9267C103.852 29.6874 103.257 30.3041 102.522 30.3041H91.2094C90.4744 30.3041 89.8786 29.6874 89.8786 28.9267Z" fill="white"/>
<path d="M50.619 38.5689C50.619 37.0474 51.8107 35.814 53.2807 35.814H135.127C136.597 35.814 137.789 37.0474 137.789 38.5689V70.2505C137.789 71.7719 136.597 73.0054 135.127 73.0054H53.2807C51.8107 73.0054 50.619 71.7719 50.619 70.2505V38.5689Z" fill="white"/>
<path d="M76.5703 49.0376C76.5703 47.8964 77.464 46.9714 78.5665 46.9714H123.149C124.252 46.9714 125.146 47.8964 125.146 49.0376V50.4839C125.146 51.625 124.252 52.5501 123.149 52.5501H78.5665C77.464 52.5501 76.5703 51.625 76.5703 50.4839V49.0376Z" fill="#DDE3E9"/>
<path d="M76.5703 58.3354C76.5703 57.1943 77.464 56.2692 78.5665 56.2692H107.179C108.282 56.2692 109.176 57.1943 109.176 58.3354V59.7817C109.176 60.9229 108.282 61.8479 107.179 61.8479H78.5665C77.464 61.8479 76.5703 60.9229 76.5703 59.7817V58.3354Z" fill="#DDE3E9"/>
<path fill-rule="evenodd" clip-rule="evenodd" d="M64.5928 62.6744C69.0028 62.6744 72.5778 58.9742 72.5778 54.4097C72.5778 49.8452 69.0028 46.1449 64.5928 46.1449C60.1828 46.1449 56.6078 49.8452 56.6078 54.4097C56.6078 58.9742 60.1828 62.6744 64.5928 62.6744Z" fill="#C5CFD6"/>
<path d="M50.619 81.2701C50.619 79.7486 51.8107 78.5152 53.2807 78.5152H135.127C136.597 78.5152 137.789 79.7486 137.789 81.2701V104.687C137.789 106.208 136.597 107.442 135.127 107.442H53.2807C51.8107 107.442 50.619 106.208 50.619 104.687V81.2701Z" fill="white"/>
<path d="M76.5703 89.2594C76.5703 88.1183 77.464 87.1932 78.5665 87.1932H123.149C124.252 87.1932 125.146 88.1183 125.146 89.2594V89.466C125.146 90.6071 124.252 91.5322 123.149 91.5322H78.5665C77.464 91.5322 76.5703 90.6071 76.5703 89.466V89.2594Z" fill="#DDE3E9"/>
<path d="M76.5703 96.4911C76.5703 95.3499 77.464 94.4249 78.5665 94.4249H107.179C108.282 94.4249 109.176 95.3499 109.176 96.4911V96.6977C109.176 97.8388 108.282 98.7639 107.179 98.7639H78.5665C77.464 98.7639 76.5703 97.8388 76.5703 96.6977V96.4911Z" fill="#DDE3E9"/>
<path fill-rule="evenodd" clip-rule="evenodd" d="M64.5928 101.243C69.0028 101.243 72.5778 97.543 72.5778 92.9785C72.5778 88.414 69.0028 84.7138 64.5928 84.7138C60.1828 84.7138 56.6078 88.414 56.6078 92.9785C56.6078 97.543 60.1828 101.243 64.5928 101.243Z" fill="#C5CFD6"/>
<path d="M50.619 115.707C50.619 114.185 51.8107 112.952 53.2807 112.952H135.127C136.597 112.952 137.789 114.185 137.789 115.707V139.123C137.789 140.645 136.597 141.878 135.127 141.878H53.2807C51.8107 141.878 50.619 140.645 50.619 139.123V115.707Z" fill="white"/>
<path d="M76.5703 123.696C76.5703 122.555 77.464 121.63 78.5665 121.63H123.149C124.252 121.63 125.146 122.555 125.146 123.696V123.903C125.146 125.044 124.252 125.969 123.149 125.969H78.5665C77.464 125.969 76.5703 125.044 76.5703 123.903V123.696Z" fill="#DDE3E9"/>
<path d="M76.5703 130.928C76.5703 129.786 77.464 128.861 78.5665 128.861H107.179C108.282 128.861 109.176 129.786 109.176 130.928V131.134C109.176 132.275 108.282 133.2 107.179 133.2H78.5665C77.464 133.2 76.5703 132.275 76.5703 131.134V130.928Z" fill="#DDE3E9"/>
<path fill-rule="evenodd" clip-rule="evenodd" d="M64.5928 135.68C69.0028 135.68 72.5778 131.98 72.5778 127.415C72.5778 122.851 69.0028 119.15 64.5928 119.15C60.1828 119.15 56.6078 122.851 56.6078 127.415C56.6078 131.98 60.1828 135.68 64.5928 135.68Z" fill="#BBC4CD"/>
<path d="M50.619 150.143C50.619 148.622 51.8107 147.388 53.2807 147.388H135.127C136.597 147.388 137.789 148.622 137.789 150.143V173.56C137.789 175.081 136.597 176.315 135.127 176.315H53.2807C51.8107 176.315 50.619 175.081 50.619 173.56V150.143Z" fill="white"/>
<path d="M76.5703 158.132C76.5703 156.991 77.464 156.066 78.5665 156.066H123.149C124.252 156.066 125.146 156.991 125.146 158.132V158.339C125.146 159.48 124.252 160.405 123.149 160.405H78.5665C77.464 160.405 76.5703 159.48 76.5703 158.339V158.132Z" fill="#DDE3E9"/>
<path d="M76.5703 165.364C76.5703 164.223 77.464 163.298 78.5665 163.298H107.179C108.282 163.298 109.176 164.223 109.176 165.364V165.571C109.176 166.712 108.282 167.637 107.179 167.637H78.5665C77.464 167.637 76.5703 166.712 76.5703 165.571V165.364Z" fill="#DDE3E9"/>
<path fill-rule="evenodd" clip-rule="evenodd" d="M64.5928 170.116C69.0028 170.116 72.5778 166.416 72.5778 161.852C72.5778 157.287 69.0028 153.587 64.5928 153.587C60.1828 153.587 56.6078 157.287 56.6078 161.852C56.6078 166.416 60.1828 170.116 64.5928 170.116Z" fill="#C5CFD6"/>
<path fill-rule="evenodd" clip-rule="evenodd" d="M61.3588 184.58C60.4772 184.58 59.5983 184.598 58.7179 184.645C58.0468 184.682 57.0212 184.538 56.4533 184.971C55.8633 185.42 55.9039 186.341 55.996 186.991C56.4833 190.429 57.6725 193.477 60.1604 195.913C63.991 199.664 68.3823 201.569 73.5787 202.418C77.2289 203.014 80.5987 202.186 83.2857 199.499C85.249 203.271 86.7384 207.445 87.4858 211.657C87.8544 213.736 87.967 215.789 87.9022 217.906C87.8605 219.261 87.7882 220.614 87.6478 221.963C87.587 222.549 87.2981 223.437 87.5199 223.991C87.7802 224.641 88.6578 224.704 89.0517 224.15C89.3796 223.688 89.3194 222.781 89.3867 222.235C89.4984 221.327 89.6018 220.418 89.6758 219.507C89.7959 218.03 89.8848 216.55 89.8783 215.069C89.8633 211.74 89.1482 208.398 88.17 205.238C86.2935 199.175 83.2489 193.787 78.5136 189.56C75.6021 186.961 72.2698 185.908 68.4892 185.343C66.1354 184.991 63.7432 184.58 61.3588 184.58Z" fill="#89C5CC"/>
<path fill-rule="evenodd" clip-rule="evenodd" d="M74.9542 208.685C65.4394 208.685 59.0313 216.622 56.0014 224.871C54.8592 227.981 54.5915 231.395 54.1514 234.66C54.01 235.708 54.0624 237.305 53.6515 238.238C53.5024 238.576 53.1605 238.698 53.324 239.159C53.4229 239.439 53.6171 239.61 53.9086 239.665C54.5071 239.779 55.3533 239.105 55.8664 238.838C60.1225 236.629 62.9188 233.213 65.2 229.034C66.614 226.443 68.0488 223.754 68.8888 220.91C69.4019 219.173 69.7006 217.343 69.8761 215.541C69.9451 214.831 70.0119 214.104 70.0079 213.39C70.0038 212.682 69.6853 212.307 69.4564 211.691C72.6312 210.447 76.2147 210.108 79.4307 211.397C82.4051 212.589 84.8759 214.893 86.2594 217.787C86.6189 218.539 86.8961 219.333 87.098 220.143C87.2301 220.673 87.2365 221.361 87.4815 221.84C88.0755 223.002 89.3251 222.225 89.2051 221.144C88.8706 218.126 87.2027 215.096 85.071 212.998C82.3823 210.352 78.7379 208.685 74.9542 208.685Z" fill="#89C5CC"/>
<path d="M85.2207 39.9463C85.2207 36.9033 87.604 34.4365 90.544 34.4365H185.699C188.639 34.4365 191.022 36.9033 191.022 39.9463V236.923C191.022 239.966 188.639 242.433 185.699 242.433H90.544C87.604 242.433 85.2207 239.966 85.2207 236.923V39.9463Z" fill="#DDE3E9"/>
<path fill-rule="evenodd" clip-rule="evenodd" d="M137.789 229.347C143.301 229.347 147.77 224.722 147.77 219.016C147.77 213.31 143.301 208.685 137.789 208.685C132.276 208.685 127.807 213.31 127.807 219.016C127.807 224.722 132.276 229.347 137.789 229.347Z" fill="white"/>
<path fill-rule="evenodd" clip-rule="evenodd" d="M129.138 48.2111C129.873 48.2111 130.469 47.5944 130.469 46.8336C130.469 46.0729 129.873 45.4562 129.138 45.4562C128.403 45.4562 127.807 46.0729 127.807 46.8336C127.807 47.5944 128.403 48.2111 129.138 48.2111Z" fill="white"/>
<path d="M133.796 46.8336C133.796 46.0729 134.392 45.4562 135.127 45.4562H146.439C147.174 45.4562 147.77 46.0729 147.77 46.8336C147.77 47.5944 147.174 48.2111 146.439 48.2111H135.127C134.392 48.2111 133.796 47.5944 133.796 46.8336Z" fill="white"/>
<path d="M94.5365 56.4758C94.5365 54.9543 95.7282 53.7209 97.1982 53.7209H179.044C180.514 53.7209 181.706 54.9543 181.706 56.4758V88.1574C181.706 89.6789 180.514 90.9123 179.044 90.9123H97.1982C95.7282 90.9123 94.5365 89.6789 94.5365 88.1574V56.4758Z" fill="white"/>
<path d="M100.525 66.9445C100.525 65.8034 101.419 64.8783 102.522 64.8783H147.104C148.207 64.8783 149.101 65.8034 149.101 66.9445V68.3909C149.101 69.532 148.207 70.4571 147.104 70.4571H102.522C101.419 70.4571 100.525 69.532 100.525 68.3909V66.9445Z" fill="#DDE3E9"/>
<path d="M100.525 76.2424C100.525 75.1013 101.419 74.1762 102.522 74.1762H131.134C132.237 74.1762 133.131 75.1013 133.131 76.2424V77.6887C133.131 78.8299 132.237 79.7549 131.134 79.7549H102.522C101.419 79.7549 100.525 78.8299 100.525 77.6887V76.2424Z" fill="#DDE3E9"/>
<path fill-rule="evenodd" clip-rule="evenodd" d="M172.39 77.1377C174.963 77.1377 177.048 74.9793 177.048 72.3166C177.048 69.654 174.963 67.4955 172.39 67.4955C169.818 67.4955 167.732 69.654 167.732 72.3166C167.732 74.9793 169.818 77.1377 172.39 77.1377Z" fill="#DDE3E9"/>
<path fill-rule="evenodd" clip-rule="evenodd" d="M172.39 74.3828C173.493 74.3828 174.387 73.4578 174.387 72.3166C174.387 71.1755 173.493 70.2505 172.39 70.2505C171.288 70.2505 170.394 71.1755 170.394 72.3166C170.394 73.4578 171.288 74.3828 172.39 74.3828Z" fill="#F2F2F2"/>
<path d="M94.5365 99.1771C94.5365 97.6556 95.7282 96.4222 97.1982 96.4222H179.044C180.514 96.4222 181.706 97.6556 181.706 99.1771V122.594C181.706 124.115 180.514 125.349 179.044 125.349H97.1982C95.7282 125.349 94.5365 124.115 94.5365 122.594V99.1771Z" fill="white"/>
<path d="M120.488 107.166C120.488 106.025 121.382 105.1 122.484 105.1H167.067C168.169 105.1 169.063 106.025 169.063 107.166V107.373C169.063 108.514 168.169 109.439 167.067 109.439H122.484C121.382 109.439 120.488 108.514 120.488 107.373V107.166Z" fill="#DDE3E9"/>
<path d="M120.488 114.398C120.488 113.257 121.382 112.332 122.484 112.332H151.097C152.199 112.332 153.093 113.257 153.093 114.398V114.605C153.093 115.746 152.199 116.671 151.097 116.671H122.484C121.382 116.671 120.488 115.746 120.488 114.605V114.398Z" fill="#DDE3E9"/>
<path fill-rule="evenodd" clip-rule="evenodd" d="M108.51 119.15C112.92 119.15 116.495 115.45 116.495 110.886C116.495 106.321 112.92 102.621 108.51 102.621C104.1 102.621 100.525 106.321 100.525 110.886C100.525 115.45 104.1 119.15 108.51 119.15Z" fill="#C5CFD6"/>
<path d="M94.5365 133.614C94.5365 132.092 95.7282 130.859 97.1982 130.859H179.044C180.514 130.859 181.706 132.092 181.706 133.614V157.03C181.706 158.552 180.514 159.785 179.044 159.785H97.1982C95.7282 159.785 94.5365 158.552 94.5365 157.03V133.614Z" fill="white"/>
<path d="M100.525 141.603C100.525 140.462 101.419 139.537 102.522 139.537H147.104C148.207 139.537 149.101 140.462 149.101 141.603V141.809C149.101 142.951 148.207 143.876 147.104 143.876H102.522C101.419 143.876 100.525 142.951 100.525 141.809V141.603Z" fill="#DDE3E9"/>
<path d="M100.525 148.835C100.525 147.693 101.419 146.768 102.522 146.768H131.134C132.237 146.768 133.131 147.693 133.131 148.835V149.041C133.131 150.182 132.237 151.107 131.134 151.107H102.522C101.419 151.107 100.525 150.182 100.525 149.041V148.835Z" fill="#BBC4CD"/>
<path fill-rule="evenodd" clip-rule="evenodd" d="M172.39 150.143C174.963 150.143 177.048 147.985 177.048 145.322C177.048 142.659 174.963 140.501 172.39 140.501C169.818 140.501 167.732 142.659 167.732 145.322C167.732 147.985 169.818 150.143 172.39 150.143Z" fill="#DDE3E9"/>
<path fill-rule="evenodd" clip-rule="evenodd" d="M172.39 147.388C173.493 147.388 174.387 146.463 174.387 145.322C174.387 144.181 173.493 143.256 172.39 143.256C171.288 143.256 170.394 144.181 170.394 145.322C170.394 146.463 171.288 147.388 172.39 147.388Z" fill="#F2F2F2"/>
<path d="M94.5365 168.05C94.5365 166.529 95.7282 165.295 97.1982 165.295H179.044C180.514 165.295 181.706 166.529 181.706 168.05V191.467C181.706 192.988 180.514 194.222 179.044 194.222H97.1982C95.7282 194.222 94.5365 192.988 94.5365 191.467V168.05Z" fill="white"/>
<path d="M120.488 176.039C120.488 174.898 121.382 173.973 122.484 173.973H167.067C168.169 173.973 169.063 174.898 169.063 176.039V176.246C169.063 177.387 168.169 178.312 167.067 178.312H122.484C121.382 178.312 120.488 177.387 120.488 176.246V176.039Z" fill="#DDE3E9"/>
<path d="M120.488 183.271C120.488 182.13 121.382 181.205 122.484 181.205H151.097C152.199 181.205 153.093 182.13 153.093 183.271V183.478C153.093 184.619 152.199 185.544 151.097 185.544H122.484C121.382 185.544 120.488 184.619 120.488 183.478V183.271Z" fill="#DDE3E9"/>
<path fill-rule="evenodd" clip-rule="evenodd" d="M108.51 188.023C112.92 188.023 116.495 184.323 116.495 179.758C116.495 175.194 112.92 171.494 108.51 171.494C104.1 171.494 100.525 175.194 100.525 179.758C100.525 184.323 104.1 188.023 108.51 188.023Z" fill="#C5CFD6"/>
<path d="M129.138 57.1646C129.138 54.1216 131.522 51.6547 134.462 51.6547H346.729C349.669 51.6547 352.053 54.1216 352.053 57.1646V284.445C352.053 287.488 349.669 289.955 346.729 289.955H134.462C131.522 289.955 129.138 287.488 129.138 284.445V57.1646Z" fill="#F2F2F2"/>
<path d="M294.827 86.78C294.827 83.737 297.21 81.2701 300.15 81.2701H336.083C339.023 81.2701 341.406 83.737 341.406 86.78V131.547C341.406 134.59 339.023 137.057 336.083 137.057H300.15C297.21 137.057 294.827 134.59 294.827 131.547V86.78Z" fill="white"/>
<path fill-rule="evenodd" clip-rule="evenodd" d="M318.117 113.64C323.997 113.64 328.763 108.707 328.763 102.621C328.763 96.5348 323.997 91.6011 318.117 91.6011C312.237 91.6011 307.47 96.5348 307.47 102.621C307.47 108.707 312.237 113.64 318.117 113.64Z" fill="#DDE3E9"/>
<path d="M301.481 118.462C301.481 117.32 302.375 116.395 303.477 116.395H332.756C333.858 116.395 334.752 117.32 334.752 118.462C334.752 119.603 333.858 120.528 332.756 120.528H303.477C302.375 120.528 301.481 119.603 301.481 118.462Z" fill="#DDE3E9"/>
<path d="M306.804 125.349C306.804 124.208 307.698 123.283 308.801 123.283H327.432C328.535 123.283 329.429 124.208 329.429 125.349C329.429 126.49 328.535 127.415 327.432 127.415H308.801C307.698 127.415 306.804 126.49 306.804 125.349Z" fill="#DDE3E9"/>
<path d="M129.138 57.1646C129.138 54.1216 131.522 51.6547 134.462 51.6547H346.729C349.669 51.6547 352.053 54.1216 352.053 57.1646V70.2505H129.138V57.1646Z" fill="#C5CFD6"/>
<path fill-rule="evenodd" clip-rule="evenodd" d="M137.789 64.0519C139.259 64.0519 140.45 62.8185 140.45 61.297C140.45 59.7755 139.259 58.542 137.789 58.542C136.319 58.542 135.127 59.7755 135.127 61.297C135.127 62.8185 136.319 64.0519 137.789 64.0519Z" fill="#F2F2F2"/>
<path fill-rule="evenodd" clip-rule="evenodd" d="M145.774 64.0519C147.244 64.0519 148.435 62.8185 148.435 61.297C148.435 59.7755 147.244 58.542 145.774 58.542C144.304 58.542 143.112 59.7755 143.112 61.297C143.112 62.8185 144.304 64.0519 145.774 64.0519Z" fill="#F2F2F2"/>
<path fill-rule="evenodd" clip-rule="evenodd" d="M153.759 64.0519C155.229 64.0519 156.42 62.8185 156.42 61.297C156.42 59.7755 155.229 58.542 153.759 58.542C152.289 58.542 151.097 59.7755 151.097 61.297C151.097 62.8185 152.289 64.0519 153.759 64.0519Z" fill="#F2F2F2"/>
<path d="M294.827 148.077C294.827 145.034 297.21 142.567 300.15 142.567H336.083C339.023 142.567 341.406 145.034 341.406 148.077V270.671C341.406 273.714 339.023 276.181 336.083 276.181H300.15C297.21 276.181 294.827 273.714 294.827 270.671V148.077Z" fill="white"/>
<path d="M306.804 157.719C306.804 156.198 307.996 154.964 309.466 154.964H326.767C328.237 154.964 329.429 156.198 329.429 157.719V170.116C329.429 171.638 328.237 172.871 326.767 172.871H309.466C307.996 172.871 306.804 171.638 306.804 170.116V157.719Z" fill="#DDE3E9"/>
<path d="M306.804 181.136C306.804 179.614 307.996 178.381 309.466 178.381H326.767C328.237 178.381 329.429 179.614 329.429 181.136V192.844C329.429 194.366 328.237 195.599 326.767 195.599H309.466C307.996 195.599 306.804 194.366 306.804 192.844V181.136Z" fill="#BBC4CD"/>
<path d="M306.804 203.864C306.804 202.343 307.996 201.109 309.466 201.109H326.767C328.237 201.109 329.429 202.343 329.429 203.864V215.572C329.429 217.094 328.237 218.327 326.767 218.327H309.466C307.996 218.327 306.804 217.094 306.804 215.572V203.864Z" fill="#DDE3E9"/>
<path d="M306.804 249.32C306.804 247.799 307.996 246.565 309.466 246.565H326.767C328.237 246.565 329.429 247.799 329.429 249.32V261.029C329.429 262.55 328.237 263.784 326.767 263.784H309.466C307.996 263.784 306.804 262.55 306.804 261.029V249.32Z" fill="#DDE3E9"/>
<path d="M306.804 226.592C306.804 225.071 307.996 223.837 309.466 223.837H326.767C328.237 223.837 329.429 225.071 329.429 226.592V238.301C329.429 239.822 328.237 241.055 326.767 241.055H309.466C307.996 241.055 306.804 239.822 306.804 238.301V226.592Z" fill="#C5CFD6"/>
<path d="M139.785 84.7138C139.785 83.1923 140.977 81.9588 142.447 81.9588H286.842C288.312 81.9588 289.504 83.1923 289.504 84.7138V111.574C289.504 113.096 288.312 114.329 286.842 114.329H142.447C140.977 114.329 139.785 113.096 139.785 111.574V84.7138Z" fill="white"/>
<path d="M145.774 93.7361C145.774 92.595 146.667 91.67 147.77 91.67H254.902C256.004 91.67 256.898 92.595 256.898 93.7361V94.4593C256.898 95.6004 256.004 96.5255 254.902 96.5255H147.77C146.667 96.5255 145.774 95.6004 145.774 94.4593V93.7361Z" fill="#DDE3E9"/>
<path d="M145.774 101.829C145.774 100.688 146.667 99.7625 147.77 99.7625H218.368C219.47 99.7625 220.364 100.688 220.364 101.829V102.552C220.364 103.693 219.47 104.618 218.368 104.618H147.77C146.667 104.618 145.774 103.693 145.774 102.552V101.829Z" fill="#DDE3E9"/>
<path fill-rule="evenodd" clip-rule="evenodd" d="M273.503 102.965C276.076 102.965 278.161 100.807 278.161 98.144C278.161 95.4814 276.076 93.3229 273.503 93.3229C270.931 93.3229 268.845 95.4814 268.845 98.144C268.845 100.807 270.931 102.965 273.503 102.965Z" fill="#DDE3E9"/>
<path fill-rule="evenodd" clip-rule="evenodd" d="M273.503 100.21C274.606 100.21 275.499 99.2851 275.499 98.144C275.499 97.0029 274.606 96.0778 273.503 96.0778C272.401 96.0778 271.507 97.0029 271.507 98.144C271.507 99.2851 272.401 100.21 273.503 100.21Z" fill="#F2F2F2"/>
<path d="M139.785 122.594C139.785 121.072 140.977 119.839 142.447 119.839H286.842C288.312 119.839 289.504 121.072 289.504 122.594V143.945C289.504 145.466 288.312 146.699 286.842 146.699H142.447C140.977 146.699 139.785 145.466 139.785 143.945V122.594Z" fill="white"/>
<path d="M145.774 129.912C145.774 128.799 146.645 127.897 147.72 127.897H254.952C256.027 127.897 256.898 128.799 256.898 129.912C256.898 131.024 256.027 131.926 254.952 131.926H147.72C146.645 131.926 145.774 131.024 145.774 129.912Z" fill="#DDE3E9"/>
<path d="M145.774 136.627C145.774 135.514 146.645 134.612 147.72 134.612H218.418C219.493 134.612 220.364 135.514 220.364 136.627C220.364 137.739 219.493 138.641 218.418 138.641H147.72C146.645 138.641 145.774 137.739 145.774 136.627Z" fill="#DDE3E9"/>
<path fill-rule="evenodd" clip-rule="evenodd" d="M273.503 138.09C276.076 138.09 278.161 135.932 278.161 133.269C278.161 130.607 276.076 128.448 273.503 128.448C270.931 128.448 268.845 130.607 268.845 133.269C268.845 135.932 270.931 138.09 273.503 138.09Z" fill="#DDE3E9"/>
<path fill-rule="evenodd" clip-rule="evenodd" d="M273.503 135.335C274.606 135.335 275.499 134.41 275.499 133.269C275.499 132.128 274.606 131.203 273.503 131.203C272.401 131.203 271.507 132.128 271.507 133.269C271.507 134.41 272.401 135.335 273.503 135.335Z" fill="#F2F2F2"/>
<path d="M139.785 154.964C139.785 153.443 140.977 152.209 142.447 152.209H286.842C288.312 152.209 289.504 153.443 289.504 154.964V176.315C289.504 177.836 288.312 179.07 286.842 179.07H142.447C140.977 179.07 139.785 177.836 139.785 176.315V154.964Z" fill="white"/>
<path d="M145.774 162.282C145.774 161.169 146.645 160.267 147.72 160.267H254.952C256.027 160.267 256.898 161.169 256.898 162.282C256.898 163.395 256.027 164.297 254.952 164.297H147.72C146.645 164.297 145.774 163.395 145.774 162.282Z" fill="#DDE3E9"/>
<path d="M145.774 168.997C145.774 167.885 146.645 166.983 147.72 166.983H218.418C219.493 166.983 220.364 167.885 220.364 168.997C220.364 170.11 219.493 171.012 218.418 171.012H147.72C146.645 171.012 145.774 170.11 145.774 168.997Z" fill="#DDE3E9"/>
<path fill-rule="evenodd" clip-rule="evenodd" d="M273.503 170.461C276.076 170.461 278.161 168.302 278.161 165.64C278.161 162.977 276.076 160.818 273.503 160.818C270.931 160.818 268.845 162.977 268.845 165.64C268.845 168.302 270.931 170.461 273.503 170.461Z" fill="#DDE3E9"/>
<path fill-rule="evenodd" clip-rule="evenodd" d="M273.503 167.706C274.606 167.706 275.499 166.781 275.499 165.64C275.499 164.498 274.606 163.573 273.503 163.573C272.401 163.573 271.507 164.498 271.507 165.64C271.507 166.781 272.401 167.706 273.503 167.706Z" fill="#BBC4CD"/>
<path d="M139.785 252.075C139.785 250.554 140.977 249.32 142.447 249.32H286.842C288.312 249.32 289.504 250.554 289.504 252.075V273.426C289.504 274.947 288.312 276.181 286.842 276.181H142.447C140.977 276.181 139.785 274.947 139.785 273.426V252.075Z" fill="white"/>
<path d="M145.774 259.393C145.774 258.28 146.645 257.378 147.72 257.378H254.952C256.027 257.378 256.898 258.28 256.898 259.393C256.898 260.505 256.027 261.407 254.952 261.407H147.72C146.645 261.407 145.774 260.505 145.774 259.393Z" fill="#DDE3E9"/>
<path d="M145.774 266.108C145.774 264.995 146.645 264.093 147.72 264.093H218.418C219.493 264.093 220.364 264.995 220.364 266.108C220.364 267.221 219.493 268.123 218.418 268.123H147.72C146.645 268.123 145.774 267.221 145.774 266.108Z" fill="#DDE3E9"/>
<path fill-rule="evenodd" clip-rule="evenodd" d="M273.503 267.572C276.076 267.572 278.161 265.413 278.161 262.75C278.161 260.088 276.076 257.929 273.503 257.929C270.931 257.929 268.845 260.088 268.845 262.75C268.845 265.413 270.931 267.572 273.503 267.572Z" fill="#DDE3E9"/>
<path fill-rule="evenodd" clip-rule="evenodd" d="M273.503 264.817C274.606 264.817 275.499 263.892 275.499 262.75C275.499 261.609 274.606 260.684 273.503 260.684C272.401 260.684 271.507 261.609 271.507 262.75C271.507 263.892 272.401 264.817 273.503 264.817Z" fill="#F2F2F2"/>
<path d="M139.785 219.705C139.785 218.183 140.977 216.95 142.447 216.95H286.842C288.312 216.95 289.504 218.183 289.504 219.705V241.055C289.504 242.577 288.312 243.81 286.842 243.81H142.447C140.977 243.81 139.785 242.577 139.785 241.055V219.705Z" fill="white"/>
<path d="M145.774 227.023C145.774 225.91 146.645 225.008 147.72 225.008H254.952C256.027 225.008 256.898 225.91 256.898 227.023C256.898 228.135 256.027 229.037 254.952 229.037H147.72C146.645 229.037 145.774 228.135 145.774 227.023Z" fill="#DDE3E9"/>
<path d="M145.774 233.738C145.774 232.625 146.645 231.723 147.72 231.723H218.418C219.493 231.723 220.364 232.625 220.364 233.738C220.364 234.85 219.493 235.752 218.418 235.752H147.72C146.645 235.752 145.774 234.85 145.774 233.738Z" fill="#DDE3E9"/>
<path fill-rule="evenodd" clip-rule="evenodd" d="M273.503 235.201C276.076 235.201 278.161 233.043 278.161 230.38C278.161 227.718 276.076 225.559 273.503 225.559C270.931 225.559 268.845 227.718 268.845 230.38C268.845 233.043 270.931 235.201 273.503 235.201Z" fill="#DDE3E9"/>
<path fill-rule="evenodd" clip-rule="evenodd" d="M273.503 232.446C274.606 232.446 275.499 231.521 275.499 230.38C275.499 229.239 274.606 228.314 273.503 228.314C272.401 228.314 271.507 229.239 271.507 230.38C271.507 231.521 272.401 232.446 273.503 232.446Z" fill="#F2F2F2"/>
<path d="M139.785 187.335C139.785 185.813 140.977 184.58 142.447 184.58H286.842C288.312 184.58 289.504 185.813 289.504 187.335V208.685C289.504 210.207 288.312 211.44 286.842 211.44H142.447C140.977 211.44 139.785 210.207 139.785 208.685V187.335Z" fill="white"/>
<path d="M145.774 194.652C145.774 193.54 146.645 192.638 147.72 192.638H254.952C256.027 192.638 256.898 193.54 256.898 194.652C256.898 195.765 256.027 196.667 254.952 196.667H147.72C146.645 196.667 145.774 195.765 145.774 194.652Z" fill="#DDE3E9"/>
<path d="M145.774 201.367C145.774 200.255 146.645 199.353 147.72 199.353H218.418C219.493 199.353 220.364 200.255 220.364 201.367C220.364 202.48 219.493 203.382 218.418 203.382H147.72C146.645 203.382 145.774 202.48 145.774 201.367Z" fill="#DDE3E9"/>
<path fill-rule="evenodd" clip-rule="evenodd" d="M273.503 202.831C276.076 202.831 278.161 200.672 278.161 198.01C278.161 195.347 276.076 193.189 273.503 193.189C270.931 193.189 268.845 195.347 268.845 198.01C268.845 200.672 270.931 202.831 273.503 202.831Z" fill="#DDE3E9"/>
<path fill-rule="evenodd" clip-rule="evenodd" d="M273.503 200.076C274.606 200.076 275.499 199.151 275.499 198.01C275.499 196.869 274.606 195.944 273.503 195.944C272.401 195.944 271.507 196.869 271.507 198.01C271.507 199.151 272.401 200.076 273.503 200.076Z" fill="#F2F2F2"/>
<path fill-rule="evenodd" clip-rule="evenodd" d="M407.273 168.997C404.648 167.155 401.158 166.673 398.017 166.673C385.749 166.673 374.219 171.384 364.257 178.403C358.799 182.249 353.916 187.147 349.605 192.247C347.117 195.191 344.898 198.375 343.327 201.917C342.267 204.308 341.54 206.798 341.047 209.368C340.446 212.499 339.968 215.693 339.752 218.876C339.667 220.13 338.964 226.781 340.977 226.894C340.966 227.058 340.963 227.214 340.975 227.354C336.603 234.43 333.902 242.722 331.397 250.584C329.218 257.426 327.276 264.325 326.015 271.403C324.355 280.721 323.265 290.179 322.746 299.632C322.635 301.663 322.559 303.695 322.493 305.729C322.437 307.464 322.381 309.199 322.326 310.934C322.264 312.879 321.933 315.117 322.232 317.05C322.492 318.733 323.9 318.479 323.962 316.803C324.037 314.781 324.025 312.754 324.11 310.729C324.224 308.042 324.341 305.356 324.468 302.67C325.353 284.011 328.67 265.626 334.793 248.001C337.27 240.868 340.109 234.116 343.758 227.518C346.966 221.717 350.826 216.101 354.77 210.87C358.604 205.787 362.59 200.822 367.288 196.515C371.1 193.021 375.293 189.976 379.603 187.143C385.078 183.545 390.542 180.035 396.473 177.273C399.555 175.837 402.696 174.552 405.803 173.175C406.362 172.927 406.961 172.686 407.499 172.399C409.292 171.442 408.702 170 407.273 168.997Z" fill="#C1DEE2"/>
<path fill-rule="evenodd" clip-rule="evenodd" d="M357.92 234.168C362.896 234.168 367.323 234.837 371.908 236.884C375.865 238.65 379.471 240.989 382.973 243.534C387.898 247.115 391.777 251.282 394.492 256.803C396.115 260.102 397.305 264.769 396.215 268.367C394.932 272.604 391.408 276.138 386.767 275.392C383.897 274.93 381.266 272.964 379.085 271.114C376.476 268.9 374.387 266.238 372.662 263.281C369.849 258.458 368.196 253.006 365.806 247.966C364.672 245.574 363.576 243.165 362.217 240.892C361.545 239.766 360.829 238.651 359.809 237.814C359.263 237.367 356.962 236.592 357.842 235.587C344.939 235.763 333.509 246.019 331.032 258.715C330.801 259.898 330.621 261.091 330.43 262.282C330.31 263.034 330.359 265.806 329.709 266.286C328.277 267.346 328.879 264.127 328.941 263.664C329.1 262.466 329.269 261.27 329.447 260.075C330.414 253.578 333.209 247.537 337.869 242.904C343.199 237.605 350.39 234.168 357.92 234.168Z" fill="#89C5CC"/>
<path fill-rule="evenodd" clip-rule="evenodd" d="M-0.659382 218.146C11.7616 239.714 26.2281 260.597 34.9158 284.179C34.5657 281.399 34.1945 278.623 33.779 275.85C31.5746 261.152 28.8349 246.561 25.956 231.988C24.4899 224.568 22.9393 217.175 21.3489 209.783C20.4935 205.813 19.6487 201.84 18.7757 197.873C18.5642 196.912 18.3826 195.234 18.1178 193.533C26.5609 222.21 34.7028 250.908 40.6583 280.273C41.4396 284.127 42.1049 287.974 42.6499 291.815C42.8363 290.939 43.0197 290.062 43.2204 289.189C45.6301 278.715 49.2448 268.325 53.5486 258.532C55.6062 253.848 57.9695 249.268 60.7521 244.999C62.4873 242.339 66.5794 239.176 68.1623 236.451C59.5054 252.885 56.3795 273.448 51.381 291.314C50.161 295.674 48.9334 300.027 47.7305 304.388C55.2685 288.741 66.9638 275.886 83.2244 270.314C63.5416 283.775 51.7356 307.348 43.78 331.458C43.7538 331.744 43.7226 332.03 43.6956 332.316C46.0367 327.718 48.9856 323.558 52.9823 320.645C61.5363 314.408 71.0254 316.225 79.3231 321.575C72.8108 317.29 61.0412 321.192 55.5618 325.547C51.639 328.664 48.2866 332.846 45.3754 336.926C44.6779 337.904 43.7262 339.046 42.7208 340.263C41.3112 349.734 39.0141 359.139 35.7619 368.47C36.2986 365.792 35.9106 361.509 36.0594 359.512C36.0756 359.296 36.0888 359.08 36.1048 358.864C35.6105 360.907 35.1328 362.927 34.673 364.914C35.5871 361.122 36.0839 357.164 36.4718 353.164C36.5717 351.445 36.6691 349.727 36.772 348.008C36.7394 344.746 36.6096 341.471 36.3901 338.191C35.6116 335.004 34.74 331.997 34.0212 329.496C31.4274 320.473 27.625 311.829 22.9449 303.765C18.6749 296.406 13.5636 289.74 7.66294 283.712C4.48196 280.463 1.1529 277.368 -2.12927 274.231C-3.31612 273.097 -5.4375 270.308 -7.27219 268.855C6.08969 276.479 19.8428 284.728 29.5903 297.013C28.4475 292.471 27.2063 287.993 25.8933 283.605C19.2321 261.342 10.8214 238.268 -0.659382 218.146Z" fill="#366489"/>
<path fill-rule="evenodd" clip-rule="evenodd" d="M12.6903 340.233C12.6903 364.957 14.5819 385 39.9724 385C65.3628 385 67.2545 364.957 67.2545 340.233" fill="#C5CFD6"/>
<path d="M295.492 24.1055C295.492 22.9644 296.386 22.0394 297.489 22.0394C298.591 22.0394 299.485 22.9644 299.485 24.1055V37.1914C299.485 38.3325 298.591 39.2576 297.489 39.2576C296.386 39.2576 295.492 38.3325 295.492 37.1914V24.1055Z" fill="#DDE3E9"/>
<path d="M304.808 13.0859C304.808 11.9447 305.702 11.0197 306.804 11.0197C307.907 11.0197 308.801 11.9447 308.801 13.0859V37.1914C308.801 38.3325 307.907 39.2576 306.804 39.2576C305.702 39.2576 304.808 38.3325 304.808 37.1914V13.0859Z" fill="#DDE3E9"/>
<path d="M314.124 7.57603C314.124 6.4349 315.018 5.50984 316.12 5.50984C317.223 5.50984 318.117 6.4349 318.117 7.57603V37.1914C318.117 38.3325 317.223 39.2576 316.12 39.2576C315.018 39.2576 314.124 38.3325 314.124 37.1914V7.57603Z" fill="#DDE3E9"/>
<path d="M323.44 13.0859C323.44 11.9447 324.334 11.0197 325.436 11.0197C326.539 11.0197 327.432 11.9447 327.432 13.0859V37.1914C327.432 38.3325 326.539 39.2576 325.436 39.2576C324.334 39.2576 323.44 38.3325 323.44 37.1914V13.0859Z" fill="#DDE3E9"/>
<path d="M332.756 2.06619C332.756 0.925064 333.649 0 334.752 0C335.854 0 336.748 0.925065 336.748 2.06619V37.1914C336.748 38.3325 335.854 39.2576 334.752 39.2576C333.649 39.2576 332.756 38.3325 332.756 37.1914V2.06619Z" fill="#C5CFD6"/>
<path fill-rule="evenodd" clip-rule="evenodd" d="M-31.8926 210.928C-31.8926 203.256 -25.9025 196.977 -18.5843 196.977V210.928L-27.6792 221.082C-30.2663 218.6 -31.8926 214.958 -31.8926 210.928Z" fill="#F2F2F2"/>
<path fill-rule="evenodd" clip-rule="evenodd" d="M-18.9364 210.751H-5.49686C-5.49686 214.347 -6.91407 217.716 -9.15444 220.165C-11.6186 222.843 -15.1277 224.526 -18.9364 224.526C-22.4448 224.526 -25.6562 223.073 -28.121 220.777L-18.9364 210.751Z" fill="#BBC4CD"/>
<path fill-rule="evenodd" clip-rule="evenodd" d="M-5.27594 210.751C-5.27594 203.177 -11.266 196.977 -18.5843 196.977V210.751H-5.27594ZM-25.2384 196.977L-19.9151 209.374L-31.8926 203.864C-30.7082 200.65 -28.0485 198.203 -25.2384 196.977Z" fill="#C5CFD6"/>
<path fill-rule="evenodd" clip-rule="evenodd" d="M401.138 217.073C399.859 218.478 398.048 219.36 396.034 219.36C392.163 219.36 389.025 216.123 389.025 212.129C389.025 208.135 392.163 204.897 396.034 204.897V191.467C385.021 191.467 376.008 200.767 376.008 212.129C376.008 223.491 385.021 232.791 396.034 232.791C401.818 232.791 407.046 230.266 410.609 226.249L401.138 217.073Z" fill="#F2F2F2"/>
<path fill-rule="evenodd" clip-rule="evenodd" d="M395.97 191.467V204.897C399.829 204.897 402.957 208.135 402.957 212.129H415.933C415.933 200.767 406.948 191.467 395.97 191.467Z" fill="#BBC4CD"/>
<path fill-rule="evenodd" clip-rule="evenodd" d="M402.689 212.129C402.689 214.475 401.621 216.561 399.963 217.908L408.122 228.658C412.871 224.81 415.933 218.843 415.933 212.129H402.689Z" fill="#C5CFD6"/>
<path fill-rule="evenodd" clip-rule="evenodd" d="M274.233 27.2075C273.249 28.2847 271.856 28.9611 270.306 28.9611C267.329 28.9611 264.915 26.4788 264.915 23.4168C264.915 20.3548 267.329 17.8725 270.306 17.8725V7.57603C261.835 7.57603 254.902 14.706 254.902 23.4168C254.902 32.1277 261.835 39.2576 270.306 39.2576C274.756 39.2576 278.777 37.3219 281.519 34.2424L274.233 27.2075Z" fill="#F2F2F2"/>
<path fill-rule="evenodd" clip-rule="evenodd" d="M270.206 7.57603V17.8725C273.165 17.8725 275.563 20.3548 275.563 23.4168H285.511C285.511 14.706 278.622 7.57603 270.206 7.57603Z" fill="#BBC4CD"/>
<path fill-rule="evenodd" clip-rule="evenodd" d="M275.578 23.4168C275.578 25.1767 274.777 26.741 273.534 27.751L279.653 35.814C283.215 32.9274 285.511 28.4528 285.511 23.4168H275.578Z" fill="#C5CFD6"/>
<path fill-rule="evenodd" clip-rule="evenodd" d="M31.992 39.2482C31.9894 39.2551 31.9867 39.2619 31.9827 39.2702C31.9867 39.2633 31.992 39.2358 31.992 39.2482Z" fill="#C5CFD6"/>
<path fill-rule="evenodd" clip-rule="evenodd" d="M31.9858 39.2586C31.9858 39.2586 31.9845 39.2628 31.9845 39.2655C31.9845 39.2586 31.9965 39.238 31.9858 39.2586Z" fill="#C5CFD6"/>
<path fill-rule="evenodd" clip-rule="evenodd" d="M32.0321 39.1421C32.0227 39.1697 32.0108 39.1958 32.0001 39.2234C32.0054 39.2096 32.0108 39.1986 32.0161 39.1848C31.8777 39.5429 31.9655 39.3102 32.0321 39.1421Z" fill="#C5CFD6"/>
<path fill-rule="evenodd" clip-rule="evenodd" d="M32.0023 39.2251C31.9969 39.2375 31.9916 39.2512 31.9863 39.2636C31.9477 39.3408 32.0023 39.2251 32.0023 39.2251Z" fill="#C5CFD6"/>
<path fill-rule="evenodd" clip-rule="evenodd" d="M31.9804 39.2689C32.0177 39.2055 31.9724 39.2854 31.9804 39.2689V39.2689Z" fill="#C5CFD6"/>
<path d="M0.04739 6.19857C0.04739 4.67707 1.23906 3.44365 2.70905 3.44365H60.6003C62.0703 3.44365 63.2619 4.67707 63.2619 6.19857V44.0787C63.2619 45.6002 62.0703 46.8336 60.6003 46.8336H2.70905C1.23906 46.8336 0.04739 45.6002 0.04739 44.0787V6.19857Z" fill="#DDE3E9"/>
<path fill-rule="evenodd" clip-rule="evenodd" d="M24.0024 15.8408L5.37072 46.8336H42.634L24.0024 15.8408Z" fill="#BBC4CD"/>
<path fill-rule="evenodd" clip-rule="evenodd" d="M42.3013 24.1055L25.9986 46.8336H58.604L42.3013 24.1055Z" fill="#C5CFD6"/>
<path fill-rule="evenodd" clip-rule="evenodd" d="M49.2882 24.1055C52.5957 24.1055 55.277 21.3304 55.277 17.907C55.277 14.4836 52.5957 11.7084 49.2882 11.7084C45.9807 11.7084 43.2995 14.4836 43.2995 17.907C43.2995 21.3304 45.9807 24.1055 49.2882 24.1055Z" fill="white"/>
<path fill-rule="evenodd" clip-rule="evenodd" d="M310.656 183.628C307.045 185.92 303.497 187.028 301.831 186.576C297.655 185.442 297.271 169.352 300.503 163.009C303.734 156.666 320.347 153.901 321.184 166.469C321.475 170.831 319.736 174.723 317.166 177.9L321.774 200.516H308.39L310.656 183.628Z" fill="#D4A181"/>
<path fill-rule="evenodd" clip-rule="evenodd" d="M318.194 180.729C319.874 172.859 324.66 167.494 323.929 163.976C323.198 160.459 320.033 159.602 320.033 159.602C320.033 159.602 318.396 152.628 309.474 153.669C300.552 154.71 295.107 158.612 297.458 167.198C299.62 167.198 302.23 166.375 305.838 167.786C307.556 168.457 308.295 171.949 308.295 171.949H309.926C309.926 171.949 312.3 167.805 314.607 168.903C316.915 170.002 315.656 174.24 315.656 174.24L316.46 180.729H318.194Z" fill="#191847"/>
<path fill-rule="evenodd" clip-rule="evenodd" d="M352.059 273.925C360.896 273.925 368.059 281.088 368.059 289.925V330.747C368.059 339.583 360.896 346.747 352.059 346.747H302.083C293.247 346.747 286.083 339.583 286.083 330.747V289.925C286.083 281.088 293.247 273.925 302.083 273.925H352.059ZM348.445 290.369C350.654 290.369 352.445 292.159 352.445 294.369V326.303C352.445 328.512 350.654 330.303 348.445 330.303H305.698C303.489 330.303 301.698 328.512 301.698 326.303V294.369C301.698 292.159 303.489 290.369 305.698 290.369H348.445Z" fill="#91B1B8"/>
<path fill-rule="evenodd" clip-rule="evenodd" d="M230.786 343.81C241.781 329.671 249.22 319.189 253.104 312.364C259.754 300.678 265.197 290.279 266.915 286.307C271.011 276.835 257.485 272.4 254.424 276.818C249.791 283.505 239.897 304.547 224.741 339.945L230.786 343.81Z" fill="#B28B67"/>
<path fill-rule="evenodd" clip-rule="evenodd" d="M253.317 339.7L273.778 285.457C278.155 275.569 257.02 269.069 253.804 273.671C246.502 284.118 229.147 325.331 226.971 328.444L253.317 339.7Z" fill="#2F3676"/>
<path fill-rule="evenodd" clip-rule="evenodd" d="M307.814 328.822C303.828 322.699 289.33 302.099 281.433 293.576C279.164 291.126 276.95 288.776 274.855 286.585C268.631 280.074 256.235 291.018 262.449 296.949C277.922 311.719 300.498 331.658 302.385 333.436C305.028 335.928 310.319 332.67 307.814 328.822Z" fill="#D4A181"/>
<path fill-rule="evenodd" clip-rule="evenodd" d="M304.643 327.109C305.374 326.152 306.712 325.895 307.566 326.696C308.352 327.435 309.2 328.314 309.561 328.972C310.315 330.348 311.327 333.252 311.327 333.252C309.812 334.173 284.088 349.814 284.088 349.814C284.088 349.814 281 346.763 283.126 345.077C285.252 343.391 286.634 342.234 286.634 342.234L295.768 328.981C296.098 328.503 296.738 328.399 297.175 328.753L298.781 330.056C298.781 330.056 301.47 329.809 302.794 329.004C303.382 328.646 304.065 327.866 304.643 327.109Z" fill="white"/>
<path fill-rule="evenodd" clip-rule="evenodd" d="M233.018 341.455C234.132 341.005 235.452 341.487 235.811 342.634C236.139 343.683 236.452 344.88 236.452 345.634C236.452 347.223 235.949 350.27 235.949 350.27C234.199 350.27 204.496 350.27 204.496 350.27C204.496 350.27 203.27 346.002 205.911 345.662C208.553 345.321 210.3 345.047 210.3 345.047L224.476 338.392C225 338.146 225.622 338.394 225.833 338.932L226.602 340.897C226.602 340.897 229.047 342.098 230.576 342.098C231.239 342.098 232.173 341.797 233.018 341.455Z" fill="white"/>
<path fill-rule="evenodd" clip-rule="evenodd" d="M281.141 288.166C281.141 288.166 306.652 283.79 315.316 282.181C331.779 279.124 336.58 269.794 333.742 249.437L303.407 249.437C297.386 251.268 253.088 272.088 253.088 272.088C247.775 274.865 248.764 283.056 249.735 285.754C249.795 285.919 276.607 334.245 276.607 334.245L301.422 317.598L281.095 290.128C281.095 290.128 280.289 288.42 281.141 288.166Z" fill="#5C63AB"/>
<path fill-rule="evenodd" clip-rule="evenodd" d="M261.167 255.505L278.956 241.749L282.888 251.986L265.273 259.678C260.291 265.841 257.505 268.41 256.916 267.386C256.418 266.522 256.807 265.713 257.165 264.968C257.444 264.388 257.704 263.846 257.513 263.347C257.075 262.208 253.729 262.328 250.557 262.585C247.386 262.842 248.31 261.356 249.075 260.622C252.312 258.582 256.343 256.876 261.167 255.505ZM354.454 279.744C352.819 276.252 347.254 242.224 347.254 242.224L335.601 242.272C335.601 242.272 346.394 278.965 347.254 281.21C348.372 284.127 346.474 288.364 345.186 291.238C344.987 291.682 344.803 292.094 344.646 292.463C346.432 293.305 347.29 292.288 348.195 291.215C349.216 290.004 350.297 288.722 352.842 289.969C353.825 290.451 354.755 291.02 355.664 291.576C358.804 293.498 361.688 295.264 365.612 292.714C366.234 292.31 366.915 290.788 365.269 289.599C361.165 286.636 355.253 281.451 354.454 279.744Z" fill="#D4A181"/>
<path fill-rule="evenodd" clip-rule="evenodd" d="M314.136 190.727L309.314 189.856C291.423 206.133 284.074 237.402 262.143 253.966L267.422 260.857C305.468 255.896 314.898 217.755 314.136 190.727Z" fill="#E87613"/>
<path fill-rule="evenodd" clip-rule="evenodd" d="M335.157 254.545C335.157 254.545 306.155 254.545 292.49 254.545C290.54 254.545 290.908 251.58 291.19 250.084C294.442 232.818 307.14 214.206 307.14 189.628L319.447 187.596C329.627 204.837 333.147 226.065 335.157 254.545Z" fill="#DDE3E9"/>
<path fill-rule="evenodd" clip-rule="evenodd" d="M333.523 204.341C335.762 204.172 337.783 203.185 339.061 200.757C343.559 192.209 341.935 187.503 337.128 185.956C334.484 185.105 331.998 185.686 329.022 186.381C326.586 186.95 323.821 187.596 320.374 187.596C320.04 187.596 319.736 187.619 319.46 187.664L315.376 187.91C315.376 187.91 298.795 247.09 306.23 266.878H339.955C341.873 271.728 343.753 275.96 345.525 279.21H354.676C355.66 245.688 343.609 219.894 333.523 204.341Z" fill="#FF9B21"/>
<path fill-rule="evenodd" clip-rule="evenodd" d="M339.955 266.878C337.439 260.514 334.859 253.086 332.376 245.415C331.452 253.863 329.913 262.348 327.35 266.878H339.955Z" fill="black" fill-opacity="0.1"/>
<path fill-rule="evenodd" clip-rule="evenodd" d="M141.349 154.933C144.735 156.996 148.062 157.993 149.624 157.586C153.54 156.565 153.9 142.085 150.87 136.376C147.84 130.667 132.262 128.179 131.477 139.49C131.204 143.415 132.835 146.919 135.245 149.777L130.924 170.131H143.474L141.349 154.933Z" fill="#B28B67"/>
<path fill-rule="evenodd" clip-rule="evenodd" d="M156.43 128.462C156.17 127.538 155.471 126.748 154.529 126.513C154.3 126.456 154.064 126.433 153.829 126.443C153.745 126.446 153.721 126.471 153.682 126.411C153.653 126.367 153.652 126.259 153.64 126.207C153.603 126.046 153.556 125.886 153.498 125.731C153.301 125.201 152.97 124.732 152.57 124.338C151.823 123.599 150.814 123.089 149.766 122.996C149.192 122.946 148.622 123.04 148.08 123.229C147.799 123.327 147.526 123.448 147.261 123.583C147.181 123.623 146.922 123.821 146.842 123.808C146.753 123.794 146.576 123.572 146.504 123.516C145.614 122.826 144.515 122.555 143.407 122.563C142.156 122.573 140.952 122.636 139.909 123.406C139.688 123.57 139.477 123.748 139.277 123.936C139.172 124.035 139.07 124.138 138.972 124.245C138.913 124.31 138.856 124.376 138.801 124.444C138.708 124.559 138.723 124.596 138.592 124.516C138.09 124.208 137.508 124.064 136.922 124.136C136.574 124.18 136.235 124.285 135.914 124.424C135.805 124.472 135.551 124.66 135.435 124.662C135.319 124.664 135.069 124.489 134.95 124.444C134.306 124.204 133.612 124.145 132.935 124.256C132.237 124.371 131.552 124.652 130.96 125.041C130.676 125.228 130.427 125.436 130.228 125.714C130.142 125.834 130.064 125.961 129.967 126.072C129.91 126.138 129.796 126.204 129.766 126.287C129.784 126.238 129.002 125.933 128.929 125.914C128.536 125.81 128.135 125.831 127.751 125.959C127.027 126.2 126.405 126.739 125.893 127.293C125.63 127.577 125.4 127.891 125.205 128.226C125.112 128.386 125.026 128.551 124.948 128.72C124.91 128.801 124.885 128.904 124.835 128.977C124.771 129.072 124.727 129.074 124.611 129.115C124.019 129.325 123.479 129.68 123.067 130.159C122.652 130.644 122.382 131.242 122.269 131.871C122.262 131.908 122.258 132.062 122.237 132.082C122.207 132.11 122.088 132.098 122.043 132.103C121.887 132.121 121.732 132.149 121.579 132.186C121.297 132.253 121.023 132.352 120.764 132.482C119.752 132.988 119.029 133.936 118.675 135.003C118.304 136.122 118.31 137.405 118.754 138.504C118.826 138.681 118.911 138.854 119.011 139.017C119.073 139.117 119.093 139.117 119.053 139.222C119.008 139.339 118.927 139.452 118.874 139.566C118.702 139.939 118.581 140.333 118.505 140.737C118.38 141.398 118.318 142.094 118.441 142.76C118.498 143.07 118.598 143.372 118.75 143.648C118.828 143.789 118.919 143.922 119.021 144.045C119.075 144.109 119.131 144.171 119.19 144.229C119.224 144.263 119.268 144.292 119.297 144.329C119.367 144.42 119.382 144.346 119.346 144.479C119.295 144.667 119.18 144.851 119.11 145.033C119.038 145.221 118.972 145.411 118.913 145.603C118.791 145.992 118.689 146.388 118.625 146.791C118.502 147.564 118.523 148.388 118.885 149.098C119.04 149.402 119.262 149.668 119.531 149.875C119.663 149.977 119.806 150.064 119.956 150.136C120.032 150.173 120.131 150.188 120.166 150.264C120.204 150.345 120.148 150.505 120.135 150.596C120.023 151.382 119.968 152.208 120.199 152.979C120.412 153.689 120.881 154.316 121.49 154.731C122.672 155.536 124.265 155.491 125.506 154.846C125.83 154.678 126.133 154.469 126.403 154.223C127.09 155.159 128.506 155.129 129.511 154.863C130.763 154.531 131.768 153.651 132.347 152.494C133.139 153.468 134.8 153.152 135.349 152.095C135.483 151.837 135.563 151.552 135.602 151.263C135.623 151.112 135.61 150.959 135.625 150.808C135.645 150.616 135.772 150.43 135.845 150.245C135.986 149.884 136.074 149.511 136.078 149.121C136.08 148.918 136.055 148.72 136.036 148.518C136.018 148.337 136.068 148.168 136.097 147.988C135.775 148.042 135.384 147.954 135.081 147.86C134.785 147.768 134.506 147.525 134.297 147.302C133.81 146.786 133.513 146.11 133.31 145.437C132.863 143.96 133.046 142.187 134.516 141.376C135.201 140.999 137.253 141 138.069 141.186C138.927 141.383 139.899 143.296 139.947 143.475C139.976 143.587 139.961 143.724 140.063 143.799C140.285 143.962 140.651 143.679 140.815 143.539C141.098 143.298 141.3 142.977 141.475 142.652C141.856 141.944 142.163 141.185 142.38 140.41C142.547 139.812 142.654 139.196 142.872 138.613C143.09 138.034 143.432 137.516 143.965 137.188C144.545 136.831 145.21 136.642 145.846 136.418C146.477 136.196 147.097 135.924 147.586 135.452C147.694 135.348 147.798 135.238 147.885 135.116C147.953 135.019 148.021 134.834 148.125 134.773C148.287 134.678 148.523 134.926 148.663 135.015C149.353 135.459 149.929 136.077 150.394 136.752C150.856 137.424 151.235 138.07 151.543 138.82C151.772 139.376 151.914 140.089 152.316 140.544C152.496 140.748 153.829 140.871 154.261 140.693C154.693 140.516 155.177 140.054 155.322 139.765C155.471 139.469 155.506 139.144 155.443 138.82C155.406 138.629 155.329 138.451 155.288 138.264C155.253 138.107 155.221 137.958 155.145 137.814C155.001 137.541 154.756 137.345 154.461 137.263C154.768 136.976 155.023 136.633 155.2 136.249C155.383 135.851 155.539 135.366 155.583 134.929C155.618 134.574 155.563 134.206 155.371 133.9C155.169 133.58 154.811 133.371 154.502 133.171C154.975 132.798 155.379 132.343 155.711 131.84C156.358 130.862 156.758 129.628 156.43 128.462Z" fill="#191847"/>
<path fill-rule="evenodd" clip-rule="evenodd" d="M126.741 214L151.883 281.244L169.506 330.806H179.555L155.33 214L126.741 214Z" fill="#1F28CF"/>
<path fill-rule="evenodd" clip-rule="evenodd" d="M120.527 214C120.253 237.073 120.451 268.136 119.814 269.575C119.177 271.013 80.2014 302.349 80.2014 302.349L85.3808 311.251C85.3808 311.251 131.654 281.089 134.02 277.07C136.386 273.052 148.271 236.073 154.455 214H120.527Z" fill="#2B44FF"/>
<path fill-rule="evenodd" clip-rule="evenodd" d="M71.0891 308.339L79.8373 301.609L86.8959 310.112C87.7103 319.727 93.1949 331.678 93.1949 331.678L91.5926 333.037L78.8199 317.651L75.2514 311.708L74.4503 312.388L71.0891 308.339Z" fill="#191847"/>
<path fill-rule="evenodd" clip-rule="evenodd" d="M168.574 340.32L169.097 329.221L180.078 329.221C187.888 334.77 200.472 338.206 200.472 338.206V340.32H180.601L173.803 339.263V340.32H168.574Z" fill="#191847"/>
<path fill-rule="evenodd" clip-rule="evenodd" d="M192.358 190.176L171.711 193.023L175.416 202.372L192.168 195.659C199.389 196.379 202.881 196.206 202.643 195.139C202.443 194.239 201.675 193.968 200.968 193.718C200.418 193.523 199.904 193.341 199.723 192.885C199.311 191.845 201.658 189.689 203.972 187.739C206.285 185.79 204.732 185.431 203.756 185.46C200.287 186.282 196.488 187.854 192.358 190.176ZM91.9136 241.435C93.446 238.293 106.854 197.853 106.854 197.853L118.305 197.896C118.305 197.896 99.4711 240.734 98.6645 242.755C97.6166 245.38 99.3965 249.194 100.604 251.78C100.79 252.18 100.963 252.55 101.11 252.883C99.4352 253.64 98.6307 252.725 97.7826 251.759C96.8247 250.669 95.811 249.516 93.4248 250.638C92.503 251.071 91.6306 251.584 90.7783 252.084C87.8343 253.814 85.1298 255.403 81.4507 253.108C80.8674 252.745 80.2282 251.375 81.7726 250.305C85.62 247.638 91.1645 242.971 91.9136 241.435Z" fill="#997659"/>
<path fill-rule="evenodd" clip-rule="evenodd" d="M138.218 161.146L147.184 161.75C149.392 181.94 161.419 194.694 188.346 190.376L191.923 216.377C166.756 219.665 144.684 209.481 140.16 181.906C138.989 174.768 138.064 167.339 138.218 161.146Z" fill="#AFB9C5"/>
<path fill-rule="evenodd" clip-rule="evenodd" d="M93.4843 236.198C99.7089 202.723 112.847 176.825 132.899 158.503H133.759H133.788L133.795 158.512L147.379 161.656C147.379 178.149 151.009 190.472 154.499 202.319C156.006 207.435 157.487 212.463 158.639 217.699H121.953C121.436 223.699 121.119 229.865 120.953 236.198H93.4843Z" fill="#C5CFD6"/>
<path fill-rule="evenodd" clip-rule="evenodd" d="M121.953 217.699C123.005 205.485 124.884 193.963 127.99 183.132C127.309 194.715 127.12 209.083 129.409 217.699H121.953Z" fill="black" fill-opacity="0.1"/>
</svg>
