<svg width="375" height="408" viewBox="0 0 375 408" fill="none" xmlns="http://www.w3.org/2000/svg">
<path fill-rule="evenodd" clip-rule="evenodd" d="M-18.7927 336.302C-7.87947 274.314 102.549 309.628 174.945 290.464C247.34 271.3 332.99 182.049 389.675 225.769C446.36 269.488 386.048 375.17 256.037 399.019C126.027 422.868 -29.7058 398.291 -18.7927 336.302Z" fill="#D4D7DA"/>
<path fill-rule="evenodd" clip-rule="evenodd" d="M10.0504 46.7801C8.99763 47.9394 9.40654 52.0596 9.38448 53.5844C9.35061 55.9581 9.48454 58.3107 9.66445 60.6758C9.78502 62.2595 10.4646 77.3721 12.3557 76.2114C13.4218 75.5575 12.7534 71.1857 12.7515 69.8029C12.7472 66.7288 12.6313 63.6621 12.4455 60.5947C12.2727 57.7471 12.1643 54.9326 12.2637 52.0795C12.2879 51.3831 12.8786 43.6549 10.0504 46.7801Z" fill="#89C5CC"/>
<path fill-rule="evenodd" clip-rule="evenodd" d="M55.8958 44.9171C46.8517 44.9965 37.8114 45.4885 28.7716 45.79C24.4217 45.9351 20.0746 46.1195 15.7294 46.3854C14.2488 46.4761 11.0731 45.9532 9.83955 46.8234C7.10109 48.7554 11.5175 49.2071 12.6948 49.1598C30.5844 48.4443 48.4802 47.502 66.3851 47.4575C75.1681 47.4359 83.9468 47.7117 92.7308 47.6498C96.0886 47.6262 99.8068 46.0306 100.655 50.3414C101.612 55.2059 100.512 60.622 100.213 65.5101C100.013 68.7732 100.084 71.9685 100.218 75.2289C100.303 77.3176 100.08 79.6711 100.415 81.7208C100.737 83.6945 102.024 84.8781 103.203 82.6673C103.907 81.3461 103.557 78.0841 103.604 76.5535C103.667 74.4921 103.608 72.4315 103.608 70.3698C103.607 65.3377 104.251 60.3253 104.166 55.2942C104.111 52.0499 103.955 46.1685 100.245 45.389C96.16 44.5304 91.1387 45.3938 86.9581 45.3411C76.5993 45.2107 66.258 44.8278 55.8958 44.9171Z" fill="#89C5CC"/>
<path fill-rule="evenodd" clip-rule="evenodd" d="M30.9753 76.3919C27.565 76.3919 24.1545 76.4145 20.7445 76.4768C17.8199 76.5302 13.2218 75.8578 10.4998 77.0119C8.63634 77.802 8.14135 80.0967 10.4998 80.7079C13.072 81.3748 16.9487 80.2846 19.6399 80.2322C33.1348 79.9695 46.7597 79.6269 60.2357 80.5683C72.8631 81.4501 85.7338 82.3052 98.3798 81.3745C99.4438 81.2961 104.87 81.0579 102.394 78.8142C100.95 77.5047 95.0945 78.366 93.2171 78.3034C86.5951 78.083 79.9666 78.0341 73.3469 77.7572C66.8135 77.4838 60.309 76.6735 53.7734 76.473C46.1805 76.24 38.5707 76.3919 30.9753 76.3919Z" fill="#89C5CC"/>
<path fill-rule="evenodd" clip-rule="evenodd" d="M27.5632 54.9974C32.8785 55.2533 38.1373 63.7559 32.7592 67.8652C27.7139 71.721 18.2581 67.4953 21.0636 60.0186C20.6603 61.0995 21.5735 58.8442 21.585 58.8291C22.1186 58.1359 23.0765 57.3683 23.734 56.8219C24.4866 56.1964 25.2703 55.5079 26.1776 55.1944C26.7733 54.9888 26.6797 55.7628 27.5632 54.9974ZM24.9745 51.9307C22.4868 53.0021 21.3514 54.2107 19.6417 56.3976C18.4588 57.9111 16.9508 58.7073 16.9642 60.7526C16.967 61.2053 17.4943 61.7028 17.5853 62.1388C17.7112 62.7413 17.5654 63.5133 17.6652 64.1535C18.6943 70.7598 25.8405 72.987 31.0713 71.7398C35.6278 70.6533 39.0356 65.8289 37.98 60.5828C36.9173 55.3019 29.8175 49.8413 24.9745 51.9307Z" fill="#89C5CC"/>
<path fill-rule="evenodd" clip-rule="evenodd" d="M22.7585 61.153C22.7585 63.5295 26.1619 63.5295 26.1619 61.153C26.1619 58.8036 22.7585 58.7026 22.7585 61.153Z" fill="#89C5CC"/>
<path fill-rule="evenodd" clip-rule="evenodd" d="M27.0165 60.672C27.0165 62.5605 29.7208 62.5605 29.7208 60.672C29.7208 58.805 27.0165 58.7253 27.0165 60.672Z" fill="#89C5CC"/>
<path fill-rule="evenodd" clip-rule="evenodd" d="M27.8539 64.5665C26.9879 64.9336 25.8894 64.1723 25.1785 64.6739C23.9194 65.5629 25.1816 66.3674 25.8565 66.7246C28.8951 68.3329 29.4358 63.8982 27.8539 64.5665Z" fill="#89C5CC"/>
<path fill-rule="evenodd" clip-rule="evenodd" d="M74.2605 59.2995C73.8475 59.4925 74.17 59.3419 74.2605 59.2995V59.2995ZM61.0277 57.1663C58.7535 57.7326 56.8332 60.0752 54.3623 59.7618C52.4687 59.5215 51.1867 57.5061 49.3173 57.2132C46.9259 56.8381 40.4177 62.8551 43.8395 63.8875C45.8359 64.4901 46.9433 60.466 48.707 60.2521C50.1022 60.0831 51.9995 61.9702 53.4453 62.2388C56.1425 62.7401 57.9947 61.1014 60.3625 60.0447C62.9353 58.8964 64.3992 59.9305 66.6367 61.2068C68.4029 62.2142 70.0662 62.8702 72.0872 62.4544C73.9839 62.0647 76.3666 59.9134 78.2757 60.1341C80.1457 60.3503 81.4802 62.5027 83.4036 62.7025C84.1966 62.7846 85.3771 63.0827 85.2438 61.7331C85.1372 60.6525 84.0441 60.8355 83.3601 60.4427C81.6014 59.4326 79.9564 57.6433 77.8338 57.7959C76.2373 57.9109 74.7837 59.1482 73.3124 59.7402C68.4936 61.6787 65.7847 55.9895 61.0277 57.1663Z" fill="#89C5CC"/>
<path fill-rule="evenodd" clip-rule="evenodd" d="M65.0533 91.3958C55.7582 91.4899 46.4317 91.6421 37.1626 92.4641C34.9651 92.6588 12.5268 94.9955 12.5694 95.1639C12.648 95.4753 15.534 95.9509 15.516 96.0245C15.3215 95.4924 14.8768 95.272 14.1824 95.3641C35.4632 95.3641 56.6767 93.2624 77.9856 93.6405C83.3397 93.7353 88.7141 93.6956 94.0645 93.8817C95.4004 93.9283 98.7099 94.9842 99.7589 94.319C102.512 92.5729 97.5105 92.3713 96.6821 92.2981C86.1956 91.3728 75.5693 91.2801 65.0533 91.3958Z" fill="#CEE0E4"/>
<path fill-rule="evenodd" clip-rule="evenodd" d="M9.81459 96.3771C8.42501 97.9139 9.7046 103.442 9.75928 105.52C9.83852 108.524 9.77327 111.549 10.0122 114.545C10.285 117.968 10.7082 121.614 11.5224 124.935C11.9707 126.764 13.5446 129.671 14.1682 126.347C14.6135 123.973 13.9373 120.824 13.7021 118.405C13.3874 115.17 13.3112 111.977 13.2994 108.726C13.2889 105.893 13.2394 103.048 13.0288 100.224C12.9194 98.7581 12.2507 93.7043 9.81459 96.3771Z" fill="#CEE0E4"/>
<path fill-rule="evenodd" clip-rule="evenodd" d="M44.7757 124.531C38.1795 124.656 31.5691 124.828 24.9841 125.282C22.2851 125.468 19.5883 125.746 16.8993 126.061C16.3505 126.125 10.277 126.397 12.9909 128.869C14.2158 129.985 19.2546 128.442 20.9189 128.281C23.7179 128.011 26.5163 127.835 29.3235 127.704C35.8276 127.399 42.3517 127.13 48.8624 127.255C60.7528 127.482 72.5667 127.584 84.4604 127.291C86.1502 127.25 99.3888 127.64 99.8384 125.701C100.201 124.138 95.4665 124.855 94.6033 124.883C91.4366 124.988 88.2697 124.963 85.1018 124.946C71.6823 124.87 58.1849 124.281 44.7757 124.531Z" fill="#CEE0E4"/>
<path fill-rule="evenodd" clip-rule="evenodd" d="M97.597 93.7842C97.8065 100.262 98.8067 106.732 99.1264 113.23C99.2725 116.2 99.4446 119.167 99.5764 122.139C99.6189 123.097 99.2688 125.407 100.296 125.958C101.706 126.714 101.896 125.19 102.159 124.16C102.922 121.183 102.406 117.316 102.337 114.258C102.27 111.297 102.265 108.33 102.067 105.374C101.865 102.355 101.313 99.3919 101.058 96.3828C100.949 95.1102 101.328 92.9924 100.103 92.2026C99.0441 91.52 97.5514 92.3802 97.597 93.7842Z" fill="#CEE0E4"/>
<path fill-rule="evenodd" clip-rule="evenodd" d="M27.1573 102.641C29.2476 103.299 30.9644 103.054 32.9611 104.732C34.6164 106.124 36.3142 108.16 36.8632 110.41C38.1316 115.609 33.8315 118.458 29.8001 118.514C25.6708 118.571 19.5587 117.515 19.7704 111.677C19.9326 107.191 22.9019 102.815 27.1573 102.641ZM27.3046 99.7027C21.8842 100 17.512 106.714 17.5589 112.366C17.6154 119.215 24.6519 120.98 29.6503 121.028C35.2916 121.081 40.917 116.785 39.4053 109.787C38.1941 104.181 32.5171 99.404 27.3046 99.7027Z" fill="#CEE0E4"/>
<path fill-rule="evenodd" clip-rule="evenodd" d="M21.8523 108.899C21.8523 110.809 24.5883 110.809 24.5883 108.899C24.5883 107.011 21.8523 106.93 21.8523 108.899Z" fill="#CEE0E4"/>
<path fill-rule="evenodd" clip-rule="evenodd" d="M27.5911 108.061C27.5911 109.986 30.3488 109.986 30.3488 108.061C30.3488 106.158 27.5911 106.076 27.5911 108.061Z" fill="#CEE0E4"/>
<path fill-rule="evenodd" clip-rule="evenodd" d="M24.4273 112.418C22.6465 114.379 28.9025 117.817 30.3778 115.088C31.5896 112.848 28.9512 113.591 28.0159 113.47C26.9995 113.338 25.257 111.505 24.4273 112.418Z" fill="#CEE0E4"/>
<path fill-rule="evenodd" clip-rule="evenodd" d="M74.4444 108.101C74.2728 108.18 74.2728 108.18 74.4444 108.101V108.101ZM50.9517 104.908C49.1486 105.281 43.231 107.483 43.1512 109.843C43.0051 114.132 48.8005 109.739 50.059 109.174C53.4776 107.642 55.274 110.768 58.7081 110.933C61.6908 111.076 64.4333 108.261 67.2429 108.594C70.1868 108.942 71.6028 112.397 75.0012 110.563C76.7991 109.593 76.7537 108.097 74.7355 107.956C73.5156 107.871 72.6776 108.427 71.4058 107.848C69.4168 106.943 68.6157 105.47 66.2355 105.704C64.4395 105.88 62.8163 106.997 61.0631 107.429C57.0488 108.418 54.8222 104.108 50.9517 104.908Z" fill="#CEE0E4"/>
<path fill-rule="evenodd" clip-rule="evenodd" d="M88.2935 109.963C88.1695 110.02 88.1695 110.02 88.2935 109.963V109.963ZM88.7484 108.177C88.9044 108.395 88.7683 108.187 88.7484 108.177V108.177ZM86.6815 106.814C86.6038 106.88 86.6038 106.88 86.6815 106.814V106.814ZM86.7265 106.797C87.1274 107.061 90.3499 109.492 88.0092 110.064C86.821 110.355 85.8378 107.718 86.7265 106.797ZM85.6595 104.104C80.4973 106.7 86.0522 115.991 90.1035 112.216C91.8082 110.628 92.0325 107.417 90.3742 105.762C89.3805 104.771 87.0084 103.425 85.6595 104.104Z" fill="#CEE0E4"/>
<path fill-rule="evenodd" clip-rule="evenodd" d="M37.2015 140.714C30.7601 140.717 24.2622 140.567 17.8294 140.989C16.7469 141.059 12.6229 140.832 12.0651 142.08C11.0447 144.364 15.288 143.23 15.9045 143.162C28.7127 141.748 42.0921 142.561 54.9426 142.964C65.4524 143.294 75.9059 143.498 86.4033 144.096C89.1625 144.253 91.9193 144.426 94.6767 144.61C95.5754 144.67 97.8372 145.327 98.0267 143.743C98.202 142.278 95.3805 142.609 94.6758 142.568C89.0709 142.243 83.4697 141.902 77.8663 141.554C64.3791 140.715 50.7102 140.712 37.2015 140.714Z" fill="#89C5CC"/>
<path fill-rule="evenodd" clip-rule="evenodd" d="M11.8583 143.253C10.6551 144.572 11.2191 149.61 11.1856 151.275C11.1268 154.187 11.0022 157.096 10.9463 160.008C10.8882 163.05 10.969 166.107 11.1321 169.145C11.2005 170.421 12.1498 176.587 13.6444 173.058C14.3121 171.481 13.6282 167.09 13.6385 165.303C13.6568 162.052 13.8156 158.814 13.9622 155.567C14.0884 152.776 14.0931 149.982 14.2037 147.19C14.2388 146.3 14.3342 140.514 11.8583 143.253Z" fill="#89C5CC"/>
<path fill-rule="evenodd" clip-rule="evenodd" d="M99.1103 169.264C92.8417 169.973 86.4723 169.638 80.1798 170.161C74.7566 170.612 69.3384 170.796 63.9013 170.923C51.5893 171.21 39.2565 171.49 26.9802 172.621C24.1824 172.879 21.388 173.153 18.5827 173.291C17.1798 173.36 11.2927 172.656 10.8543 174.287C10.1076 177.065 16.4033 175.966 17.7612 175.922C20.7473 175.827 23.7194 175.589 26.6971 175.339C39.2145 174.287 51.7798 173.973 64.3239 173.535C71.1463 173.298 77.9211 172.747 84.7282 172.246C88.1211 171.997 91.5232 171.989 94.9158 171.747C95.8035 171.683 98.9456 171.808 99.5842 171.02C100.023 170.479 100.134 169.158 99.1103 169.264Z" fill="#89C5CC"/>
<path fill-rule="evenodd" clip-rule="evenodd" d="M96.9854 143.726C97.2004 150.357 97.5401 156.982 97.743 163.613C97.8042 165.607 97.2579 169.18 98.2647 170.939C99.8833 173.766 101.147 170.774 101.443 169.012C102.379 163.451 101.373 157.308 101.112 151.713C101.012 149.579 101.613 144.828 100.678 142.917C99.7869 141.098 96.9056 141.28 96.9854 143.726Z" fill="#89C5CC"/>
<path fill-rule="evenodd" clip-rule="evenodd" d="M86.461 153.17C88.8626 153.887 89.2134 159.647 86.5036 160.073C82.47 160.707 84.234 154.357 86.461 153.17ZM85.7883 150.88C85.0556 150.854 83.3646 150.631 82.9131 151.289C82.5353 151.84 82.9171 153.001 82.873 153.525C82.7142 155.399 81.333 156.481 81.9505 158.693C82.3696 160.195 83.492 161.605 84.8598 162.127C92.078 164.879 91.9901 149.495 85.7883 150.88Z" fill="#89C5CC"/>
<path fill-rule="evenodd" clip-rule="evenodd" d="M26.2898 148.586C26.2616 148.32 26.2333 148.053 26.205 147.786C30.1186 149.824 33.2328 153.615 31.9333 158.702C30.9418 162.584 27.3594 163.96 24.0218 163.002C20.3273 161.941 18.5617 158.582 19.5579 154.457C20.0175 152.554 21.4288 149.997 23.2531 149.385C24.1023 149.101 25.9804 149.827 26.2898 148.586ZM24.0013 146.974C23.0113 147.048 22.0478 147.503 21.2399 148.125C21.9962 147.42 23.0042 146.999 24.0013 146.974ZM24.0296 144.468C21.5842 144.55 19.9817 146.183 18.5313 148.144C18.076 148.76 16.537 150.391 16.7275 151.221C16.8782 151.877 17.2725 152.835 18.1028 152.104C13.7541 161.664 24.9882 169.818 31.8463 163.17C38.2467 156.966 31.8966 144.177 24.0296 144.468Z" fill="#89C5CC"/>
<path fill-rule="evenodd" clip-rule="evenodd" d="M21.8077 153.348C21.8077 154.621 23.5993 154.621 23.5993 153.348C23.5993 152.075 21.8077 152.075 21.8077 153.348Z" fill="#89C5CC"/>
<path fill-rule="evenodd" clip-rule="evenodd" d="M24.8652 153.565C24.8652 154.859 26.6858 154.859 26.6858 153.565C26.6858 152.271 24.8652 152.271 24.8652 153.565Z" fill="#89C5CC"/>
<path fill-rule="evenodd" clip-rule="evenodd" d="M26.2527 158.108C25.401 158.185 22.2835 157.865 21.7363 158.688C20.8218 160.063 22.2813 160.111 22.9981 160.26C23.6438 160.394 26.4506 160.318 26.8462 159.686C27.1958 159.127 27.1141 158.028 26.2527 158.108Z" fill="#89C5CC"/>
<path fill-rule="evenodd" clip-rule="evenodd" d="M63.8142 154.543C63.6679 154.609 63.6679 154.609 63.8142 154.543V154.543ZM52.0345 153.592C50.1154 153.748 48.49 154.965 46.6551 155.451C44.6966 155.97 43.8489 155.016 42.0682 154.392C40.2156 153.742 38.8978 153.999 37.4088 155.394C36.5652 156.185 34.7141 158.005 35.2414 159.41C36.4489 162.625 39.1821 157.394 40.4676 157.151C42.473 156.771 44.2572 158.705 46.5697 158.152C48.6652 157.651 50.5246 156.064 52.7134 156.047C54.5436 156.032 56.2685 157.137 58.0754 157.404C60.8337 157.812 62.6449 156.732 65.1948 155.93C67.4059 155.235 68.9565 156.152 71.0362 156.923C71.9867 157.276 75.1583 158.557 74.5744 156.233C74.4095 155.577 70.2298 154.403 69.582 154.177C67.2969 153.381 65.8498 153.692 63.6731 154.607C61.8579 155.371 60.3309 155.743 58.3845 155.322C56.2402 154.859 54.2901 153.403 52.0345 153.592Z" fill="#89C5CC"/>
<path fill-rule="evenodd" clip-rule="evenodd" d="M140.333 47.0307C140.643 39.6809 141.069 32.3413 141.294 24.9871C141.405 21.3428 141.492 17.6982 141.576 14.0532C141.595 13.2416 141.614 12.4303 141.63 11.6187C141.685 8.86134 141.389 8.63575 143.904 8.391C155.127 7.29833 166.395 6.93616 177.631 5.94756C191.183 4.75528 204.805 3.93201 218.395 3.563C224.434 3.39869 230.498 3.05843 236.539 3.26553C237.877 3.3114 240.504 2.92732 241.031 4.07476C241.258 4.57043 240.781 6.27618 240.72 6.84819C240.531 8.63507 240.354 10.4281 240.245 12.2239C239.602 22.8151 239.986 33.6733 241.845 44.1039C237.483 41.3911 231.973 39.0575 226.889 39.5207C221.706 39.9927 217.829 43.2957 213.68 46.3358C211.334 48.0553 210.543 48.5075 208.202 46.8418C206.185 45.4061 204.276 43.7647 202.372 42.1538C199.435 39.6675 196.663 36.9718 193.814 34.3654C188.577 29.5731 181.362 22.7518 174.128 24.7601C168.96 26.1951 164.188 29.328 159.703 32.3941C153.038 36.9492 147.006 42.5276 140.333 47.0307ZM230.151 0.00156263C204.402 0.00156263 178.847 2.75479 153.171 4.2442C150.489 4.39961 147.817 4.62862 145.145 4.91308C143.364 5.10273 139.009 4.3065 137.842 5.98487C137.063 7.10458 137.732 7.27266 137.842 8.33657C137.98 9.67741 137.898 11.2661 137.862 12.6853C137.777 16.105 137.687 19.5244 137.616 22.9445C137.35 35.8703 137.184 48.7936 137.659 61.716C137.762 64.5343 138.693 68.4363 138.184 71.1748C137.815 73.1575 136.582 74.3642 139.425 74.7304C142.223 75.0912 145.644 74.1738 148.444 73.8801C151.26 73.5844 154.076 73.2636 156.895 73.0072C169.154 71.893 181.532 72.0614 193.823 71.691C206.226 71.3176 218.632 71.2936 231.038 71.2861C236.229 71.283 242.16 71.6048 247.225 70.0291C249.007 69.4745 249.295 69.2014 248.856 67.2512C248.773 66.8812 248.235 66.7446 248.077 66.0757C247.862 65.1655 247.972 64.0591 247.922 63.1116C247.758 60.0171 247.701 56.9171 247.569 53.8205C247.348 48.6468 246.539 43.6257 245.941 38.504C245.251 32.5892 245.287 26.5836 245.273 20.6301C245.265 17.3278 245.342 14.0364 245.582 10.7434C245.736 8.6313 246.679 5.4779 246.201 3.50823C245.963 2.5275 245.573 1.74976 244.647 1.32769C244.061 1.06 243.568 1.26949 242.989 1.20172C242.301 1.12127 241.872 1.01481 241.049 0.809082C237.52 -0.0730619 233.747 0.00156263 230.151 0.00156263Z" fill="#CEE0E4"/>
<path fill-rule="evenodd" clip-rule="evenodd" d="M215.902 14.0633C215.9 16.1216 215.608 19.159 216.469 21.0971C217.56 23.5556 218.925 22.7872 219.287 20.4769C219.494 19.1531 219.489 15.2357 219.103 14.0633C218.558 12.4037 215.902 11.2734 215.902 14.0633Z" fill="#89C5CC"/>
<path fill-rule="evenodd" clip-rule="evenodd" d="M219.033 14.8581C217.281 14.9262 212.178 14.4623 210.993 16.0161C208.96 18.681 212.499 19.1531 214.019 19.0038C215.778 18.8313 221.213 19.2523 222.39 17.6969C224.361 15.0946 220.41 14.8026 219.033 14.8581Z" fill="#89C5CC"/>
<path fill-rule="evenodd" clip-rule="evenodd" d="M151.047 83.6212C158.749 85.0969 156.353 98.0494 149.065 95.0494C146.526 94.004 142.784 90.9834 144.188 87.4243C145.236 84.7652 148.653 83.3679 151.047 83.6212ZM147.858 79.5939C142.849 80.524 139.425 86.5028 141.142 91.718C142.799 96.7493 149.083 100.434 153.717 98.6255C158.142 96.8992 160.349 90.4066 158.857 85.657C157.299 80.6944 152.222 78.7836 147.858 79.5939Z" fill="#89C5CC"/>
<path fill-rule="evenodd" clip-rule="evenodd" d="M194.705 85.1362C192.788 85.3118 191.131 86.7927 189.201 87.0549C187.397 87.3 185.902 86.6191 184.213 86.0749C182.171 85.4173 180.298 85.128 178.211 85.7124C176.617 86.1591 175.044 87.3558 173.388 87.5003C170.129 87.784 166.341 83.6824 163.796 88.3215C162.576 90.5455 164.347 91.9781 166.172 90.9409C168.074 89.8598 167.14 89.4727 169.5 90.1114C171.468 90.6437 173.06 90.933 175.032 90.1867C176.818 89.511 178.386 88.2742 180.328 88.1352C182.229 87.9994 183.882 88.9544 185.699 89.3666C187.934 89.8732 189.912 89.4898 192.029 88.7172C194.043 87.9822 194.846 87.5804 196.879 88.2359C198.166 88.6511 200.977 89.9701 202.229 88.9072C204.395 87.0696 201.496 86.8009 200.354 86.5397C198.515 86.1197 196.613 84.9641 194.705 85.1362Z" fill="#89C5CC"/>
<path fill-rule="evenodd" clip-rule="evenodd" d="M236.705 83.4675C239.504 83.6663 242.532 89.2913 238.822 89.4908C236.211 89.6315 233.29 84.706 236.705 83.4675ZM236.312 78.8647C227.46 81.5912 231.506 95.3567 240.045 93.7667C243.923 93.0444 245.238 88.0884 243.955 84.4198C243.405 82.8441 242.331 81.5156 241.048 80.6088C240.102 79.9399 237.394 78.5323 236.312 78.8647Z" fill="#89C5CC"/>
<path d="M195.013 107.602C202.803 107.307 210.593 107.012 218.39 106.933C222.616 106.889 226.819 106.971 231.039 107.238C232.91 107.356 234.781 107.471 236.654 107.558C236.976 107.573 237.423 107.549 237.916 107.522C239.075 107.459 240.49 107.383 241.156 107.771C244.881 109.945 237.292 110.183 236.369 110.166C234.303 110.127 232.24 110.015 230.176 109.902C228.372 109.804 226.568 109.706 224.763 109.657C213.179 109.343 201.526 109.917 189.923 110.488C187.264 110.619 184.607 110.75 181.954 110.87C179.137 110.998 176.321 111.08 173.505 111.163C169.48 111.281 165.455 111.399 161.43 111.648C159.893 111.743 158.357 111.844 156.82 111.945C154.618 112.09 152.417 112.234 150.215 112.362C148.491 112.462 146.766 112.56 145.04 112.607C144.729 112.616 144.324 112.664 143.882 112.716C142.811 112.842 141.523 112.993 140.828 112.68C139.991 112.302 139.314 111.774 139.774 110.656C140.163 109.71 141.578 109.823 142.609 109.906C142.89 109.929 143.143 109.949 143.339 109.945C146.634 109.874 149.922 109.67 153.212 109.448C154.415 109.367 155.618 109.283 156.821 109.2C163.083 108.765 169.339 108.331 175.617 108.213C182.085 108.091 188.549 107.847 195.013 107.602Z" fill="#89C5CC"/>
<path d="M235.697 164.15L237.936 164.12C239.093 164.232 239.61 165.57 238.867 166.599C238.299 167.388 236.111 167.423 234.685 167.447C234.29 167.453 233.953 167.458 233.725 167.479C230.002 167.809 226.286 167.957 222.552 167.997C214.688 168.079 206.854 168.451 199.003 168.945C190.966 169.45 182.923 169.64 174.879 169.83C168.961 169.97 163.042 170.11 157.127 170.375C153.739 170.527 150.351 170.641 146.961 170.739C146.597 170.749 146.113 170.807 145.565 170.872C143.424 171.127 140.313 171.498 139.608 169.623C138.983 167.958 139.852 167.192 141.124 166.844C140.923 165.858 140.96 164.473 140.981 163.68C140.988 163.441 140.993 163.256 140.989 163.152C140.957 162.157 140.935 161.162 140.913 160.167C140.887 159.04 140.862 157.912 140.823 156.785C140.787 155.763 140.754 154.739 140.721 153.715C140.589 149.675 140.458 145.625 140.176 141.602C140.046 139.745 139.84 137.909 139.634 136.077C139.305 133.152 138.977 130.234 138.962 127.247C138.959 126.71 138.934 126.038 138.907 125.281C138.766 121.403 138.544 115.273 140.726 113.407C144.573 110.93 143.813 118.078 143.473 121.268C143.417 121.795 143.373 122.214 143.362 122.463C143.141 127.768 143.441 132.838 143.925 138.109C144.252 141.669 144.061 145.217 143.87 148.77C143.802 150.04 143.733 151.31 143.689 152.581C143.667 153.21 143.647 153.839 143.627 154.468C143.567 156.402 143.506 158.335 143.374 160.268C143.36 160.477 143.355 160.878 143.349 161.39C143.332 162.835 143.304 165.166 143.024 166.581C143.62 166.553 144.2 166.56 144.678 166.565C144.983 166.569 145.247 166.572 145.449 166.565C146.368 166.535 147.287 166.505 148.205 166.475C150.918 166.388 153.631 166.3 156.344 166.188C162.747 165.922 169.153 165.833 175.558 165.744C183.124 165.64 190.689 165.535 198.252 165.139C210.715 164.485 223.221 164.318 235.697 164.15Z" fill="#89C5CC"/>
<path d="M238.008 112.293C238.002 121.38 238.639 130.217 239.383 139.267C239.843 144.865 240.213 150.484 240.506 156.096C240.52 156.356 240.518 156.789 240.515 157.332C240.5 160.435 240.468 167.123 243.249 165.523C245.348 164.315 244.541 157.312 244.095 153.437C243.997 152.587 243.916 151.887 243.888 151.433C243.826 150.463 243.766 149.494 243.706 148.525C243.426 144.027 243.147 139.531 242.779 135.038L242.701 134.09C242.276 128.9 241.85 123.714 241.774 118.5C241.768 118.068 241.806 117.468 241.848 116.789C241.971 114.826 242.135 112.212 241.396 111.17C240.356 109.703 238.011 110.137 238.008 112.293Z" fill="#89C5CC"/>
<path d="M195.369 134.569C205.319 129.603 215.384 124.58 225.731 121.004C226.478 120.746 226.951 121.596 226.781 122.31C226.606 123.045 224.988 123.673 223.915 124.089C223.593 124.214 223.321 124.319 223.151 124.403C221.706 125.115 220.257 125.818 218.808 126.521C217.324 127.241 215.84 127.961 214.36 128.691C211.283 130.207 208.203 131.717 205.123 133.227C201.825 134.844 198.526 136.46 195.232 138.086C195.107 138.147 194.982 138.209 194.857 138.27C199.337 140.027 203.792 141.861 208.227 143.751C209.742 144.397 211.253 145.056 212.764 145.716C213.618 146.089 214.473 146.461 215.328 146.832C215.607 146.953 216.092 147.116 216.675 147.312C218.574 147.952 221.513 148.942 221.73 149.941C222.083 151.57 218.027 149.994 216.496 149.4C216.293 149.321 216.134 149.26 216.036 149.225C213.778 148.429 211.547 147.542 209.316 146.655L209.008 146.533C207.24 145.83 205.475 145.12 203.71 144.41C200.262 143.024 196.814 141.637 193.348 140.307C192.858 140.118 192.367 139.931 191.877 139.744C186.314 142.5 180.762 145.283 175.228 148.109C172.261 149.625 169.31 151.176 166.367 152.748C165.724 153.091 164.929 153.621 164.065 154.197C161.993 155.578 159.528 157.222 157.832 157.181C156.923 157.159 156.31 156.944 156.215 155.728C156.117 154.473 157.576 153.815 158.626 153.342C158.877 153.229 159.105 153.126 159.282 153.028C162.427 151.293 165.593 149.602 168.767 147.932C175.071 144.615 181.434 141.431 187.82 138.31C187.857 138.292 187.894 138.274 187.93 138.256C184.389 136.934 180.837 135.643 177.278 134.38C176.923 134.254 176.194 134.031 175.236 133.739C170.712 132.356 161.073 129.412 161.502 127.692C161.994 125.725 171.03 129.321 175.031 130.913C175.781 131.211 176.354 131.439 176.66 131.547C181.444 133.228 186.214 134.957 190.959 136.764C192.426 136.037 193.896 135.303 195.369 134.569Z" fill="#89C5CC"/>
<path fill-rule="evenodd" clip-rule="evenodd" d="M152.737 177.781C155.649 178.344 157.704 181.426 157.384 184.653C156.952 189.014 153.012 191.012 149.372 190.443C145.242 189.797 144.374 185.946 146.374 182.242C146.817 181.421 147.327 180.44 148.132 180.008C148.686 179.711 149.391 179.974 149.837 179.734C151.4 178.895 150.46 177.558 152.737 177.781ZM151.411 174.933C147.857 175.434 141.29 179.97 141.623 184.508C141.911 185.034 142.345 185.249 142.924 185.154C142.785 186.137 142.83 187.11 143.06 188.072C143.398 189.321 144.071 190.345 144.974 191.158C146.832 192.833 149.373 193.245 151.687 192.951C156.008 192.403 159.414 189.145 159.657 184.188C159.894 179.349 156.064 174.284 151.411 174.933Z" fill="#89C5CC"/>
<path fill-rule="evenodd" clip-rule="evenodd" d="M168.624 180.838C167.029 181.77 164.507 183.202 163.572 184.973C162.584 186.842 163.607 188.888 165.688 188.004C167.34 187.302 168.391 185.07 170.154 184.355C171.709 183.724 172.336 184.046 173.98 184.674C175.674 185.322 177.154 185.947 178.985 185.788C181.287 185.589 183.28 184.117 185.533 183.782C187.429 183.5 188.994 184.314 190.81 184.638C192.918 185.014 194.295 184.134 196.267 183.676C197.608 183.364 199.972 184.632 200.95 184.158C203.15 183.091 200.823 181.787 199.606 181.356C197.554 180.63 196.292 181.271 194.341 181.872C192.223 182.526 191.308 182.035 189.283 181.435C185.186 180.22 182.021 183.156 178.139 182.622C174.543 182.128 172.392 178.638 168.624 180.838Z" fill="#89C5CC"/>
<path fill-rule="evenodd" clip-rule="evenodd" d="M235.61 178.669C239.553 182.747 235.124 188.548 230.775 185.289C229.245 184.142 229.221 182.3 230.412 180.652C231.501 179.144 233.894 178.556 235.61 178.669ZM234.148 175.374C230.464 176.164 226.989 178.029 226.656 182.719C226.33 187.294 230.585 189.42 234.16 189.119C242.186 188.445 241.605 173.784 234.148 175.374Z" fill="#89C5CC"/>
<path fill-rule="evenodd" clip-rule="evenodd" d="M321.412 23.4039C318.465 23.4667 311.189 24.6489 310.107 28.4938C309.285 31.4124 311.725 30.7716 313.032 29.7096C314.801 28.2735 316.352 27.414 318.543 26.9771C326.891 25.3115 334.912 31.2841 343.18 32.0394C346.312 32.3256 350.092 32.512 353.082 31.3932C355.212 30.5966 355.49 28.8595 353.059 28.5949C350.994 28.3702 348.71 29.0785 346.593 29.0584C337.833 28.9757 330.046 23.2222 321.412 23.4039Z" fill="#0A626B"/>
<path fill-rule="evenodd" clip-rule="evenodd" d="M11.7911 206.001C6.1531 206.071 0.517868 206.3 -5.10898 206.693C-10.46 207.067 -16.2659 206.783 -21.5297 207.927C-23.0244 208.252 -25.0434 209.755 -23.056 211.407C-21.6591 212.569 -16.5482 211.233 -14.8801 211.12C-8.73693 210.703 -2.59064 210.204 3.56122 209.965C9.38511 209.738 15.2087 209.657 21.0354 209.593C21.925 209.584 23.4017 209.269 24.2875 209.554C25.5604 209.964 25.2584 210.075 25.3537 211.857C25.5265 215.086 25.4788 218.326 25.4207 221.558C25.3646 224.686 25.2597 227.813 25.2699 230.942C25.2771 233.175 24.6301 237.611 25.6457 239.549C27.1075 242.34 28.6239 239.309 28.7331 237.454C28.9422 233.908 28.8485 230.318 28.8495 226.766C28.8501 223.433 28.8718 220.1 28.7654 216.768C28.6881 214.361 29 210.16 27.8246 207.972C26.6275 205.744 23.7452 206.224 21.642 206.118C18.3613 205.952 15.0746 205.964 11.7911 206.001Z" fill="#89C5CC"/>
<path fill-rule="evenodd" clip-rule="evenodd" d="M-24.0809 210.023C-24.0747 216.286 -24.7316 222.508 -24.9156 228.763C-25 231.64 -25.1713 234.798 -24.5116 237.621C-23.8457 240.472 -21.7308 241.09 -21.4872 237.907C-20.9938 231.462 -21.1149 224.78 -20.7307 218.283C-20.5951 215.989 -19.7126 211.786 -20.5365 209.638C-21.2619 207.746 -24.084 207.383 -24.0809 210.023Z" fill="#89C5CC"/>
<path fill-rule="evenodd" clip-rule="evenodd" d="M28.7883 237.63C18.997 239.06 8.76108 238.538 -1.10003 238.763C-5.83107 238.871 -10.5612 238.878 -15.2928 238.932C-16.9442 238.951 -21.1378 238.258 -22.5664 239.282C-24.8405 240.912 -22.3731 242.17 -20.8675 242.206C-11.5299 242.432 -2.08831 241.958 7.24747 241.62C11.442 241.468 15.6502 241.394 19.8336 241.001C22.409 240.759 25.2234 240.524 27.7243 239.761C28.2571 239.598 29.4173 239.632 29.5367 238.83C29.6103 238.334 29.4769 237.525 28.7883 237.63Z" fill="#89C5CC"/>
<path fill-rule="evenodd" clip-rule="evenodd" d="M-11.9267 246.734C-14.648 246.751 -22.8484 245.357 -23.9754 248.284C-25.4779 252.188 -19.6167 251.276 -18.0404 251.232C-14.4603 251.13 -10.8826 251.119 -7.30151 251.121C-3.78776 251.123 -0.274311 251.098 3.23882 251.006C4.25659 250.979 6.62567 251.445 7.2112 250.093C7.65616 249.065 7.3046 248.255 6.48387 247.711C4.50916 246.402 -0.620907 247.161 -2.9329 247.043C-5.92629 246.891 -8.92962 246.734 -11.9267 246.734Z" fill="#89C5CC"/>
<path fill-rule="evenodd" clip-rule="evenodd" d="M21.1793 247.456C19.6241 247.558 16.4784 246.851 15.0852 247.636C13.5017 248.529 14.0596 249.926 15.4268 250.54C16.3735 250.965 20.2571 250.742 21.1793 250.249C22.1406 249.736 23.2276 247.317 21.1793 247.456Z" fill="#89C5CC"/>
<path fill-rule="evenodd" clip-rule="evenodd" d="M38.2295 210.638C36.5685 211.141 37.0724 221.542 37.0296 223.191C36.9123 227.708 36.4518 233.39 37.8128 237.741C38.6807 240.514 40.3476 240.138 40.0636 237.218C39.8142 234.655 39.3863 232.122 39.201 229.542C38.7821 223.705 38.2121 217.479 38.6077 211.638C38.7762 211.977 40.3519 215.125 40.7227 214.89C40.6107 214.964 38.9053 210.441 38.2295 210.638Z" fill="#89C5CC"/>
<path fill-rule="evenodd" clip-rule="evenodd" d="M56.9135 206.807C53.552 206.862 50.1906 206.928 46.8302 207.03C44.1582 207.113 39.9597 206.628 37.5093 207.868C34.5916 209.344 35.9758 212.633 38.7163 212.702C41.1406 212.764 43.726 212.161 46.1723 212.068C52.78 211.819 59.3995 211.766 66.0103 211.703C71.989 211.647 78.2219 212.35 84.1482 211.36C85.0272 219.969 82.6498 228.615 83.4584 237.323C83.5837 238.675 83.5276 240.585 85.088 240.892C87.0575 241.281 87.1385 239.129 87.2132 237.589C87.4264 233.19 87.311 228.787 87.603 224.382C87.8736 220.3 88.4063 216.128 87.9561 212.04C87.4025 207.009 85.2168 207.412 81.353 207.203C73.1926 206.762 65.0828 206.675 56.9135 206.807Z" fill="#89C5CC"/>
<path fill-rule="evenodd" clip-rule="evenodd" d="M45.6482 237.378C43.9354 237.426 41.0906 236.843 39.9931 238.655C38.8512 240.54 40.206 242.184 41.8664 242.571C43.8317 243.029 46.3945 242.401 48.4343 242.394C50.5586 242.387 52.6835 242.413 54.8077 242.423C63.9151 242.462 73.0617 242.614 82.1625 242.199C83.4335 242.141 87.0407 242.611 87.9203 241.266C88.701 240.073 88.1549 239.004 87.1269 238.396C85.4402 237.399 81.9757 237.778 80.0997 237.699C77.7828 237.602 75.463 237.57 73.1448 237.53C63.9949 237.375 54.7972 237.128 45.6482 237.378Z" fill="#89C5CC"/>
<path fill-rule="evenodd" clip-rule="evenodd" d="M53.3523 246.092C49.9441 246.156 46.3078 245.991 42.9333 246.561C39.9663 247.062 39.6011 250.226 42.7949 250.596C45.73 250.936 49.2884 250.3 52.2378 250.091C53.2853 250.017 54.5035 250.123 55.0056 248.845C55.5297 247.511 54.5277 246.231 53.3523 246.092Z" fill="#89C5CC"/>
<path fill-rule="evenodd" clip-rule="evenodd" d="M79.1185 246.424C77.2992 246.474 71.9858 245.611 71.0847 247.903C69.5847 251.718 76.7779 250.269 78.1578 250.213C79.897 250.142 86.6754 251.262 86.6769 248.208C86.6785 245.214 80.7841 246.378 79.1185 246.424Z" fill="#89C5CC"/>
<path fill-rule="evenodd" clip-rule="evenodd" d="M-24.3751 265.383C-24.3708 272.324 -24.7623 279.33 -24.1883 286.254C-23.9509 289.117 -23.9916 294.602 -22.4879 297.03C-21.4205 298.753 -19.9401 298.632 -19.357 296.563C-18.9673 295.18 -19.5907 292.414 -19.6602 290.934C-19.7272 289.514 -19.8054 288.095 -19.865 286.674C-20.018 283.015 -20.0059 279.361 -19.9603 275.699C-19.9212 272.559 -19.2357 268.404 -19.8821 265.383C-20.4846 262.568 -24.3751 261.91 -24.3751 265.383Z" fill="#CEE0E4"/>
<path fill-rule="evenodd" clip-rule="evenodd" d="M38.868 259.277C27.9503 259.579 17.0081 259.309 6.1001 259.906C0.720549 260.199 -4.6379 260.845 -9.99045 261.488C-12.6202 261.805 -15.2484 262.131 -17.8734 262.488C-18.6656 262.595 -25.2482 262.877 -22.7723 265.638C-21.6913 266.843 -18.2511 265.584 -16.8898 265.406C-14.2542 265.063 -11.6133 264.764 -8.97393 264.456C-3.95153 263.87 1.07708 263.315 6.12089 263.007C17.9998 262.281 29.9278 262.499 41.8185 262.015C45.035 261.884 48.2419 261.79 51.4596 261.93C52.3046 261.967 58.5135 262.315 55.8177 259.785C54.543 258.589 49.7369 259.206 48.1439 259.17C45.0521 259.1 41.9585 259.192 38.868 259.277Z" fill="#CEE0E4"/>
<path d="M53.7514 270.971C53.6974 267.764 53.6434 264.557 53.511 261.353C53.3717 257.979 57.5389 257.467 58.7748 260.199C59.6645 262.165 59.5081 265.511 59.374 268.379C59.3199 269.535 59.2695 270.613 59.2927 271.491C59.3458 273.505 59.4801 275.588 59.6162 277.698C59.9586 283.009 60.3124 288.494 59.4125 293.507C58.975 295.943 57.1119 297.224 55.8719 295.896C55.8702 295.899 55.8685 295.901 55.8668 295.904C55.4004 296.662 53.9484 296.661 52.8791 296.659C52.5846 296.659 52.3192 296.659 52.1113 296.674C49.1818 296.894 46.3067 297.264 43.4033 297.744C37.6182 298.701 31.8833 299.289 26.0355 299.448C22.0678 299.557 18.0944 299.593 14.1199 299.629C6.50933 299.699 -1.10515 299.769 -8.6915 300.343C-11.2492 300.537 -13.7682 300.869 -16.2841 301.4C-16.4982 301.445 -16.736 301.504 -16.9892 301.566C-18.8598 302.025 -21.5679 302.689 -21.753 299.805C-21.9729 296.383 -15.2481 295.935 -11.7875 295.704C-11.2591 295.669 -10.8068 295.639 -10.467 295.604C0.0408058 294.526 10.7135 294.693 21.2658 294.858C21.7772 294.866 22.2882 294.874 22.7989 294.882C23.6224 294.894 24.4456 294.909 25.2687 294.924C29.7868 295.006 34.2995 295.088 38.8162 294.783C40.8716 294.645 42.9538 294.573 45.0399 294.502C48.368 294.388 51.706 294.274 54.961 293.885C54.4701 291.786 54.3842 289.308 54.3033 286.973C54.2718 286.064 54.2411 285.176 54.1874 284.341C53.9015 279.89 53.8265 275.431 53.7514 270.971Z" fill="#89C5CC"/>
<path fill-rule="evenodd" clip-rule="evenodd" d="M62.5873 263.825C61.1125 264.046 59.8822 265.439 60.5406 267.204C61.3701 269.428 63.8403 268.559 65.4721 268.418C70.659 267.97 76.0745 268.865 81.1987 268.19C82.5981 268.005 84.6284 267.165 83.372 265.091C82.4275 263.532 78.9863 263.805 77.5236 263.656C72.5207 263.145 67.5837 263.282 62.5873 263.825Z" fill="#0A626B"/>
<path fill-rule="evenodd" clip-rule="evenodd" d="M71.3416 273.526C69.33 273.675 64.6473 273.558 63.7996 276.082C62.2792 280.611 68.235 279.015 70.0483 278.758C72.1549 278.458 77.1208 279.26 78.2425 277.006C80.2483 272.977 73.1056 273.391 71.3416 273.526Z" fill="#0A626B"/>
<path fill-rule="evenodd" clip-rule="evenodd" d="M66.1687 283.465C65.2146 284.518 65.213 286.398 66.1687 287.451C67.3389 288.74 69.8882 288.473 71.4257 288.567C73.5702 288.699 79.7292 289.95 80.7941 287.165C82.2308 283.407 76.6535 283.486 74.8191 283.272C72.6989 283.026 67.9259 281.525 66.1687 283.465Z" fill="#0A626B"/>
<path fill-rule="evenodd" clip-rule="evenodd" d="M-9.00409 219.139C-9.00409 223.179 -3.28322 223.179 -3.28322 219.139C-3.28322 215.121 -9.00409 215.059 -9.00409 219.139Z" fill="#89C5CC"/>
<path fill-rule="evenodd" clip-rule="evenodd" d="M1.84735 219.185C1.84735 223.804 8.3635 223.794 8.3635 219.185C8.3635 214.582 1.84735 214.535 1.84735 219.185Z" fill="#89C5CC"/>
<path fill-rule="evenodd" clip-rule="evenodd" d="M-4.71727 225.326C-7.88474 226.291 -4.96675 229.251 -3.49596 229.928C-1.15852 231.003 2.0316 231.795 4.36966 230.184C5.29992 229.542 6.05517 228.69 5.37346 227.445C4.64706 226.12 3.65257 226.709 2.54669 226.831C1.14572 226.987 0.0134544 226.963 -1.33942 226.467C-2.34912 226.097 -3.61604 224.992 -4.71727 225.326Z" fill="#89C5CC"/>
<path fill-rule="evenodd" clip-rule="evenodd" d="M52.7372 219.395C52.7372 222.127 56.5842 222.127 56.5842 219.395C56.5842 216.662 52.7372 216.662 52.7372 219.395Z" fill="#89C5CC"/>
<path fill-rule="evenodd" clip-rule="evenodd" d="M61.245 219.806C61.245 222.842 65.5186 222.842 65.5186 219.806C65.5186 216.77 61.245 216.77 61.245 219.806Z" fill="#89C5CC"/>
<path fill-rule="evenodd" clip-rule="evenodd" d="M60.9284 226.395C58.6835 226.714 52.1906 227.44 51.8272 230.492C51.2669 235.201 58.3812 231.39 60.005 231.02C62.0731 230.55 63.92 230.673 65.9847 230.764C67.1182 230.814 68.6259 231.017 68.507 229.112C68.3122 225.984 62.8907 226.118 60.9284 226.395Z" fill="#89C5CC"/>
<path fill-rule="evenodd" clip-rule="evenodd" d="M4.48456 269.82C2.85738 270.299 0.728773 273.402 1.84831 275.301C3.684 278.415 4.49356 273.633 5.26184 273.173C6.65971 272.336 7.79446 275.396 9.25531 273.791C11.5605 271.258 5.9358 269.392 4.48456 269.82Z" fill="#CEE0E4"/>
<path fill-rule="evenodd" clip-rule="evenodd" d="M23.1293 267.518C21.1996 267.538 17.1258 270.551 16.8372 272.776C16.6659 274.098 17.4606 275.368 18.7526 275.386C20.512 275.41 21.0711 272.887 22.5962 272.359C24.2414 271.79 23.9972 273.1 25.418 273.78C26.4578 274.277 27.7583 274.069 28.1194 272.659C28.8008 269.999 25.1121 267.476 23.1293 267.518Z" fill="#CEE0E4"/>
<path fill-rule="evenodd" clip-rule="evenodd" d="M8.35823 280.258C5.27174 282.253 10.3503 286.529 12.1109 287.064C14.7689 287.871 20.1183 286.365 20.7482 282.783C20.9989 281.358 20.1906 280.067 18.7645 280.322C17.5904 280.533 16.8373 282.157 15.7497 282.739C14.2817 283.524 12.9766 283.471 11.7292 282.289C10.713 281.326 10.1688 279.093 8.35823 280.258Z" fill="#CEE0E4"/>
<path fill-rule="evenodd" clip-rule="evenodd" d="M10.5953 309.735C7.83768 310.384 5.03449 309.949 2.26358 310.558C-0.561951 311.181 -2.25056 312.358 -4.87564 311.172C-4.99914 311.114 -5.12233 311.057 -5.24551 310.999C-7.27731 310.034 -9.40685 309.748 -11.5336 311.287C-12.7921 312.197 -16.6128 315.346 -16.1523 317.267C-15.1544 321.433 -10.8553 314.901 -9.75903 314.264C-7.66859 313.05 -6.23535 314.601 -4.08315 315.039C-1.50524 315.563 0.569065 314.061 2.99742 313.462C5.83753 312.762 9.03262 312.519 11.9221 312.144C13.0636 311.996 17.3876 312.992 17.7779 311.425C18.4485 308.733 11.6791 309.482 10.5953 309.735Z" fill="#0A626B"/>
<path fill-rule="evenodd" clip-rule="evenodd" d="M30.4905 318.124C30.5262 318.154 30.6708 318.275 30.4905 318.124V318.124ZM38.2137 309.572C40.5744 309.308 48.1276 307.448 49.6784 310.139C50.6884 311.891 49.0854 318.36 47.5563 319.196C46.3341 319.864 43.4871 319.126 42.146 319.073C39.6507 318.976 37.15 318.933 34.6574 318.762C33.8215 318.704 31.1316 318.874 30.4762 318.058C29.7024 317.094 29.7368 311.957 29.5547 310.683C31.7252 311.458 35.9442 309.827 38.2137 309.572ZM43.2547 306.934C40.2312 307.079 37.2084 307.33 34.2075 307.777C32.5347 308.026 30.8399 308.689 29.295 309.003C28.7969 309.104 27.9886 308.824 27.378 309.149C25.5935 310.1 27.1561 316.529 27.5865 318.247C28.2474 320.885 29.9109 321.313 32.2415 321.561C35.3115 321.889 38.4446 321.786 41.5242 321.744C44.4928 321.704 48.4956 322.43 50.1612 319.145C51.2379 317.02 52.3928 312.073 51.4725 309.706C50.2618 306.591 45.7411 306.819 43.2547 306.934Z" fill="#0A626B"/>
<path fill-rule="evenodd" clip-rule="evenodd" d="M77.1123 319.892C76.9507 320.121 76.9507 320.121 77.1123 319.892V319.892ZM77.7748 319.011C77.4928 319.365 77.7249 319.094 77.7748 319.011V319.011ZM70.5645 318.769C71.8972 318.492 73.2306 318.218 74.5648 317.95C73.3013 319.901 71.9708 319.094 69.8124 318.924C70.0631 318.872 70.3138 318.821 70.5645 318.769ZM64.206 318.078C64.5439 317.954 64.8815 317.829 65.2194 317.704C65.2092 317.988 65.2644 318.254 65.3851 318.501C64.8067 318.432 64.229 318.358 63.6518 318.28C63.8364 318.213 64.0214 318.145 64.206 318.078ZM61.2595 315.678C61.2405 315.167 61.9384 315.518 62.3384 315.484C61.5673 316.232 61.2077 316.297 61.2595 315.678ZM71.7973 309.873C71.8988 309.73 72.0331 309.737 72.2004 309.895C72.018 309.962 71.3151 310.291 71.7973 309.873ZM78.6312 308.986C79.0284 309.551 78.6492 308.986 78.6312 308.986V308.986ZM78.4395 308.801C78.5388 308.885 78.5388 308.885 78.4395 308.801V308.801ZM77.5865 308.692C78.8776 310.76 78.9837 308.951 77.5865 308.692V308.692ZM61.1704 308.568C60.9836 308.576 60.8865 308.828 61.1704 308.568V308.568ZM66.514 304.717C64.1418 304.87 59.7874 304.716 57.8062 306.111C55.2209 307.93 56.5812 314.194 56.8127 316.94C57.1546 320.999 58.886 322.155 62.3517 322.581C66.4876 323.09 70.7371 323.184 74.8944 323.064C78.6384 322.955 80.7707 321.535 81.4564 317.187C81.6665 315.857 82.1996 313.798 82.1828 312.524C82.1713 311.64 81.772 311.237 81.6209 310.486C80.7611 306.206 79.3232 305.699 75.3468 305.512C72.4201 305.375 69.3857 304.552 66.514 304.717Z" fill="#89C5CC"/>
<path fill-rule="evenodd" clip-rule="evenodd" d="M192.173 206.408C198.204 206.55 205.047 210.232 204.093 218.032C203.394 223.745 198.909 228.384 193.715 228.784C188.132 229.214 182.229 224.487 181.471 218.217C180.617 211.165 186.275 206.267 192.173 206.408ZM189.215 203.233C186.77 203.636 184.434 205.052 182.28 206.32C181.459 206.805 177.292 209.758 180.56 210.492C172.686 224.499 191.217 237.508 201.635 228.405C206.313 224.318 208.776 216.567 205.752 210.501C202.624 204.226 195.207 202.24 189.215 203.233Z" fill="#89C5CC"/>
<path fill-rule="evenodd" clip-rule="evenodd" d="M187.774 215.155C187.774 217.771 191.455 217.771 191.455 215.155C191.455 212.539 187.774 212.539 187.774 215.155Z" fill="#89C5CC"/>
<path fill-rule="evenodd" clip-rule="evenodd" d="M194.599 215.574C194.599 218.41 198.59 218.41 198.59 215.574C198.59 212.738 194.599 212.738 194.599 215.574Z" fill="#89C5CC"/>
<path fill-rule="evenodd" clip-rule="evenodd" d="M189.993 221.183C189.456 223.334 195.58 224.438 195.784 221.948C195.881 220.758 190.367 219.682 189.993 221.183Z" fill="#89C5CC"/>
<path fill-rule="evenodd" clip-rule="evenodd" d="M207.945 219.853C214.992 218.92 222.258 219.351 229.339 219.575C231.111 219.631 232.883 219.686 234.655 219.719C235.782 219.74 238.215 220.336 239.199 219.754C243.226 217.372 235.326 216.22 234.208 216.111C227.164 215.472 216.295 215.244 209.231 215.545C207.141 215.635 206.69 220.019 207.945 219.853Z" fill="#89C5CC"/>
<path fill-rule="evenodd" clip-rule="evenodd" d="M239.655 258.492C239.716 250.348 239.981 242.149 240.548 234.03C240.779 230.72 241.057 227.415 241.286 224.105C241.395 222.546 241.897 220.363 241.066 218.995C240.21 217.586 238.332 217.293 237.201 218.542C235.846 220.476 236.24 223.722 236.071 226.062C235.812 229.659 235.499 233.254 235.344 236.859C235.043 243.837 234.973 250.937 235.481 257.905C235.721 261.193 236.242 264.401 236.934 267.608C237.25 269.068 239.758 275.57 239.23 276.467C238.413 277.857 232.373 277.332 231.063 277.37C227.701 277.47 224.337 277.535 220.974 277.606C218.095 277.666 215.216 277.71 212.336 277.738C211.193 277.749 204.475 277.524 205.965 279.394C189.301 280.675 172.318 278.537 155.756 277.803C154.919 277.766 153.55 277.504 152.287 277.429C152.135 276.756 152.011 276.154 151.98 275.736C151.762 272.8 151.706 269.854 151.47 266.919C151.038 261.548 150.201 256.232 149.702 250.87C149.206 245.515 149.255 240.143 148.966 234.774C148.916 233.854 148.799 226.318 147.075 224.488C147.892 224.829 149.21 224.874 149.97 224.806C156.114 224.26 162.213 223.082 168.304 222.071C170.047 221.782 174.001 221.987 175.447 221.026C176.698 220.194 177.193 217.278 175.017 217.514C168.943 218.232 162.902 219.346 156.875 220.442C155.264 220.735 153.656 221.049 152.048 221.369C150.975 221.583 148.141 221.567 147.309 222.281C146.297 223.148 146.19 223.737 146.533 224.129C146.056 223.985 145.485 224.212 144.799 224.969C143.503 226.83 144.722 231.415 144.876 233.598C145.062 236.216 145.153 238.839 145.262 241.462C145.47 246.538 145.952 251.544 146.693 256.559C147.522 262.177 148.228 267.818 149.06 273.434C149.277 274.896 149.559 276.323 149.919 277.735C147.678 279 149.202 281.01 150.979 281.367C150.992 281.37 151.005 281.372 151.018 281.374C151.572 282.864 152.347 284.245 152.952 282.248C152.998 282.095 153.02 281.906 153.026 281.694C157.616 282.268 162.662 281.912 167.182 282.115C176.972 282.557 186.822 283.219 196.622 282.883C200.501 282.75 204.393 282.37 208.24 281.799C210.494 281.465 212.756 281.066 214.974 280.511C215.133 280.472 215.375 280.43 215.654 280.379C215.699 280.378 215.745 280.377 215.789 280.376C219.185 280.319 222.578 280.219 225.971 280.063C228.819 279.933 231.68 279.866 234.52 279.57C236.283 279.385 240.01 279.42 241.093 277.463C242.077 275.685 240.431 271.103 240.197 269.105C239.786 265.587 239.629 262.037 239.655 258.492Z" fill="#0A626B"/>
<path fill-rule="evenodd" clip-rule="evenodd" d="M205.239 234.977C202.525 235.233 200.016 236.639 197.278 236.656C194.979 236.671 192.716 235.913 190.405 236.025C187.693 236.155 186.202 238.089 183.827 238.736C181.936 239.251 180.745 237.655 179.082 236.949C176.982 236.057 175.431 236.517 173.631 237.866C172.309 238.857 169.225 241.082 169.249 243.086C169.32 249.158 175.743 240.77 177.037 240.669C178.758 240.534 180.68 242.697 182.51 242.82C184.93 242.983 186.482 241.262 188.711 240.635C190.964 240.001 193.4 240.778 195.659 241.019C198.237 241.294 200.493 240.66 202.986 239.982C205.403 239.324 207.463 239.359 209.918 239.911C211.575 240.284 215.704 242.451 216.429 239.665C217.417 235.87 207.136 234.799 205.239 234.977Z" fill="#89C5CC"/>
<path fill-rule="evenodd" clip-rule="evenodd" d="M206.065 246.558C200.505 247.153 194.911 247.676 189.325 247.843C186.906 247.915 177.605 246.772 178.43 250.162C179.137 253.07 191.793 251.239 194.371 251.018C197.217 250.774 200.058 250.433 202.89 250.038C203.893 249.898 206.317 250.043 207.025 249.114C207.7 248.228 207.367 246.414 206.065 246.558Z" fill="#89C5CC"/>
<path fill-rule="evenodd" clip-rule="evenodd" d="M167.707 262C167.58 262.059 167.58 262.059 167.707 262V262ZM168.88 261.983C170.266 261.934 169.969 261.128 171.352 261.548C171.989 261.742 172.055 261.454 172.549 262.127C173.514 263.439 172.605 266.295 171.654 267.352C168.133 271.266 163.908 262.157 168.88 261.983ZM168.88 258.143C159.24 258.5 163.273 274.924 171.663 271.571C175.128 270.187 177.306 263.949 175.268 260.443C174.276 258.738 173.012 258.435 171.352 258.317C170.966 258.289 170.481 258.907 170.24 258.879C169.668 258.813 169.721 258.108 168.88 258.143Z" fill="#89C5CC"/>
<path fill-rule="evenodd" clip-rule="evenodd" d="M191.931 262.563C191.759 262.504 194.975 263.536 194.623 263.132C195.373 263.993 194.364 266.03 193.515 266.385C191.458 267.247 190.304 263.719 191.931 262.563ZM193.358 258.109C190.34 258.581 188.01 259.968 187.598 263.67C187.217 267.087 189.31 270.547 192.612 270.614C199.809 270.759 200.028 257.083 193.358 258.109Z" fill="#89C5CC"/>
<path fill-rule="evenodd" clip-rule="evenodd" d="M226.212 262.712C220.929 263.226 226.633 268.78 226.212 262.712V262.712ZM223.764 256.221C223.265 257.162 223.69 258.16 224.443 258.706C217.714 260.275 219.238 271.444 226.085 269.794C229.567 268.954 230.208 264.916 229.689 261.581C229.442 259.996 225.859 252.269 223.764 256.221Z" fill="#89C5CC"/>
<path fill-rule="evenodd" clip-rule="evenodd" d="M239.683 262.048C237.677 262.442 232.935 264.885 232.977 267.51C233.041 271.606 237.071 267.131 237.967 266.53C242.783 263.297 249.021 267.486 254.035 268.378C256.334 268.786 260.832 269.541 262.862 267.842C266.474 264.819 258.122 265.576 257.058 265.454C251.276 264.796 245.525 260.897 239.683 262.048Z" fill="#0A626B"/>
<path fill-rule="evenodd" clip-rule="evenodd" d="M334.427 233.245C334.425 237.437 334.233 241.715 334.933 245.857C335.146 247.111 335.313 249.512 336.512 250.163C337.717 250.816 338.884 250.082 339.184 248.72C339.533 247.136 338.767 244.764 338.689 243.101C338.583 240.828 338.576 238.553 338.575 236.278C338.574 234.635 339.064 231.991 337.306 231.146C335.998 230.517 334.427 231.686 334.427 233.245Z" fill="#0A626B"/>
<path fill-rule="evenodd" clip-rule="evenodd" d="M394.505 226.616C381.914 228.01 369.142 228.299 356.506 229.026C350.665 229.362 343.606 228.934 338.103 231.427C337.082 231.891 333.422 234.468 336.393 235.518C337.319 235.845 338.26 234.745 339.02 234.376C340.287 233.763 341.753 233.573 343.103 233.333C354.585 231.3 366.595 231.654 378.195 230.703C381.168 230.46 384.142 230.209 387.108 229.887C389.227 229.657 393.681 227.972 395.637 228.834C398.978 230.306 398.9 239.873 398.966 243.164C399.001 244.865 397.503 250.973 400.48 250.354C402.862 249.858 401.999 243.513 401.814 241.777C401.327 237.227 400.496 225.946 394.505 226.616Z" fill="#0A626B"/>
<path fill-rule="evenodd" clip-rule="evenodd" d="M399.148 250.133C388.212 251.223 377.023 250.154 366.042 250.582C360.286 250.807 354.536 251.165 348.779 251.374C346.289 251.465 343.797 251.469 341.306 251.489C340.114 251.498 334.692 252.294 338.047 254.9C339.532 256.053 344.265 255.124 345.969 255.102C348.528 255.068 351.086 254.951 353.644 254.841C359.569 254.585 365.49 254.231 371.417 254.054C377.087 253.885 382.76 253.848 388.43 253.679C391.252 253.595 394.111 253.499 396.908 253.045C397.538 252.942 399.588 252.861 400.026 252.085C400.44 251.351 400.149 250.027 399.148 250.133Z" fill="#89C5CC"/>
<path fill-rule="evenodd" clip-rule="evenodd" d="M345.398 241.077C345.339 241.23 345.339 241.23 345.398 241.077V241.077ZM350.134 239.489C350.307 239.57 350.307 239.57 350.134 239.489V239.489ZM349.912 239.445C352.465 242.314 348.54 245.739 346.149 242.939C343.611 239.967 348.269 239.454 349.912 239.445ZM347.205 235.104C338.414 236.829 341.527 249.752 349.738 247.885C353.342 247.065 355.404 243.059 354.163 239.212C353.678 237.709 352.622 236.059 351.15 235.585C350.417 235.349 349.768 235.721 349.069 235.634C348.403 235.551 348.033 234.939 347.205 235.104Z" fill="#0A626B"/>
<path fill-rule="evenodd" clip-rule="evenodd" d="M380.85 238.741C375.549 238.76 370.246 239.008 364.946 239.119C363.32 239.153 359.142 238.35 359.135 241.177C359.128 244.198 363.783 243.082 365.332 243.042C370.589 242.903 375.86 242.649 381.097 242.097C382.419 241.957 386.999 242.198 386.994 240.214C386.989 238.112 381.918 238.741 380.85 238.741Z" fill="#0A626B"/>
<path fill-rule="evenodd" clip-rule="evenodd" d="M393.511 258.457C380.4 258.845 367.309 258.98 354.209 259.721C349.309 259.997 344.415 260.203 339.508 260.203C338.563 260.203 336.66 259.8 335.77 260.456C333.356 262.237 336.105 263.765 337.678 263.861C348.44 264.52 359.358 262.88 370.114 262.51C376.411 262.294 382.709 262.23 389.002 261.876C390.719 261.78 392.436 261.668 394.15 261.521C395.136 261.437 397.743 261.668 398.539 261.032C402.018 258.255 394.684 258.422 393.511 258.457Z" fill="#89C5CC"/>
<path fill-rule="evenodd" clip-rule="evenodd" d="M333.356 265.528C333.233 269.277 333.22 272.961 333.665 276.69C333.84 278.157 333.92 279.822 335.479 280.195C336.895 280.534 337.613 279.352 337.907 278.043C338.623 274.844 337.993 270.24 337.984 266.918C337.98 265.275 337.979 263.436 336.138 263.065C334.734 262.781 333.41 263.9 333.356 265.528Z" fill="#89C5CC"/>
<path fill-rule="evenodd" clip-rule="evenodd" d="M407.408 274.567C386.185 275.801 364.99 276.878 343.751 277.868C342.095 277.945 329.227 277.791 333.726 282.74C335.115 284.269 338.695 283.233 340.492 283.136C343.192 282.99 345.893 282.878 348.594 282.726C359.3 282.125 370.033 281.963 380.731 281.289C386.619 280.917 392.492 280.337 398.349 279.58C401.134 279.221 404.592 279.258 407.201 278.054C408.544 277.434 409.992 274.416 407.408 274.567Z" fill="#89C5CC"/>
<path fill-rule="evenodd" clip-rule="evenodd" d="M395.205 255.547C393.591 257.32 394.421 260.818 394.543 263.01C394.71 266.026 394.914 269.043 395.255 272.042C395.477 273.991 395.359 277.023 396.302 278.706C397.405 280.676 399.835 280.458 400.833 278.554C401.715 276.871 401.269 273.328 401.245 271.461C401.214 268.881 401.068 266.297 400.929 263.721C400.813 261.569 401.255 258.12 400.182 256.277C399.091 254.405 396.718 253.888 395.205 255.547Z" fill="#89C5CC"/>
<path fill-rule="evenodd" clip-rule="evenodd" d="M346.695 269.307C346.506 269.468 346.506 269.468 346.695 269.307V269.307ZM350.465 268.786C353.982 269.566 348.295 274.096 346.497 270.987C346.216 270.501 346.07 269.904 346.521 269.482C346.932 269.096 347.191 269.779 347.58 269.596C348.249 269.279 349.751 268.756 350.465 268.786ZM349.98 265.067C347.578 265.277 344.276 265.44 343.088 268.095C341.491 271.662 344.222 275.155 347.381 275.697C350.421 276.219 354.961 274.362 355.204 270.451C355.4 267.297 352.681 264.825 349.98 265.067Z" fill="#89C5CC"/>
<path fill-rule="evenodd" clip-rule="evenodd" d="M370.028 266.953C367.542 266.997 362.656 266.186 360.49 267.523C358.347 268.845 359.303 271.2 361.258 271.764C362.55 272.136 364.662 271.535 366.008 271.475C367.777 271.395 369.549 271.378 371.32 271.351C374.298 271.307 377.275 271.344 380.254 271.344C383.296 271.344 386.39 271.436 389.427 271.189C393.27 270.877 393.166 267.704 389.408 267.307C383.025 266.633 376.433 266.842 370.028 266.953Z" fill="#89C5CC"/>
<path fill-rule="evenodd" clip-rule="evenodd" d="M363.678 302.497C363.678 304.005 364.891 302.497 364.882 302.497C364.891 302.497 363.678 300.989 363.678 302.497Z" fill="#89C5CC"/>
<path fill-rule="evenodd" clip-rule="evenodd" d="M336.241 290.359C336.32 294.742 336.371 299.129 336.541 303.508C336.595 304.893 336.235 307.597 337.757 308.303C339.451 309.089 339.977 307.13 340.172 305.803C340.79 301.598 340.185 296.797 340.125 292.542C340.105 291.113 340.385 289.124 338.914 288.412C337.714 287.831 336.217 288.91 336.241 290.359Z" fill="#89C5CC"/>
<path fill-rule="evenodd" clip-rule="evenodd" d="M401.587 290.428C401.687 290.689 401.687 290.689 401.587 290.428V290.428ZM401.729 290.383C402.139 290.573 401.81 290.42 401.729 290.383V290.383ZM369.628 286.84C363.528 286.946 357.424 287.026 351.328 287.314C348.726 287.437 346.094 287.536 343.502 287.807C341.665 287.998 337.103 288.078 335.912 289.734C333.454 293.15 338.666 292.219 339.789 291.941C341.832 291.436 343.918 291.274 346.005 291.153C350.534 290.889 355.065 290.748 359.6 290.648C371.897 290.375 384.204 290.416 396.504 290.355C397.694 290.349 399.847 289.821 400.947 290.352C402.048 290.885 401.986 292.194 402.101 293.714C402.253 295.737 401.043 299.591 401.965 301.292C403.395 303.931 405.473 301.69 405.791 299.766C406.23 297.108 405.534 293.916 404.853 291.375C403.892 287.79 402.557 287.647 399.413 287.367C395.74 287.04 392.08 286.841 388.395 286.804C382.141 286.74 375.882 286.733 369.628 286.84Z" fill="#89C5CC"/>
<path fill-rule="evenodd" clip-rule="evenodd" d="M393.756 304.958C380.525 306.653 366.917 305.654 353.616 305.714C350.381 305.729 347.143 305.757 343.912 305.93C342.205 306.021 338.159 305.502 336.99 306.955C334.525 310.016 338.965 310.462 340.586 310.335C343.863 310.078 347.148 309.961 350.434 309.932C362.007 309.834 373.646 310.43 385.21 309.8C390.055 309.536 394.791 308.622 399.546 307.6C400.6 307.374 407.811 305.862 403.699 304.05C401.269 302.978 396.309 304.629 393.756 304.958Z" fill="#89C5CC"/>
<path fill-rule="evenodd" clip-rule="evenodd" d="M355.125 299.354C355.033 299.484 355.033 299.484 355.125 299.354V299.354ZM355.036 299.331C354.907 299.657 355.005 299.425 355.036 299.331V299.331ZM354.201 298.144C354.299 298.282 354.221 298.171 354.201 298.144V298.144ZM354.169 298.135C354.488 298.554 354.702 299.022 354.813 299.538C352.071 300.357 351.015 297.911 354.169 298.135ZM349.493 294.376C347.718 296.813 346.254 299.653 348.466 302.437C350.444 304.925 354.423 305.247 356.933 303.585C359.518 301.873 359.295 298.269 357.491 295.916C356.33 294.401 355.389 294.443 353.704 294.196C352.557 294.028 350.466 293.044 349.493 294.376Z" fill="#89C5CC"/>
<path fill-rule="evenodd" clip-rule="evenodd" d="M367.833 298.886C367.833 302.131 380.536 300.735 382.796 300.731C384.689 300.728 396.136 301.88 395.314 298.541C394.639 295.797 383.364 297.161 380.963 297.156C378.887 297.153 367.833 295.581 367.833 298.886Z" fill="#89C5CC"/>
<path fill-rule="evenodd" clip-rule="evenodd" d="M201.989 329.29C208.351 330.309 214.969 333.609 214.913 341.778C214.867 348.645 209.645 355.954 202.939 355.544C196.905 355.175 191.223 347.896 190.467 341.659C190.075 338.427 190.808 334.947 192.531 332.289C194.79 328.805 198.373 328.811 201.989 329.29ZM198.984 324.851C194.383 324.878 191.016 326.715 188.168 330.59C187.147 331.979 185.959 333.475 185.182 335.049C184.455 336.519 184.583 340.258 187.075 338.506C186.461 345.744 190.296 352.77 195.81 356.479C201.803 360.511 208.578 359.725 213.566 354.073C218.132 348.9 219.738 340.162 216.398 333.764C213.06 327.37 205.324 324.782 198.984 324.851Z" fill="#89C5CC"/>
<path fill-rule="evenodd" clip-rule="evenodd" d="M212.782 322.911C209.836 325.292 207.146 328.428 204.912 331.609C202.728 334.718 201.285 338.6 198.661 341.311C197.336 339.72 195.784 335.421 193.142 337.126C190.949 338.542 192.361 340.975 193.429 342.573C196.187 346.699 199.25 348.36 202.787 344.283C205.999 340.581 207.823 335.642 210.827 331.727C212.144 330.009 214.18 328.304 215.229 326.408C216.18 324.688 215.004 321.11 212.782 322.911Z" fill="#89C5CC"/>
<path d="M324.113 64.6484C324.118 64.973 324.122 65.2785 324.128 65.5593C324.266 71.6895 324.186 78.1341 323.734 84.25C323.578 86.3617 322.186 89.0381 320.597 86.1273C319.898 84.8474 319.996 82.219 320.068 80.2855C320.088 79.7672 320.105 79.2988 320.105 78.9197C320.103 76.7623 320.206 74.5829 320.309 72.3977C320.51 68.1255 320.713 63.8309 320.14 59.635C320.128 59.5501 320.117 59.4684 320.107 59.3898C319.858 57.5447 319.84 57.4172 318.001 57.4592C317.234 57.4767 316.467 57.4996 315.7 57.5225C314.946 57.545 314.192 57.5674 313.437 57.5849C312.688 57.6022 311.939 57.6181 311.19 57.634C308.841 57.6839 306.492 57.7337 304.144 57.8285C303.752 57.8445 303.021 57.9456 302.098 58.0733C300.253 58.3285 297.643 58.6896 295.446 58.6875C295.447 58.6979 295.448 58.7084 295.448 58.7188C295.45 58.7375 295.451 58.7563 295.451 58.7753C295.476 60.1129 295.164 61.6061 294.85 63.1061C294.587 64.3623 294.323 65.6234 294.256 66.802C294.094 69.6065 294.093 72.4406 294.091 75.2748C294.089 78.7257 294.087 82.1768 293.797 85.5744C293.783 85.7401 293.774 85.9152 293.766 86.0923C293.764 86.1159 293.763 86.1394 293.762 86.163C293.862 86.1463 293.958 86.1345 294.051 86.128C295.634 86.0173 297.231 86.0074 298.825 85.9976C299.704 85.9921 300.583 85.9867 301.458 85.9644C303.029 85.9242 304.619 85.9261 306.216 85.928C309.741 85.9322 313.297 85.9364 316.746 85.4884C317.764 85.3428 318.12 86.7837 317.663 87.5307C317.255 88.1993 316.128 88.3076 315.304 88.3869C315.094 88.4071 314.904 88.4254 314.75 88.4505C312.526 88.8137 310.273 88.9405 308.029 89.0502C305.672 89.1653 303.313 89.2514 300.955 89.3239C300.394 89.3409 299.645 89.4245 298.814 89.5171C296.621 89.7615 293.861 90.0693 292.49 89.3854C291.018 88.6505 291.052 87.8345 291.653 87.2023C291.389 86.563 291.348 85.6287 291.315 84.8981C291.303 84.6191 291.292 84.3698 291.27 84.1779C290.944 81.2684 290.747 78.3962 290.742 75.4618C290.733 69.7139 290.743 63.7442 292.185 58.1805C291.607 57.9016 291.259 57.4906 291.26 56.8981C291.267 53.9131 299.69 54.065 303.694 54.1372C304.41 54.1501 304.984 54.1605 305.344 54.1499C308.261 54.0658 311.178 54.0549 314.096 54.0723C314.712 54.0759 315.398 54.0315 316.109 53.9854C317.621 53.8874 319.245 53.7821 320.551 54.1167C323.981 54.9952 324.064 61.0215 324.113 64.6484Z" fill="#89C5CC"/>
<path fill-rule="evenodd" clip-rule="evenodd" d="M345.569 54.771C348.754 54.5851 351.942 54.5424 355.131 54.5294C358.507 54.5106 361.889 54.5776 365.264 54.6921L365.342 54.6947C366.837 54.7442 375.149 55.0196 371.33 57.3043C371.108 57.4376 370.857 57.549 370.583 57.6414C370.745 58.6993 370.765 59.7916 370.739 60.3178C370.64 62.3133 370.575 64.311 370.51 66.3086C370.466 67.6624 370.422 69.0162 370.367 70.3693C370.217 74.1081 370.074 77.8465 369.957 81.587C369.943 82.0461 369.965 82.6466 369.989 83.3158C370.071 85.5287 370.179 88.4936 369.09 89.5897C368.134 90.5521 367.481 90.3592 367.04 89.7056C364.304 90.5819 358.685 90.297 355.86 90.1537C355.179 90.1192 354.661 90.0929 354.383 90.093C353.888 90.0932 352.968 90.1614 351.806 90.2475C346.967 90.606 337.936 91.2751 337.918 88.6443C337.916 88.3912 337.991 88.1643 338.131 87.9611C337.747 87.5297 337.402 86.8962 337.181 86.1059C336.386 83.2685 336.311 80.2066 336.252 77.2643C336.169 73.1096 336.168 68.9501 336.167 64.7915C336.166 62.6557 336.166 60.5201 336.154 58.3856C335.637 57.6195 335.944 56.7433 336.59 56.132C337.963 54.8313 341.374 54.8156 343.841 54.8042C344.505 54.8011 345.1 54.7984 345.569 54.771ZM340.387 86.8071C343.457 86.0841 348.629 86.3168 351.401 86.4415C352.126 86.4742 352.687 86.4994 353.003 86.4981C355.833 86.4858 358.665 86.5292 361.493 86.6539C361.786 86.6668 362.22 86.6548 362.731 86.6406C363.758 86.612 365.097 86.5748 366.234 86.7138C366.218 86.5438 366.208 86.3884 366.202 86.2541C366.075 83.4773 366.167 80.6766 366.258 77.8915C366.278 77.2995 366.297 76.7081 366.314 76.1179C366.375 74.0355 366.456 71.9542 366.536 69.8727L366.536 69.8716C366.587 68.5613 366.638 67.2509 366.683 65.9403C366.703 65.3652 366.674 64.584 366.64 63.7051C366.571 61.917 366.487 59.7245 366.778 58.0406C365.731 58.0186 364.658 57.9368 363.673 57.8617C362.725 57.7894 361.859 57.7233 361.179 57.7232C360.316 57.7231 359.452 57.7202 358.589 57.7173C356.198 57.7092 353.807 57.7011 351.415 57.7533C351.188 57.7582 350.962 57.7631 350.734 57.7679C347.442 57.838 344.121 57.9086 340.855 58.3871C340.664 58.4152 340.434 58.4693 340.18 58.535C340.537 60.1853 340.362 62.5112 340.209 64.5483C340.134 65.5377 340.065 66.4589 340.064 67.2016C340.059 71.8196 340.17 76.4195 340.28 81.0148C340.322 82.753 340.364 84.4909 340.399 86.2286C340.403 86.436 340.399 86.6287 340.387 86.8071Z" fill="#89C5CC"/>
<path fill-rule="evenodd" clip-rule="evenodd" d="M305.447 89.1903C303.354 90.5389 304.482 95.9339 305.208 97.7998C306.4 100.868 308.818 103.269 311.428 104.861C316.704 108.08 324.308 107.225 328.297 112.805C328.339 112.863 329.718 114.369 330.032 112.419C330.289 110.819 327.715 108.374 326.717 107.572C323.88 105.291 320.242 104.555 316.96 103.416C313.461 102.2 309.621 99.96 308.153 95.9807C307.634 94.5712 308.624 87.1329 305.447 89.1903Z" fill="#0A626B"/>
<path fill-rule="evenodd" clip-rule="evenodd" d="M353.296 91.784C351.378 92.3672 352.646 95.2784 352.643 96.7361C352.64 98.5545 352.113 100.458 351.096 101.909C348.52 105.589 343.474 106.141 339.692 107.196C336.945 107.963 330.373 109.607 330.116 113.704C329.829 118.279 335.631 112.711 336.121 112.483C341.543 110.289 348.559 109.865 352.744 105.036C354.472 103.042 355.493 100.382 355.655 97.6354C355.747 96.0892 355.762 91.0408 353.296 91.784Z" fill="#0A626B"/>
<path fill-rule="evenodd" clip-rule="evenodd" d="M313.663 132.369C313.619 123.903 320.964 118.782 327.606 116.856C335.589 114.536 343.025 120.706 343.967 129.582C344.96 138.949 338.559 146.489 330.119 146.903C322.694 147.266 313.711 141.403 313.663 132.369ZM331.497 120.927C331.928 121.574 332.318 122.607 331.448 123.17C330.611 123.708 330.193 123.061 329.773 122.41C329.507 121.999 329.24 121.586 328.866 121.47C327.895 121.168 326.335 122.294 325.527 122.951C325.199 123.217 324.732 123.791 324.186 124.461C322.449 126.596 319.912 129.713 318.509 127.031C312.917 137.682 326.859 145.654 334.787 141.623C343.494 137.196 341.8 121.011 331.497 120.927Z" fill="#89C5CC"/>
<path fill-rule="evenodd" clip-rule="evenodd" d="M324.189 129.535C324.189 131.478 326.971 131.478 326.971 129.535C326.971 127.614 324.189 127.532 324.189 129.535Z" fill="#89C5CC"/>
<path fill-rule="evenodd" clip-rule="evenodd" d="M329.084 129.17C329.084 131.551 332.494 131.551 332.494 129.17C332.494 126.817 329.084 126.717 329.084 129.17Z" fill="#89C5CC"/>
<path fill-rule="evenodd" clip-rule="evenodd" d="M325.581 134.717C322.793 136.526 330.767 140.12 331.081 136.447C331.217 134.862 329.826 135.29 328.898 135.173C328.011 135.062 326.423 134.176 325.581 134.717Z" fill="#89C5CC"/>
<path fill-rule="evenodd" clip-rule="evenodd" d="M324.372 147.55C324.493 152.171 324.435 156.788 325.229 161.345C325.38 162.21 325.485 165.348 326.105 165.991C327.63 167.572 327.656 164.542 327.715 163.38C327.926 159.22 327.531 154.931 327.443 150.762C327.424 149.865 327.64 148.006 327.256 147.138C326.647 145.759 324.313 145.35 324.372 147.55Z" fill="#0A626B"/>
<path fill-rule="evenodd" clip-rule="evenodd" d="M321.39 143.804C315.277 151.371 306.86 150.814 298.381 151.477C293.9 151.827 289.37 152.546 285.765 155.742C284.088 157.229 282.642 159.092 281.671 161.214C281.246 162.142 279.232 167.497 282.257 166.226C283.33 165.776 284.386 162.235 285.08 161.188C286.402 159.193 288.093 157.546 290.121 156.476C294.035 154.411 298.707 154.446 302.95 154.184C307.385 153.91 312.146 153.655 316.223 151.527C318.141 150.526 319.94 149.278 321.484 147.67C322.035 147.095 323.218 146.118 323.306 145.239C323.407 144.234 322.531 142.394 321.39 143.804Z" fill="#0A626B"/>
<path fill-rule="evenodd" clip-rule="evenodd" d="M290.533 167.03C284.791 167.242 279.057 167.498 273.323 167.898C272.148 167.98 268.23 167.719 269.228 170.374C270.028 172.503 274.806 171.095 276.386 170.992C282.361 170.6 288.36 170.464 294.322 169.872C295.661 169.739 301.715 169.792 299.215 167.174C298.026 165.928 292.176 166.968 290.533 167.03Z" fill="#89C5CC"/>
<path fill-rule="evenodd" clip-rule="evenodd" d="M265.582 170.085C263.773 172.706 264.604 179.079 264.741 182.23C264.873 185.285 264.335 190.869 267.95 191.343C266.802 191.177 268.821 191.42 269.15 191.439C269.884 191.483 270.621 191.497 271.356 191.506C273.053 191.526 274.752 191.501 276.449 191.464C280.294 191.379 284.149 191.255 287.989 191.021C289.604 190.922 298.36 191.005 298.707 189.155C299.15 186.792 290.754 188.129 289.251 188.204C285.591 188.389 281.925 188.428 278.261 188.481C276.445 188.508 274.628 188.527 272.812 188.488C272.062 188.472 269.093 188.812 268.637 188.26C268.248 187.79 268.552 183.472 268.543 182.811C268.517 180.658 268.519 178.5 268.588 176.347C268.635 174.898 269.346 172.141 268.767 170.78C268.204 169.456 266.563 169.005 265.582 170.085Z" fill="#89C5CC"/>
<path fill-rule="evenodd" clip-rule="evenodd" d="M295.147 170.207C295.252 175.003 295.285 179.897 296.312 184.588C296.654 186.149 297.133 189.368 298.554 190.176C300.047 191.024 301.335 189.813 301.433 188.182C301.555 186.132 300.56 183.44 300.356 181.336C300.117 178.882 299.979 176.425 299.897 173.958C299.835 172.103 300.347 169.322 298.743 168.125C297.303 167.051 295.1 168.133 295.147 170.207Z" fill="#89C5CC"/>
<path fill-rule="evenodd" clip-rule="evenodd" d="M306.574 169.036C304.788 170.998 305.586 177.21 305.809 179.731C305.973 181.577 307.805 190.661 310.551 185.924C311.765 183.829 310.222 178.289 310.233 175.846C310.24 174.29 310.739 172.322 310.498 170.827C310.18 168.852 308.194 167.252 306.574 169.036Z" fill="#89C5CC"/>
<path d="M318.938 167.417C324.302 166.806 329.672 166.348 335.065 166.292C335.324 166.29 335.596 166.286 335.879 166.282C339.576 166.23 345.131 166.152 347.618 169.214C348.974 170.882 349.587 173.46 350.122 175.708C350.222 176.127 350.319 176.535 350.418 176.923C350.502 177.254 350.612 177.633 350.73 178.042C351.289 179.971 352.045 182.582 351.278 184.198C350.858 185.085 350.181 185.84 349.154 185.526C348.914 185.453 348.726 185.359 348.579 185.249C348.972 185.718 349.147 186.387 348.891 187.042C348.397 188.307 346.837 188.334 345.607 188.355C345.309 188.36 345.03 188.365 344.791 188.387C340.696 188.764 336.582 189.015 332.473 189.054C330.516 189.073 328.559 189.056 326.602 189.038C324.588 189.02 322.574 189.002 320.56 189.024C319.098 189.039 317.609 189.193 316.12 189.346C314.239 189.54 312.358 189.733 310.529 189.651C309.161 189.588 307.7 189.094 308.047 187.144C308.33 185.552 309.688 185.413 310.906 185.289C311.012 185.278 311.117 185.267 311.22 185.255C315.096 184.82 318.975 184.666 322.872 184.681C331.057 184.713 339.237 184.666 347.422 184.619C347.759 184.649 348.076 184.791 348.337 185.007C348.042 184.613 348.047 184.088 348.054 183.528C348.056 183.275 348.059 183.015 348.034 182.757C347.984 182.238 347.938 181.721 347.893 181.205C347.741 179.501 347.591 177.809 347.296 176.094C347.252 175.836 347.209 175.551 347.164 175.25C346.896 173.47 346.541 171.111 345.257 170.15C343.967 169.184 341.438 169.23 339.466 169.266C338.934 169.276 338.442 169.285 338.027 169.273C332.765 169.124 327.474 169.536 322.236 170.061C321.834 170.101 321.431 170.14 321.028 170.179C319.035 170.37 317.032 170.563 315.069 170.956C314.709 171.028 314.16 171.239 313.531 171.482C311.855 172.126 309.609 172.991 308.845 172.039C306.316 168.884 317.429 167.588 318.938 167.417Z" fill="#89C5CC"/>
<path fill-rule="evenodd" clip-rule="evenodd" d="M376.002 160.234C376.236 160.565 376.236 160.565 376.002 160.234V160.234ZM339.705 140.689C336.448 142.801 342.477 148.999 344.013 149.957C347.469 152.114 352.218 152.439 356.078 153.046C360.962 153.814 366.277 154.096 370.971 155.862C372.972 156.614 374.242 157.788 375.552 159.592C376.215 160.506 377.813 164.446 379.268 163.513C382.198 161.635 374.304 153.753 372.564 152.905C368.61 150.978 363.936 150.439 359.708 149.691C355.777 148.995 351.761 148.478 347.927 147.251C345.818 146.576 344.32 145.488 343.105 143.406C342.347 142.108 341.726 139.386 339.705 140.689Z" fill="#0A626B"/>
<path fill-rule="evenodd" clip-rule="evenodd" d="M389.645 164.898C385.889 164.99 382.14 165.309 378.392 165.627C376.29 165.806 374.187 165.985 372.084 166.123C371.427 166.167 370.768 166.206 370.109 166.245C368.256 166.355 366.401 166.465 364.557 166.671C364.277 166.702 363.953 166.731 363.599 166.763C362.033 166.905 359.898 167.099 358.533 167.729C357.282 166.685 355.352 167.573 355.322 169.433C355.27 172.821 355.298 176.149 355.673 179.517C355.76 180.299 356.208 184.257 357.182 186.317C356.835 188.262 358.339 188.808 359.739 188.957C365.159 189.534 370.844 189.086 376.451 188.644C379.303 188.419 382.135 188.196 384.903 188.11C385.823 188.081 386.755 188.07 387.693 188.058C390.753 188.02 393.871 187.982 396.834 187.344C396.953 187.318 397.081 187.293 397.214 187.266C398.385 187.035 400.001 186.715 400.124 185.293C400.198 184.44 399.761 183.659 399.031 183.549C399.081 182.838 399 182.063 398.94 181.492C398.927 181.36 398.914 181.238 398.904 181.131C398.727 179.154 398.28 177.19 397.839 175.25C397.74 174.814 397.641 174.38 397.546 173.946C397.44 173.467 397.342 172.896 397.237 172.28C396.864 170.108 396.396 167.379 395.152 166.112C393.846 164.783 391.721 164.841 390.019 164.888C389.891 164.892 389.767 164.895 389.645 164.898ZM396.253 183.761C395.808 182.476 395.678 180.737 395.554 179.085C395.476 178.047 395.401 177.043 395.252 176.207C395.14 175.58 395.048 174.918 394.955 174.246C394.729 172.612 394.494 170.915 393.938 169.483C393.194 167.567 392.531 167.64 390.964 167.813C390.672 167.845 390.349 167.881 389.989 167.908C388.391 168.028 386.795 168.18 385.2 168.332C384.434 168.406 383.668 168.479 382.903 168.548C379.626 168.845 376.348 169.074 373.069 169.302C371.153 169.435 369.238 169.569 367.322 169.716C365.818 169.831 364.351 170.147 362.89 170.461C361.733 170.709 360.579 170.957 359.414 171.104C359.398 171.543 359.364 171.984 359.332 172.404C359.289 172.976 359.249 173.509 359.257 173.945C359.295 175.881 359.45 177.804 359.605 179.73C359.629 180.027 359.653 180.323 359.676 180.619C359.705 180.974 359.774 181.431 359.851 181.937C359.969 182.72 360.106 183.622 360.137 184.453C360.279 184.452 360.42 184.452 360.558 184.453C360.738 184.454 360.914 184.454 361.083 184.451C365.211 184.372 369.337 184.234 373.462 184.059C373.989 184.036 374.516 184.014 375.042 183.991C378.723 183.833 382.405 183.675 386.088 183.628C387.552 183.61 389.035 183.661 390.522 183.711C392.436 183.777 394.357 183.842 396.253 183.761Z" fill="#89C5CC"/>
<path fill-rule="evenodd" clip-rule="evenodd" d="M84.9754 146.011C77.2945 148.069 72.7364 155.964 74.7945 163.645L77.9228 175.32C79.7896 182.287 86.4585 186.685 93.414 185.906C93.4323 185.962 93.4508 186.019 93.4695 186.075L111.395 181.272C113.646 177.482 104.798 158.24 100.859 152.132C100.279 151.233 99.7874 150.619 99.3632 150.237C95.8531 146.378 90.3616 144.568 84.9754 146.011Z" fill="#191847"/>
<path fill-rule="evenodd" clip-rule="evenodd" d="M93.2208 175.707C97.8688 177.043 102.113 177.153 103.832 176.183C108.142 173.752 104.038 156.732 98.6704 151.027C93.3028 145.323 74.1109 147.352 76.721 160.805C77.6269 165.474 80.6505 169.048 84.3929 171.622L85.6529 196.752L100.487 192.777L93.2208 175.707Z" fill="#D4A181"/>
<path fill-rule="evenodd" clip-rule="evenodd" d="M74.7789 161.408C75.0956 160.868 75.4021 160.345 75.717 159.866L75.5685 159.391C75.5685 159.391 77.6749 148.629 84.8325 146.711C91.9838 144.795 95.1347 147.507 97.8131 149.813L97.8203 149.82C97.7377 153.533 95.0804 155.739 92.0752 158.233C90.7816 159.307 89.4235 160.434 88.1785 161.759C87.4668 161.441 86.6451 161.357 85.8331 161.574C83.9555 162.077 82.8406 164.005 83.3428 165.879C83.845 167.753 85.7742 168.865 87.6517 168.362C87.7035 168.348 87.7547 168.333 87.8053 168.317C90.4526 175.463 92.4215 183.906 90.9169 186.438L72.9918 191.241C70.0858 182.454 71.7164 179.289 73.3826 176.054C74.9503 173.01 76.5496 169.905 74.4311 161.999C74.5488 161.801 74.6644 161.603 74.7786 161.409L74.7788 161.408L74.7789 161.408Z" fill="#191847"/>
<path fill-rule="evenodd" clip-rule="evenodd" d="M82.6079 247.679L104.023 322.831L119.648 378.221H131.044L114.441 247.679H82.6079Z" fill="#191847"/>
<path fill-rule="evenodd" clip-rule="evenodd" d="M76.8808 247.679C76.3855 286.413 74.6964 307.54 74.1763 311.059C73.6562 314.578 65.7923 336.965 50.5846 378.221H62.3902C81.7508 338.643 92.5584 316.256 94.813 311.059C97.0675 305.862 104.025 284.735 114.505 247.679H76.8808Z" fill="#2F3676"/>
<path fill-rule="evenodd" clip-rule="evenodd" d="M49.5294 388.854L50.1201 376.449L62.5245 376.449C71.3473 382.651 85.5613 386.491 85.5613 386.491V388.854H63.1152L55.4363 387.672V388.854H49.5294Z" fill="#191847"/>
<path fill-rule="evenodd" clip-rule="evenodd" d="M118.049 388.854L118.64 376.449L131.044 376.449C139.867 382.651 154.081 386.491 154.081 386.491V388.854H131.635L123.956 387.672V388.854H118.049Z" fill="#191847"/>
<path fill-rule="evenodd" clip-rule="evenodd" d="M135.784 190.061L116.019 205.877L125.623 213.107L138.955 195.778C146.922 191.998 150.454 189.638 149.551 188.697C148.79 187.904 147.823 188.106 146.933 188.293C146.239 188.438 145.592 188.574 145.124 188.222C144.055 187.417 145.177 183.748 146.39 180.311C147.603 176.874 145.764 177.479 144.765 178.118C141.655 181.127 138.662 185.107 135.784 190.061ZM160.736 202.964L152.057 209.927L154.301 219.456C154.301 219.456 159.734 213.875 164.825 211.441C171.316 208.337 173.822 206.399 176.41 201.568C177.794 198.983 178.504 194.152 176.543 192.965C175.791 192.51 173.6 194.285 171.365 196.096C169.662 197.477 167.933 198.878 166.794 199.329C165.262 199.936 165.086 197.846 164.945 196.176C164.843 194.978 164.76 193.996 164.208 194.381C161.404 194.925 160.736 202.964 160.736 202.964Z" fill="#D4A181"/>
<path fill-rule="evenodd" clip-rule="evenodd" d="M104.897 205.091C112.544 203.66 122.476 200.243 132.16 191.413L138.121 200.189C131.915 208.964 122.421 216.949 113.131 218.32C105.809 219.4 100.535 211.26 104.897 205.091Z" fill="#CD770F"/>
<path fill-rule="evenodd" clip-rule="evenodd" d="M95.7468 274.03C88.2959 274.367 81.4496 274.676 77.6209 276.154C70.6269 262.512 72.7204 252.777 74.653 243.79C75.8178 238.374 76.9242 233.229 75.9473 227.665C73.1026 211.461 81.7373 184.224 83.6547 183.886L84.2051 183.789L99.4008 181.11L101.14 180.803C103.69 190.691 108.941 200.958 114.225 211.291C115.459 213.705 116.695 216.121 117.899 218.538C131.114 219.176 157.564 204.177 157.564 204.177C157.564 204.177 167.282 217.633 167.849 223.992C152.935 235.453 139.531 241.753 127.978 244.051C129.558 250.855 129.873 257.539 128.112 264.008C125.753 272.676 109.691 273.401 95.7468 274.03Z" fill="#E48510"/>
<path fill-rule="evenodd" clip-rule="evenodd" d="M237.761 166.513C233.681 168.978 229.673 170.169 227.791 169.683C223.073 168.464 222.639 151.163 226.29 144.343C229.94 137.522 248.708 134.55 249.654 148.063C249.983 152.753 248.018 156.939 245.115 160.354L250.32 184.671H235.2L237.761 166.513Z" fill="#B28B67"/>
<path fill-rule="evenodd" clip-rule="evenodd" d="M237.005 149.555C235.697 147.604 234.441 146.115 232.808 145.25C226.161 145.355 225.383 144.161 225.383 140.135C226.456 139.365 230.244 138.069 234.487 137.704C236.651 137.083 239.215 137.2 241.684 138.236C244.733 139.103 247.315 140.97 248.455 144.466C252.58 151.601 249.449 159.03 245.229 161.567C244.106 160.233 243.126 158.941 242.251 157.703C242.954 157.015 243.39 156.055 243.39 154.993C243.39 152.9 241.698 151.204 239.61 151.204C239.457 151.204 239.305 151.213 239.157 151.231C239.063 153.847 238.676 162.698 237.661 165.773C236.463 169.397 229.477 170.287 227.041 170.287C224.936 170.287 225.008 168.29 225.059 166.859C225.067 166.652 225.074 166.458 225.074 166.283C225.074 165.917 225.548 165.918 226.084 165.919C226.781 165.921 227.581 165.922 227.581 165.122C227.581 164.249 226.378 163.579 225.301 162.98C224.629 162.607 224.006 162.26 223.756 161.909C222.966 160.801 222.7 159.306 223.892 159.306C224.543 159.306 225.437 159.683 226.512 160.136C228.135 160.819 230.171 161.677 232.412 161.677C236.114 161.677 236.994 149.705 237.005 149.555Z" fill="#191847"/>
<path fill-rule="evenodd" clip-rule="evenodd" d="M255.36 237.082L232.519 317.42L215.855 376.634H203.7L221.409 237.082H255.36Z" fill="#191847"/>
<path fill-rule="evenodd" clip-rule="evenodd" d="M261.468 237.082C261.997 278.489 263.798 301.074 264.353 304.836C264.907 308.598 273.295 332.531 289.515 376.634H276.923C256.274 334.324 244.747 310.392 242.343 304.836C239.938 299.28 232.517 276.696 221.34 237.082H261.468Z" fill="#2F3676"/>
<path fill-rule="evenodd" clip-rule="evenodd" d="M290.64 388L290.01 374.739L276.78 374.739C267.37 381.37 252.21 385.474 252.21 385.474V388H276.15L284.34 386.737V388H290.64Z" fill="#191847"/>
<path fill-rule="evenodd" clip-rule="evenodd" d="M217.56 388L216.93 374.739L203.7 374.739C194.29 381.37 179.13 385.474 179.13 385.474V388H203.07L211.26 386.737V388H217.56Z" fill="#191847"/>
<path fill-rule="evenodd" clip-rule="evenodd" d="M304.27 259.994C301.921 256.534 288.33 219.74 288.33 219.74L277.171 221.364C277.171 221.364 295.138 260.435 296.435 262.69C298.121 265.619 296.63 270.43 295.619 273.693C295.462 274.197 295.318 274.665 295.198 275.083C297.321 275.697 298.129 274.479 298.981 273.195C299.943 271.744 300.961 270.209 303.994 271.135C305.166 271.493 306.292 271.953 307.392 272.402C311.191 273.954 314.681 275.379 318.69 272.046C319.325 271.518 319.861 269.79 317.841 268.783C312.808 266.275 305.419 261.685 304.27 259.994ZM183.196 242.893L202.214 226.733L207.412 237.402L188.135 247.044C182.982 254.048 180.035 257.024 179.294 255.972C178.669 255.084 179.046 254.186 179.394 253.359C179.665 252.714 179.918 252.113 179.664 251.593C179.086 250.406 175.324 250.799 171.769 251.325C168.214 251.851 169.145 250.184 169.952 249.336C173.447 246.892 177.862 244.744 183.196 242.893Z" fill="#B28B67"/>
<path fill-rule="evenodd" clip-rule="evenodd" d="M241.692 174.146L234.778 171.855C225.399 195.338 211.411 218.06 188.04 237.253L193.819 247.247C214.359 235.119 233.802 225.699 241.692 207.501C244.34 201.394 241.908 181.449 241.692 174.146Z" fill="#C5CFD6"/>
<path fill-rule="evenodd" clip-rule="evenodd" d="M265.44 240.239C265.44 240.239 235.731 243.397 218.671 240.239C217.262 239.979 217.04 237.614 217.693 236.009C227.869 211.018 234.847 189.213 234.847 171.854C237.648 173.27 244.65 172.279 244.65 172.279C257.196 190.167 262.963 210.691 265.44 240.239Z" fill="#323337"/>
<path fill-rule="evenodd" clip-rule="evenodd" d="M248.245 170.779C247.922 170.561 247.75 170.452 247.75 170.452L247.769 170.779H242.541C242.278 172.328 241.893 178.068 241.332 186.438C239.293 216.854 234.925 281.996 225.63 306.925H289.767C288.414 278.583 277.989 244.689 267.189 215.91C275.158 223.857 284.465 237.179 291.987 259.355L304.001 256.264C291.758 203.387 255.888 176.116 248.928 171.249C248.86 171.092 248.792 170.935 248.725 170.779H248.245Z" fill="#DDE3E9"/>
</svg>
